<svg width="500" height="500" viewBox="0 0 500 500" fill="none" xmlns="http://www.w3.org/2000/svg">
<path d="M46.815 381.417C18.466 335.313 19.508 270.819 44.721 223.725C54.41 205.626 75.711 203.677 94.139 204.844C110.175 205.859 128.715 205.74 143.342 197.234C161.44 186.71 166.964 164.887 174.636 146.835C207.099 70.458 329.415 57.948 370.801 133.874C387.565 164.63 413.608 189.843 436.672 216.329C461.317 244.63 482.113 273.146 470.734 312.396C448.556 388.895 415.572 402.648 415.572 402.648C356.691 402.713 297.808 402.364 238.928 402.278C202.238 402.224 165.602 404.8 128.914 404.821C100.915 404.836 63.801 409.041 46.815 381.417Z" fill="#C7EAFC"/>
<path d="M252.135 417.157C374.844 417.157 474.319 412.479 474.319 406.708C474.319 400.937 374.844 396.259 252.135 396.259C129.426 396.259 29.951 400.937 29.951 406.708C29.951 412.479 129.426 417.157 252.135 417.157Z" fill="#C1DDED"/>
<path d="M254.656 84.485H189.223C186.656 84.485 184.575 86.566 184.575 89.133V100.486C184.575 103.053 186.656 105.134 189.223 105.134L191.115 112.892L198.168 105.134H254.656C257.223 105.134 259.304 103.053 259.304 100.486V89.134C259.304 86.566 257.223 84.485 254.656 84.485Z" fill="#5BB039"/>
<path d="M190.024 88.5599H253.855" stroke="white" stroke-width="1.0759" stroke-miterlimit="10"/>
<path d="M190.024 91.381H253.855" stroke="white" stroke-width="1.0759" stroke-miterlimit="10"/>
<path d="M190.024 94.2029H253.855" stroke="white" stroke-width="1.0759" stroke-miterlimit="10"/>
<path d="M190.024 97.0239H253.855" stroke="white" stroke-width="1.0759" stroke-miterlimit="10"/>
<path d="M190.024 99.845H253.855" stroke="white" stroke-width="1.0759" stroke-miterlimit="10"/>
<path d="M265.529 105.836H322.822C325.07 105.836 326.892 107.658 326.892 109.906V119.847C326.892 122.095 325.07 123.917 322.822 123.917L321.166 130.71L314.99 123.917H265.529C263.281 123.917 261.459 122.095 261.459 119.847V109.906C261.459 107.658 263.281 105.836 265.529 105.836Z" fill="#FF795C"/>
<path d="M322.12 109.403H266.231" stroke="white" stroke-width="1.0759" stroke-miterlimit="10"/>
<path d="M322.12 111.873H266.231" stroke="white" stroke-width="1.0759" stroke-miterlimit="10"/>
<path d="M322.12 114.344H266.231" stroke="white" stroke-width="1.0759" stroke-miterlimit="10"/>
<path d="M322.12 116.814H266.231" stroke="white" stroke-width="1.0759" stroke-miterlimit="10"/>
<path d="M322.12 119.284H266.231" stroke="white" stroke-width="1.0759" stroke-miterlimit="10"/>
<path d="M430.979 145.332C430.712 143.215 432.211 141.283 434.327 141.016C434.461 140.999 434.594 140.99 434.726 140.986C434.031 138.999 433.034 137.148 431.79 135.486C431.781 135.496 431.773 135.507 431.763 135.517C430.297 137.067 427.852 137.136 426.302 135.67C424.776 134.227 424.689 131.835 426.087 130.282C424.418 129.258 422.587 128.466 420.635 127.951C420.314 129.895 418.562 131.312 416.556 131.172C414.551 131.032 413.012 129.385 412.964 127.416C410.365 127.725 407.904 128.525 405.681 129.727C406.738 131.325 406.472 133.496 404.983 134.78C403.438 136.112 401.143 136.002 399.727 134.578C398.463 136.081 397.409 137.771 396.614 139.608C398.579 140.079 399.868 141.999 399.518 144.019C399.154 146.121 397.155 147.53 395.052 147.166C395.015 147.16 394.98 147.149 394.943 147.141C394.879 149.272 395.144 151.341 395.697 153.298C395.762 153.256 395.825 153.212 395.893 153.173C397.748 152.12 400.106 152.77 401.159 154.626C402.212 156.481 401.561 158.839 399.706 159.892C399.519 159.998 399.326 160.082 399.131 160.154C400.481 161.922 402.115 163.466 403.971 164.718C404.014 164.477 404.078 164.237 404.169 164C404.934 162.008 407.169 161.014 409.16 161.779C411.152 162.544 412.146 164.779 411.381 166.771C411.25 167.113 411.073 167.422 410.864 167.701C411.872 167.929 412.911 168.083 413.974 168.157C415.31 168.25 416.624 168.209 417.905 168.052C417.712 167.767 417.552 167.453 417.438 167.111C416.765 165.087 417.861 162.9 419.885 162.227C421.91 161.554 424.096 162.65 424.769 164.674C424.897 165.058 424.96 165.447 424.966 165.831C427.065 164.718 428.952 163.249 430.545 161.498C430.243 161.401 429.947 161.269 429.665 161.092C427.86 159.955 427.318 157.57 428.455 155.765C429.592 153.96 431.977 153.418 433.783 154.555C434.047 154.721 434.281 154.917 434.49 155.131C435.212 153.265 435.671 151.262 435.818 149.162C435.832 148.962 435.836 148.763 435.845 148.564C435.666 148.614 435.483 148.655 435.294 148.679C433.179 148.948 431.246 147.449 430.979 145.332ZM414.723 157.447C409.361 157.073 405.318 152.423 405.692 147.061C406.066 141.699 410.716 137.656 416.077 138.03C421.439 138.404 425.482 143.054 425.108 148.416C424.735 153.778 420.085 157.821 414.723 157.447Z" fill="#85BFF1"/>
<path d="M390.336 200.477C389.876 196.836 392.455 193.513 396.095 193.053C396.325 193.024 396.554 193.007 396.781 193.002C395.585 189.585 393.87 186.401 391.732 183.543C391.716 183.561 391.702 183.579 391.686 183.597C389.165 186.263 384.96 186.381 382.294 183.86C379.668 181.377 379.52 177.265 381.924 174.594C379.053 172.833 375.905 171.47 372.546 170.585C371.995 173.929 368.98 176.366 365.531 176.125C362.082 175.884 359.435 173.052 359.353 169.664C354.883 170.195 350.65 171.571 346.828 173.638C348.647 176.386 348.188 180.12 345.627 182.328C342.97 184.619 339.023 184.43 336.587 181.98C334.412 184.565 332.6 187.473 331.233 190.631C334.613 191.442 336.829 194.744 336.228 198.217C335.602 201.832 332.163 204.256 328.547 203.629C328.483 203.618 328.423 203.599 328.36 203.587C328.25 207.251 328.706 210.811 329.656 214.177C329.768 214.105 329.876 214.029 329.994 213.962C333.185 212.151 337.24 213.27 339.052 216.461C340.863 219.652 339.744 223.707 336.553 225.519C336.232 225.701 335.9 225.846 335.565 225.97C337.888 229.011 340.698 231.667 343.89 233.819C343.963 233.405 344.074 232.992 344.23 232.584C345.546 229.159 349.39 227.449 352.815 228.765C356.24 230.081 357.95 233.925 356.634 237.35C356.408 237.938 356.104 238.47 355.744 238.95C357.478 239.342 359.264 239.607 361.092 239.735C363.39 239.895 365.649 239.824 367.853 239.555C367.522 239.064 367.246 238.525 367.051 237.936C365.894 234.454 367.778 230.693 371.26 229.536C374.742 228.378 378.503 230.263 379.661 233.745C379.88 234.405 379.989 235.075 380 235.735C383.61 233.821 386.855 231.294 389.595 228.283C389.075 228.116 388.566 227.889 388.082 227.585C384.977 225.629 384.046 221.527 386.001 218.422C387.957 215.317 392.059 214.386 395.164 216.342C395.618 216.628 396.02 216.965 396.379 217.333C397.62 214.124 398.41 210.679 398.662 207.067C398.686 206.722 398.694 206.381 398.708 206.038C398.4 206.123 398.086 206.195 397.76 206.236C394.119 206.696 390.795 204.118 390.336 200.477ZM362.377 221.314C353.155 220.67 346.201 212.673 346.845 203.452C347.489 194.231 355.486 187.276 364.707 187.92C373.929 188.563 380.882 196.561 380.239 205.782C379.596 215.003 371.599 221.957 362.377 221.314Z" fill="#85BFF1"/>
<path d="M78.633 266.317C78.329 263.908 80.035 261.709 82.443 261.405C82.595 261.386 82.747 261.375 82.897 261.371C82.106 259.11 80.972 257.004 79.556 255.113C79.545 255.125 79.536 255.137 79.526 255.149C77.858 256.913 75.076 256.991 73.312 255.323C71.575 253.68 71.477 250.96 73.067 249.193C71.168 248.028 69.085 247.126 66.863 246.541C66.498 248.753 64.504 250.365 62.222 250.206C59.941 250.047 58.189 248.173 58.135 245.932C55.177 246.283 52.377 247.194 49.848 248.561C51.051 250.379 50.748 252.849 49.053 254.31C47.295 255.826 44.684 255.7 43.072 254.08C41.633 255.79 40.434 257.714 39.53 259.803C41.766 260.339 43.232 262.524 42.834 264.822C42.42 267.214 40.145 268.817 37.753 268.403C37.711 268.396 37.671 268.383 37.629 268.375C37.557 270.799 37.858 273.154 38.486 275.381C38.56 275.333 38.632 275.283 38.709 275.239C40.82 274.041 43.503 274.781 44.701 276.892C45.899 279.003 45.159 281.686 43.048 282.884C42.836 283.005 42.616 283.1 42.394 283.182C43.931 285.194 45.79 286.951 47.902 288.375C47.95 288.101 48.024 287.828 48.127 287.558C48.998 285.292 51.54 284.161 53.807 285.032C56.073 285.903 57.204 288.445 56.334 290.712C56.185 291.101 55.983 291.453 55.745 291.771C56.892 292.03 58.074 292.206 59.283 292.29C60.803 292.396 62.298 292.349 63.756 292.171C63.537 291.846 63.355 291.49 63.225 291.1C62.459 288.796 63.706 286.308 66.01 285.542C68.314 284.776 70.802 286.023 71.568 288.327C71.713 288.764 71.785 289.207 71.792 289.644C74.18 288.378 76.327 286.706 78.14 284.714C77.796 284.603 77.459 284.454 77.139 284.252C75.085 282.958 74.469 280.244 75.763 278.19C77.057 276.136 79.771 275.52 81.825 276.814C82.126 277.003 82.391 277.226 82.629 277.47C83.45 275.347 83.973 273.068 84.14 270.678C84.156 270.45 84.161 270.224 84.17 269.997C83.966 270.054 83.759 270.101 83.543 270.128C81.137 270.431 78.938 268.726 78.633 266.317ZM60.137 280.102C54.036 279.676 49.436 274.386 49.862 268.285C50.288 262.184 55.578 257.584 61.679 258.009C67.78 258.435 72.38 263.725 71.955 269.826C71.528 275.927 66.238 280.528 60.137 280.102Z" fill="#85BFF1"/>
<path d="M425.25 360.999C422.194 353.462 414.448 352.422 407.341 353.189C402.346 353.728 385.657 360.506 381.714 356.616C376.524 351.493 394.505 350.051 396.508 349.864C404.417 349.123 412.421 348.908 418.483 342.983C422.984 338.583 425.527 332.051 424.607 325.769C423.654 319.259 417.88 316.874 412.203 319.356C408.05 321.174 402.534 323.586 399.193 319.132C396.711 315.819 398.253 310.882 400.68 308.211C410.723 297.159 417.723 290.205 417.23 273.897C416.835 260.813 409.617 250.117 395.351 251.892C386.192 253.033 378.712 260.198 374.186 267.831C369.505 275.726 370.217 285.086 369.191 293.872C368.772 297.457 366.061 301.865 361.931 302.169C356.378 302.574 354.576 296.83 353.219 292.504C351.363 286.592 345.773 283.804 340.237 287.36C334.896 290.791 331.639 296.999 331.276 303.282C330.788 311.745 335.883 317.923 340.517 324.374C341.691 326.008 352.412 340.515 345.14 339.965C339.616 339.545 333.768 322.509 330.895 318.388C326.806 312.524 320.935 307.366 313.244 310.01C293.917 316.656 303.628 350.82 308.72 364.132C311.825 372.25 316.248 380.616 322.771 386.516C339.894 402.002 365.25 408.065 387.402 399.952C400.784 395.052 432.93 379.941 425.25 360.999Z" fill="#5BB039"/>
<path d="M340.759 398.085C342.966 392.723 345.283 387.412 347.542 382.074L354.505 366.144C359.149 355.525 363.928 344.968 368.708 334.411C373.524 323.871 378.362 313.34 383.3 302.856C388.214 292.36 393.239 281.915 398.375 271.52C393.908 282.219 389.331 292.868 384.642 303.467C379.977 314.076 375.213 324.64 370.426 335.194C365.603 345.731 360.78 356.268 355.821 366.744L348.38 382.456C345.837 387.664 343.353 392.9 340.759 398.085Z" fill="#D0EEFF"/>
<path d="M316.342 328.317C317.42 333.726 318.924 339.04 320.678 344.258C322.412 349.484 324.461 354.603 326.851 359.553C328.06 362.021 329.361 364.441 330.735 366.818C332.137 369.178 333.639 371.476 335.249 373.694C336.888 375.891 338.639 378.001 340.517 379.992C342.424 381.954 344.458 383.785 346.623 385.45L346.435 385.365C351.927 386.311 357.608 386.496 363.215 386.238C368.831 385.969 374.435 385.254 379.928 384.019C385.412 382.778 390.851 381.216 396.045 379.019C398.7 378.057 401.212 376.77 403.767 375.57C405.063 375.004 406.26 374.25 407.498 373.573L411.19 371.493L407.556 373.675C406.336 374.387 405.156 375.177 403.875 375.779C401.35 377.052 398.862 378.413 396.224 379.453C391.04 381.744 385.594 383.399 380.088 384.735C374.577 386.091 368.918 386.781 363.256 387.101C357.584 387.382 351.898 387.251 346.245 386.286L346.144 386.269L346.056 386.201C343.856 384.491 341.795 382.616 339.868 380.613C337.971 378.581 336.207 376.434 334.56 374.201C332.941 371.948 331.437 369.618 330.034 367.23C328.649 364.831 327.384 362.367 326.205 359.864C323.88 354.843 321.89 349.674 320.248 344.4C318.631 339.117 317.271 333.755 316.342 328.317Z" fill="#D0EEFF"/>
<path d="M343.023 299.23C344.484 302.81 346.124 306.312 347.924 309.727C349.702 313.153 351.641 316.491 353.735 319.726C355.822 322.966 358.103 326.074 360.541 329.047C362.986 332.019 365.714 334.734 368.585 337.276L368.36 337.17C372.015 337.695 375.799 337.75 379.53 337.619C383.273 337.478 387.002 337.067 390.713 336.528C392.558 336.197 394.418 335.934 396.246 335.505L398.997 334.905L401.724 334.2C403.556 333.778 405.336 333.17 407.144 332.654C408.936 332.088 410.703 331.443 412.492 330.853C410.74 331.536 408.999 332.263 407.222 332.888C405.432 333.471 403.667 334.148 401.846 334.639L399.125 335.415L396.374 336.081C394.546 336.554 392.681 336.861 390.83 337.237C387.109 337.891 383.343 338.292 379.566 338.473C375.782 338.631 372.006 338.613 368.201 338.096L368.075 338.079L367.975 337.99C365.066 335.396 362.33 332.614 359.878 329.594C357.452 326.561 355.124 323.441 353.12 320.116C351.087 316.812 349.212 313.415 347.51 309.935C345.844 306.439 344.283 302.888 343.023 299.23Z" fill="#D0EEFF"/>
<path d="M74.769 360.999C77.825 353.462 85.571 352.422 92.679 353.189C97.674 353.728 114.362 360.506 118.306 356.616C123.496 351.493 105.515 350.051 103.512 349.864C95.604 349.123 87.599 348.908 81.537 342.983C77.036 338.583 74.493 332.051 75.413 325.769C76.367 319.259 82.14 316.874 87.818 319.356C91.971 321.174 97.487 323.586 100.828 319.132C103.309 315.819 101.768 310.882 99.341 308.211C89.298 297.159 82.298 290.205 82.791 273.897C83.186 260.813 90.404 250.117 104.67 251.892C113.829 253.033 121.309 260.198 125.835 267.831C130.516 275.726 129.804 285.086 130.83 293.872C131.249 297.457 133.96 301.865 138.09 302.169C143.643 302.574 145.445 296.83 146.802 292.504C148.658 286.592 154.248 283.804 159.784 287.36C165.126 290.791 168.382 296.999 168.745 303.282C169.233 311.745 164.138 317.923 159.504 324.374C158.33 326.008 147.609 340.515 154.881 339.965C160.405 339.545 166.253 322.509 169.126 318.388C173.215 312.524 179.086 307.366 186.777 310.01C206.104 316.656 196.393 350.82 191.301 364.132C188.196 372.25 183.773 380.616 177.25 386.516C160.127 402.002 134.771 408.065 112.619 399.952C99.234 395.052 67.089 379.941 74.769 360.999Z" fill="#5BB039"/>
<path d="M159.26 398.085C156.666 392.9 154.182 387.664 151.639 382.455L144.198 366.743C139.24 356.268 134.416 345.73 129.593 335.193C124.807 324.639 120.042 314.075 115.377 303.466C110.688 292.868 106.111 282.219 101.644 271.519C106.779 281.914 111.805 292.359 116.719 302.855C121.657 313.34 126.495 323.87 131.311 334.41C136.091 344.967 140.87 355.524 145.514 366.143L152.477 382.073C154.736 387.412 157.053 392.724 159.26 398.085Z" fill="#D0EEFF"/>
<path d="M183.676 328.317C182.747 333.755 181.387 339.117 179.772 344.398C178.129 349.672 176.14 354.842 173.815 359.862C172.636 362.365 171.371 364.829 169.986 367.228C168.583 369.617 167.078 371.947 165.46 374.199C163.813 376.431 162.049 378.579 160.152 380.611C158.225 382.614 156.164 384.49 153.964 386.199L153.876 386.267L153.775 386.284C148.122 387.249 142.435 387.38 136.764 387.099C131.102 386.78 125.443 386.089 119.932 384.733C114.426 383.396 108.98 381.742 103.796 379.451C101.158 378.412 98.67 377.05 96.145 375.777C94.864 375.175 93.684 374.386 92.463 373.673L88.829 371.491L92.521 373.571C93.759 374.249 94.956 375.002 96.252 375.568C98.807 376.768 101.319 378.055 103.974 379.017C109.168 381.213 114.607 382.776 120.091 384.017C125.584 385.251 131.187 385.967 136.804 386.236C142.411 386.493 148.091 386.308 153.584 385.363L153.396 385.448C155.561 383.783 157.595 381.952 159.502 379.99C161.38 377.999 163.13 375.889 164.77 373.692C166.381 371.473 167.882 369.175 169.284 366.816C170.658 364.44 171.958 362.019 173.168 359.551C175.558 354.601 177.607 349.482 179.341 344.256C181.094 339.04 182.599 333.726 183.676 328.317Z" fill="#D0EEFF"/>
<path d="M156.996 299.23C155.736 302.888 154.175 306.439 152.512 309.936C150.81 313.416 148.934 316.813 146.902 320.117C144.898 323.442 142.57 326.562 140.144 329.595C137.693 332.614 134.957 335.396 132.047 337.99L131.947 338.079L131.821 338.096C128.016 338.613 124.24 338.631 120.456 338.473C116.679 338.291 112.913 337.891 109.192 337.237C107.341 336.861 105.476 336.555 103.648 336.081L100.897 335.415L98.176 334.639C96.355 334.148 94.59 333.471 92.8 332.888C91.023 332.263 89.283 331.536 87.53 330.853C89.319 331.443 91.086 332.088 92.878 332.654C94.687 333.169 96.466 333.778 98.298 334.2L101.025 334.905L103.776 335.505C105.603 335.934 107.464 336.196 109.309 336.528C113.02 337.067 116.749 337.478 120.492 337.619C124.223 337.75 128.007 337.695 131.662 337.17L131.437 337.276C134.308 334.735 137.035 332.019 139.481 329.047C141.919 326.074 144.2 322.966 146.287 319.726C148.38 316.491 150.32 313.152 152.098 309.727C153.895 306.312 155.535 302.81 156.996 299.23Z" fill="#D0EEFF"/>
<path d="M344.936 406.708H155.083C151.559 406.708 148.702 403.851 148.702 400.328V141.797C148.702 138.273 151.559 135.417 155.083 135.417H344.936C348.46 135.417 351.316 138.274 351.316 141.797V400.328C351.316 403.852 348.46 406.708 344.936 406.708Z" fill="#232D68"/>
<path d="M157.707 391.323V150.803C157.707 147.279 160.564 144.423 164.088 144.423H335.931C339.455 144.423 342.311 147.28 342.311 150.803V391.323C342.311 394.847 339.454 397.703 335.931 397.703H164.088C160.564 397.703 157.707 394.846 157.707 391.323Z" fill="#C7EAFC"/>
<path d="M187.341 137.668H160.324V134.225C160.324 132.69 161.568 131.446 163.103 131.446H184.561C186.096 131.446 187.34 132.69 187.34 134.225V137.668H187.341Z" fill="#232D68"/>
<path d="M337.485 241.443H168.989V307.573H337.485V241.443Z" fill="#5BB039"/>
<path d="M337.485 317.297H168.989V383.427H337.485V317.297Z" fill="#C1DDED"/>
<path d="M337.485 166.037H168.989V232.167H337.485V166.037Z" fill="#C1DDED"/>
<path d="M138.075 131.525H63.274V231.194H138.075V131.525Z" fill="#E36C52"/>
<path d="M131.88 135.692H69.47V227.028H131.88V135.692Z" fill="white"/>
<path d="M112.68 126.25V122.655C112.68 120.974 111.317 119.611 109.636 119.611H91.714C90.033 119.611 88.67 120.974 88.67 122.655V126.25H86.825C84.894 126.25 83.329 127.816 83.329 129.747V139.106H118.023V129.747C118.023 127.816 116.458 126.25 114.527 126.25H112.68Z" fill="#232D68"/>
<path d="M83.328 151.184H76.329V158.183H83.328V151.184Z" stroke="#85BFF1" stroke-width="0.5379" stroke-miterlimit="10"/>
<path d="M83.328 164.522H76.329V171.521H83.328V164.522Z" stroke="#85BFF1" stroke-width="0.5379" stroke-miterlimit="10"/>
<path d="M83.328 177.86H76.329V184.859H83.328V177.86Z" stroke="#85BFF1" stroke-width="0.5379" stroke-miterlimit="10"/>
<path d="M83.328 191.198H76.329V198.197H83.328V191.198Z" stroke="#85BFF1" stroke-width="0.5379" stroke-miterlimit="10"/>
<path d="M83.328 204.536H76.329V211.535H83.328V204.536Z" stroke="#85BFF1" stroke-width="0.5379" stroke-miterlimit="10"/>
<path d="M89.741 152.553H125.096" stroke="#C1DDED" stroke-width="0.269" stroke-miterlimit="10"/>
<path d="M89.741 154.683H125.096" stroke="#C1DDED" stroke-width="0.269" stroke-miterlimit="10"/>
<path d="M89.741 156.814H125.096" stroke="#C1DDED" stroke-width="0.269" stroke-miterlimit="10"/>
<path d="M89.741 165.891H125.096" stroke="#C1DDED" stroke-width="0.269" stroke-miterlimit="10"/>
<path d="M89.741 168.021H125.096" stroke="#C1DDED" stroke-width="0.269" stroke-miterlimit="10"/>
<path d="M89.741 170.152H125.096" stroke="#C1DDED" stroke-width="0.269" stroke-miterlimit="10"/>
<path d="M89.741 179.229H125.096" stroke="#C1DDED" stroke-width="0.269" stroke-miterlimit="10"/>
<path d="M89.741 181.359H125.096" stroke="#C1DDED" stroke-width="0.269" stroke-miterlimit="10"/>
<path d="M89.741 183.49H125.096" stroke="#C1DDED" stroke-width="0.269" stroke-miterlimit="10"/>
<path d="M89.741 192.567H125.096" stroke="#C1DDED" stroke-width="0.269" stroke-miterlimit="10"/>
<path d="M89.741 194.698H125.096" stroke="#C1DDED" stroke-width="0.269" stroke-miterlimit="10"/>
<path d="M89.741 196.828H125.096" stroke="#C1DDED" stroke-width="0.269" stroke-miterlimit="10"/>
<path d="M89.741 205.905H125.096" stroke="#C1DDED" stroke-width="0.269" stroke-miterlimit="10"/>
<path d="M89.741 208.036H125.096" stroke="#C1DDED" stroke-width="0.269" stroke-miterlimit="10"/>
<path d="M89.741 210.166H125.096" stroke="#C1DDED" stroke-width="0.269" stroke-miterlimit="10"/>
<path d="M78.271 167.372L80.034 169.502L83.778 160.595" stroke="#5BB039" stroke-width="1.0759" stroke-miterlimit="10" stroke-linecap="round" stroke-linejoin="round"/>
<path d="M78.271 206.859L80.034 208.99L83.778 200.083" stroke="#5BB039" stroke-width="1.0759" stroke-miterlimit="10" stroke-linecap="round" stroke-linejoin="round"/>
<path d="M85.886 137.013C85.775 136.375 85.723 135.737 85.68 135.099C85.631 134.461 85.624 133.823 85.617 133.185C85.623 132.547 85.63 131.909 85.679 131.271C85.722 130.633 85.774 129.995 85.886 129.357C85.998 129.995 86.05 130.633 86.093 131.271C86.142 131.909 86.149 132.547 86.155 133.185C86.148 133.823 86.141 134.461 86.092 135.099C86.049 135.738 85.997 136.375 85.886 137.013Z" fill="white"/>
<path d="M89.741 125.999C89.63 125.65 89.578 125.301 89.535 124.953C89.486 124.604 89.479 124.255 89.472 123.907C89.478 123.558 89.485 123.209 89.534 122.861C89.577 122.512 89.629 122.163 89.741 121.815C89.853 122.164 89.905 122.513 89.948 122.861C89.997 123.21 90.004 123.559 90.01 123.907C90.003 124.256 89.996 124.605 89.947 124.953C89.904 125.302 89.852 125.65 89.741 125.999Z" fill="white"/>
<path d="M65.84 135.692L66.037 147.245L66.149 158.799L66.243 181.906L66.151 205.013L66.038 216.567L65.84 228.12L65.643 216.567L65.53 205.013L65.438 181.906L65.532 158.799L65.644 147.245L65.84 135.692Z" fill="white"/>
<path d="M102.429 123.511C102.429 124.48 101.644 125.265 100.675 125.265C99.706 125.265 98.921 124.48 98.921 123.511C98.921 122.542 99.706 121.757 100.675 121.757C101.643 121.757 102.429 122.542 102.429 123.511Z" fill="white"/>
<path d="M334.258 238.215H165.762V304.345H334.258V238.215Z" fill="white"/>
<path d="M222.321 272.056C225.563 258.157 216.925 244.261 203.026 241.018C189.127 237.775 175.232 246.414 171.989 260.312C168.746 274.211 177.384 288.107 191.283 291.35C205.182 294.593 219.078 285.954 222.321 272.056Z" fill="#C7EAFC"/>
<path d="M329.355 244.039H236.971V253.053H329.355V244.039Z" fill="#5BB039"/>
<path d="M234.025 260.971H332.302" stroke="#C1DDED" stroke-width="1.0759" stroke-miterlimit="10"/>
<path d="M234.025 265.853H332.302" stroke="#C1DDED" stroke-width="1.0759" stroke-miterlimit="10"/>
<path d="M234.025 270.736H332.302" stroke="#C1DDED" stroke-width="1.0759" stroke-miterlimit="10"/>
<path d="M234.025 275.618H332.302" stroke="#C1DDED" stroke-width="1.0759" stroke-miterlimit="10"/>
<path d="M234.025 280.5H332.302" stroke="#C1DDED" stroke-width="1.0759" stroke-miterlimit="10"/>
<path d="M234.025 285.383H332.302" stroke="#C1DDED" stroke-width="1.0759" stroke-miterlimit="10"/>
<path d="M234.025 290.265H332.302" stroke="#C1DDED" stroke-width="1.0759" stroke-miterlimit="10"/>
<path d="M234.025 295.148H332.302" stroke="#C1DDED" stroke-width="1.0759" stroke-miterlimit="10"/>
<path d="M182.612 294.708L183.47 296.445L185.387 296.724L184 298.076L184.327 299.985L182.612 299.083L180.898 299.985L181.225 298.076L179.838 296.724L181.755 296.445L182.612 294.708Z" fill="#FFC722"/>
<path d="M189.893 294.708L190.75 296.445L192.667 296.724L191.28 298.076L191.607 299.985L189.893 299.083L188.178 299.985L188.505 298.076L187.118 296.724L189.035 296.445L189.893 294.708Z" fill="#FFC722"/>
<path d="M197.173 294.708L198.03 296.445L199.947 296.724L198.56 298.076L198.887 299.985L197.173 299.083L195.458 299.985L195.786 298.076L194.398 296.724L196.315 296.445L197.173 294.708Z" fill="#FFC722"/>
<path d="M204.453 294.708L205.31 296.445L207.227 296.724L205.84 298.076L206.167 299.985L204.453 299.083L202.738 299.985L203.066 298.076L201.679 296.724L203.596 296.445L204.453 294.708Z" fill="#FFC722"/>
<path d="M211.733 294.708L212.59 296.445L214.507 296.724L213.12 298.076L213.448 299.985L211.733 299.083L210.018 299.985L210.346 298.076L208.959 296.724L210.876 296.445L211.733 294.708Z" fill="#C1DDED"/>
<path d="M222.321 272.056C225.563 258.157 216.925 244.261 203.026 241.018C189.127 237.775 175.232 246.414 171.989 260.312C168.746 274.211 177.384 288.107 191.283 291.35C205.182 294.593 219.078 285.954 222.321 272.056Z" fill="#C1DDED"/>
<mask id="mask0_24_168" style="mask-type:luminance" maskUnits="userSpaceOnUse" x="171" y="240" width="53" height="53">
<path d="M222.321 272.056C225.563 258.157 216.925 244.261 203.026 241.018C189.127 237.775 175.232 246.414 171.989 260.312C168.746 274.211 177.384 288.107 191.283 291.35C205.182 294.593 219.078 285.954 222.321 272.056Z" fill="white"/>
</mask>
<g mask="url(#mask0_24_168)">
<path d="M204.336 271.359C207.15 269.202 208.972 265.817 208.972 261.998C208.972 255.482 203.689 250.199 197.173 250.199C190.656 250.199 185.374 255.482 185.374 261.998C185.374 265.817 187.196 269.202 190.01 271.359C181.222 274.343 174.896 282.656 174.896 292.453H219.451C219.45 282.657 213.124 274.343 204.336 271.359Z" fill="white"/>
</g>
<path d="M334.258 314.07H165.762V380.2H334.258V314.07Z" fill="white"/>
<path d="M197.173 367.884C211.446 367.884 223.016 356.314 223.016 342.041C223.016 327.768 211.446 316.198 197.173 316.198C182.9 316.198 171.33 327.768 171.33 342.041C171.33 356.314 182.9 367.884 197.173 367.884Z" fill="#C7EAFC"/>
<path d="M329.355 319.893H236.971V328.907H329.355V319.893Z" fill="#85BFF1"/>
<path d="M234.025 336.825H332.302" stroke="#C1DDED" stroke-width="1.0759" stroke-miterlimit="10"/>
<path d="M234.025 341.708H332.302" stroke="#C1DDED" stroke-width="1.0759" stroke-miterlimit="10"/>
<path d="M234.025 346.59H332.302" stroke="#C1DDED" stroke-width="1.0759" stroke-miterlimit="10"/>
<path d="M234.025 351.472H332.302" stroke="#C1DDED" stroke-width="1.0759" stroke-miterlimit="10"/>
<path d="M234.025 356.355H332.302" stroke="#C1DDED" stroke-width="1.0759" stroke-miterlimit="10"/>
<path d="M234.025 361.237H332.302" stroke="#C1DDED" stroke-width="1.0759" stroke-miterlimit="10"/>
<path d="M234.025 366.12H332.302" stroke="#C1DDED" stroke-width="1.0759" stroke-miterlimit="10"/>
<path d="M234.025 371.002H332.302" stroke="#C1DDED" stroke-width="1.0759" stroke-miterlimit="10"/>
<path d="M182.612 370.563L183.47 372.299L185.387 372.578L184 373.93L184.327 375.839L182.612 374.938L180.898 375.839L181.225 373.93L179.838 372.578L181.755 372.299L182.612 370.563Z" fill="#FFC722"/>
<path d="M189.893 370.563L190.75 372.299L192.667 372.578L191.28 373.93L191.607 375.839L189.893 374.938L188.178 375.839L188.505 373.93L187.118 372.578L189.035 372.299L189.893 370.563Z" fill="#FFC722"/>
<path d="M197.173 370.563L198.03 372.299L199.947 372.578L198.56 373.93L198.887 375.839L197.173 374.938L195.458 375.839L195.786 373.93L194.398 372.578L196.315 372.299L197.173 370.563Z" fill="#C1DDED"/>
<path d="M204.453 370.563L205.31 372.299L207.227 372.578L205.84 373.93L206.167 375.839L204.453 374.938L202.738 375.839L203.066 373.93L201.679 372.578L203.596 372.299L204.453 370.563Z" fill="#C1DDED"/>
<path d="M211.733 370.563L212.59 372.299L214.507 372.578L213.12 373.93L213.448 375.839L211.733 374.938L210.018 375.839L210.346 373.93L208.959 372.578L210.876 372.299L211.733 370.563Z" fill="#C1DDED"/>
<path d="M197.173 367.884C211.446 367.884 223.016 356.314 223.016 342.041C223.016 327.768 211.446 316.198 197.173 316.198C182.9 316.198 171.33 327.768 171.33 342.041C171.33 356.314 182.9 367.884 197.173 367.884Z" fill="#C1DDED"/>
<mask id="mask1_24_168" style="mask-type:luminance" maskUnits="userSpaceOnUse" x="171" y="316" width="53" height="52">
<path d="M197.173 367.884C211.446 367.884 223.016 356.314 223.016 342.041C223.016 327.768 211.446 316.198 197.173 316.198C182.9 316.198 171.33 327.768 171.33 342.041C171.33 356.314 182.9 367.884 197.173 367.884Z" fill="white"/>
</mask>
<g mask="url(#mask1_24_168)">
<path d="M204.336 347.214C207.15 345.058 208.972 341.672 208.972 337.853C208.972 331.336 203.689 326.054 197.173 326.054C190.656 326.054 185.374 331.337 185.374 337.853C185.374 341.672 187.196 345.057 190.01 347.214C181.222 350.198 174.896 358.511 174.896 368.308H219.451C219.45 358.511 213.124 350.198 204.336 347.214Z" fill="white"/>
</g>
<path d="M334.258 162.81H165.762V228.94H334.258V162.81Z" fill="white"/>
<path d="M197.173 216.624C211.446 216.624 223.016 205.054 223.016 190.781C223.016 176.508 211.446 164.938 197.173 164.938C182.9 164.938 171.33 176.508 171.33 190.781C171.33 205.054 182.9 216.624 197.173 216.624Z" fill="#C7EAFC"/>
<path d="M329.355 168.633H236.971V177.647H329.355V168.633Z" fill="#FF795C"/>
<path d="M234.025 185.565H332.302" stroke="#C1DDED" stroke-width="1.0759" stroke-miterlimit="10"/>
<path d="M234.025 190.447H332.302" stroke="#C1DDED" stroke-width="1.0759" stroke-miterlimit="10"/>
<path d="M234.025 195.33H332.302" stroke="#C1DDED" stroke-width="1.0759" stroke-miterlimit="10"/>
<path d="M234.025 200.212H332.302" stroke="#C1DDED" stroke-width="1.0759" stroke-miterlimit="10"/>
<path d="M234.025 205.095H332.302" stroke="#C1DDED" stroke-width="1.0759" stroke-miterlimit="10"/>
<path d="M234.025 209.977H332.302" stroke="#C1DDED" stroke-width="1.0759" stroke-miterlimit="10"/>
<path d="M234.025 214.859H332.302" stroke="#C1DDED" stroke-width="1.0759" stroke-miterlimit="10"/>
<path d="M234.025 219.742H332.302" stroke="#C1DDED" stroke-width="1.0759" stroke-miterlimit="10"/>
<path d="M182.612 219.302L183.47 221.039L185.387 221.318L184 222.67L184.327 224.579L182.612 223.678L180.898 224.579L181.225 222.67L179.838 221.318L181.755 221.039L182.612 219.302Z" fill="#FFC722"/>
<path d="M189.893 219.302L190.75 221.039L192.667 221.318L191.28 222.67L191.607 224.579L189.893 223.678L188.178 224.579L188.505 222.67L187.118 221.318L189.035 221.039L189.893 219.302Z" fill="#FFC722"/>
<path d="M197.173 219.302L198.03 221.039L199.947 221.318L198.56 222.67L198.887 224.579L197.173 223.678L195.458 224.579L195.786 222.67L194.398 221.318L196.315 221.039L197.173 219.302Z" fill="#FFC722"/>
<path d="M204.453 219.302L205.31 221.039L207.227 221.318L205.84 222.67L206.167 224.579L204.453 223.678L202.738 224.579L203.066 222.67L201.679 221.318L203.596 221.039L204.453 219.302Z" fill="#C1DDED"/>
<path d="M211.733 219.302L212.59 221.039L214.507 221.318L213.12 222.67L213.448 224.579L211.733 223.678L210.018 224.579L210.346 222.67L208.959 221.318L210.876 221.039L211.733 219.302Z" fill="#C1DDED"/>
<path d="M197.173 216.624C211.446 216.624 223.016 205.054 223.016 190.781C223.016 176.508 211.446 164.938 197.173 164.938C182.9 164.938 171.33 176.508 171.33 190.781C171.33 205.054 182.9 216.624 197.173 216.624Z" fill="#C1DDED"/>
<mask id="mask2_24_168" style="mask-type:luminance" maskUnits="userSpaceOnUse" x="171" y="164" width="53" height="53">
<path d="M197.173 216.624C211.446 216.624 223.016 205.054 223.016 190.781C223.016 176.508 211.446 164.938 197.173 164.938C182.9 164.938 171.33 176.508 171.33 190.781C171.33 205.054 182.9 216.624 197.173 216.624Z" fill="white"/>
</mask>
<g mask="url(#mask2_24_168)">
<path d="M204.336 195.954C207.15 193.797 208.972 190.412 208.972 186.593C208.972 180.077 203.689 174.794 197.173 174.794C190.656 174.794 185.374 180.077 185.374 186.593C185.374 190.412 187.196 193.797 190.01 195.954C181.222 198.938 174.896 207.251 174.896 217.048H219.451C219.45 207.251 213.124 198.937 204.336 195.954Z" fill="white"/>
</g>
<path d="M330.742 265.372C339.327 261.859 343.438 252.05 339.924 243.465C336.411 234.88 326.602 230.769 318.017 234.283C309.432 237.797 305.321 247.605 308.835 256.19C312.349 264.775 322.157 268.886 330.742 265.372Z" fill="#5BB039"/>
<path d="M330.742 265.372C339.327 261.859 343.438 252.05 339.924 243.465C336.411 234.88 326.602 230.769 318.017 234.283C309.432 237.797 305.321 247.605 308.835 256.19C312.349 264.775 322.157 268.886 330.742 265.372Z" fill="#5BB039"/>
<path d="M324.372 265.204C332.866 265.204 339.751 258.319 339.751 249.825C339.751 241.331 332.866 234.446 324.372 234.446C315.878 234.446 308.993 241.331 308.993 249.825C308.993 258.319 315.878 265.204 324.372 265.204Z" stroke="white" stroke-width="0.9851" stroke-miterlimit="10"/>
<path d="M316.841 249.386L324.372 256.923L330.12 240.494" stroke="white" stroke-width="1.9702" stroke-miterlimit="10" stroke-linecap="round" stroke-linejoin="round"/>
<path d="M348.902 272.335C348.379 271.785 347.551 271.513 346.904 271.139C346.198 270.732 345.502 270.27 344.949 269.665C344.69 269.382 344.374 269.238 344.038 269.066C343.795 268.942 343.552 268.819 343.305 268.702C342.454 268.298 341.579 267.91 340.658 267.696L340.871 267.288C340.949 267.138 341.123 267.064 341.286 267.114C341.869 267.291 343.215 267.662 343.789 267.518C344.27 267.397 343.895 266.98 343.682 266.787C343.354 266.489 342.981 266.216 342.653 265.908C342.311 265.586 341.981 265.249 341.641 264.924L340.575 263.909L340.671 263.738C340.867 263.39 341.324 263.293 341.645 263.529C341.668 263.546 341.685 263.559 341.693 263.564C342.115 263.853 342.531 264.153 342.926 264.478C343.306 264.79 343.653 265.146 344.07 265.409C344.213 265.5 344.704 265.849 344.877 265.724C344.983 265.647 344.942 265.437 344.909 265.33C344.784 264.92 344.462 264.599 344.172 264.298C343.291 263.383 342.406 262.47 341.523 261.557C341.846 261.141 342.428 261.113 342.768 261.475L344.605 263.429C344.858 263.698 345.111 263.968 345.364 264.237C345.55 264.435 345.772 264.745 346.063 264.773C346.722 264.837 345.836 263.29 345.717 263.048C345.354 262.31 344.991 261.573 344.627 260.835C344.617 260.815 344.437 260.463 344.442 260.46C344.865 260.196 345.421 260.321 345.689 260.741C346.272 261.652 346.839 262.578 347.339 263.534C347.672 264.171 347.994 264.852 348.465 265.401C348.698 265.673 348.995 266.079 349.367 266.158C349.423 266.17 349.484 266.172 349.535 266.147C349.588 266.121 349.624 266.069 349.656 266.019C350.069 265.382 350.359 264.68 350.663 263.988C350.821 263.629 351.242 263.297 351.61 263.181C352.098 263.026 352.39 263.521 352.223 263.942C352.1 264.252 351.894 264.524 351.782 264.839C351.653 265.205 351.443 266.076 351.476 266.446C351.539 267.175 351.696 267.786 351.498 268.523C351.39 268.925 351.127 269.432 351.155 269.877L348.902 272.335Z" fill="#F9AF88"/>
<path d="M348.902 272.335L352.566 276.713L355.457 273.349L351.16 269.877L348.902 272.335Z" fill="#F9AF88"/>
<path d="M391.183 249.314L391.69 257.325L383.041 264.429L380.203 258.421C380.203 258.421 383.906 255.207 382.611 251.991L391.183 249.314Z" fill="#F9AF88"/>
<path d="M394.43 240.132C394.457 237.524 393.842 234.921 392.523 232.66C391.059 230.15 388.57 227.967 385.665 227.925C382.778 227.883 380.236 229.968 378.708 232.418C376.44 236.054 376.017 240.694 377.297 244.753C378.34 248.063 381.63 253.469 385.675 253.478C391.234 253.492 394.385 244.51 394.43 240.132Z" fill="#F9AF88"/>
<path d="M391.901 405.559C392.371 404.31 392.655 403.471 392.655 403.471L392.582 396.444L386.586 396.449C386.455 399.175 386.412 401.584 386.124 404.299C386.079 404.72 386.024 405.14 385.97 405.559H391.901Z" fill="#F9AF88"/>
<path d="M362.123 404.665C362.391 403.928 362.546 403.471 362.546 403.471L362.473 396.444L356.477 396.449C356.346 399.175 356.303 401.584 356.015 404.299C356.002 404.421 355.987 404.543 355.974 404.665H362.123Z" fill="#F9AF88"/>
<path d="M382.896 257.79C382.007 257.652 381.133 257.438 380.259 257.222C378.902 256.887 376.035 256.748 372.985 260.092C368.761 264.722 361.392 278.438 361.392 278.438L351.16 269.877L348.903 272.335C348.903 272.335 359.405 287.06 363.23 287.385C367.055 287.71 373.31 271.87 373.31 271.87C373.31 271.87 370.223 276.256 371.523 279.343C372.823 282.43 369.655 303.143 369.655 303.143C369.655 303.143 386.659 307.367 398.898 303.143C398.898 303.143 392.531 292.178 393.332 282.119C394.133 272.06 397.316 270.134 397.316 270.134C397.316 270.134 407.833 280.528 407.563 283.107C407.292 285.686 400.267 298.969 400.267 298.969L402.878 301.048C402.878 301.048 417.834 287.984 414.919 278.722C412.004 269.46 402.581 256.955 396.516 256.872C390.451 256.789 387.635 256.96 387.635 256.96L384.061 262.637L383.215 257.839L382.896 257.79Z" fill="#FF795C"/>
<path d="M396.9 299.087C396.9 299.087 406.167 314.19 400.76 328.811C395.686 342.535 394.941 352.676 394.906 356.313C394.871 359.95 392.655 401.188 392.655 401.188H386.371C386.371 401.188 383.579 367.994 382.238 356.538C380.898 345.082 380.22 326.222 380.22 326.222C380.22 326.222 373.14 352.093 371.83 360.759C370.52 369.425 362.545 400.874 362.545 400.874H356.241C356.241 400.874 356.82 360.112 357.794 353.127C358.769 346.141 369.982 300.87 369.982 300.87L396.9 299.087Z" fill="#232D68"/>
<path d="M402.877 301.048C402.365 301.608 402.152 302.454 401.825 303.125C401.468 303.858 401.057 304.584 400.493 305.179C400.229 305.457 400.108 305.782 399.959 306.13C399.852 306.381 399.747 306.633 399.648 306.887C399.305 307.764 398.979 308.664 398.831 309.598L398.409 309.415C398.254 309.347 398.168 309.179 398.206 309.014C398.341 308.419 398.617 307.052 398.433 306.489C398.278 306.018 397.889 306.421 397.711 306.647C397.437 306.995 397.191 307.387 396.906 307.735C396.609 308.099 396.295 308.451 395.996 308.814L395.058 309.949L394.881 309.865C394.521 309.694 394.391 309.245 394.604 308.908C394.62 308.884 394.631 308.866 394.636 308.857C394.895 308.415 395.165 307.98 395.461 307.562C395.745 307.161 396.076 306.79 396.31 306.355C396.39 306.206 396.704 305.692 396.567 305.528C396.483 305.428 396.276 305.483 396.172 305.523C395.771 305.676 395.474 306.02 395.194 306.33C394.343 307.274 393.495 308.22 392.646 309.165C392.208 308.872 392.14 308.293 392.477 307.929L394.297 305.959C394.548 305.688 394.799 305.416 395.05 305.145C395.234 304.945 395.528 304.702 395.536 304.41C395.553 303.749 394.072 304.741 393.839 304.877C393.129 305.291 392.418 305.705 391.708 306.119C391.689 306.13 391.351 306.335 391.347 306.33C391.054 305.927 391.14 305.363 391.539 305.066C392.407 304.421 393.29 303.79 394.209 303.223C394.821 302.846 395.477 302.477 395.992 301.968C396.247 301.716 396.631 301.392 396.683 301.015C396.691 300.958 396.689 300.897 396.66 300.848C396.63 300.796 396.576 300.765 396.523 300.736C395.859 300.369 395.138 300.129 394.426 299.874C394.057 299.742 393.696 299.345 393.554 298.986C393.366 298.51 393.839 298.185 394.27 298.321C394.588 298.422 394.874 298.609 395.196 298.697C395.571 298.8 396.454 298.948 396.821 298.89C397.543 298.775 398.142 298.576 398.891 298.722C399.3 298.801 399.823 299.029 400.266 298.969L402.877 301.048Z" fill="#F9AF88"/>
<path d="M383.322 232.505C383.322 232.505 386.893 237.126 390.739 240.79C394.585 244.454 388.679 254.068 389.503 258.875C389.503 258.875 393.686 263.112 399.148 257.56C404.61 252.008 397.057 222.891 383.322 226.187C371.485 229.028 373.966 253.332 374.878 259.993C375.007 260.933 375.872 261.581 376.811 261.447C378.528 261.202 381.198 260.784 383.048 260.322C385.978 259.59 383.703 253.498 380.204 247.75C376.704 242.002 378.789 234.016 383.322 232.505Z" fill="#232D68"/>
<path d="M382.777 252.558C382.777 252.558 386.789 255.027 391.201 249.603C391.201 249.603 388.687 257.16 382.777 252.558Z" fill="#ED955F"/>
<path d="M356.137 403.204C356.137 403.204 357.473 404.702 359.417 404.743C361.361 404.784 362.414 403.406 362.819 403.731C363.224 404.055 363.629 407.821 362.819 408.226C362.009 408.631 347.957 410.413 347.228 408.752C346.499 407.092 351.318 406.16 352.857 405.148C354.396 404.136 356.137 403.204 356.137 403.204Z" fill="#FF795C"/>
<path d="M386.284 403.587C386.284 403.587 387.62 405.085 389.564 405.126C391.508 405.167 392.561 403.79 392.966 404.114C393.371 404.438 393.776 408.204 392.966 408.609C392.156 409.014 378.104 410.796 377.375 409.135C376.646 407.475 381.465 406.543 383.004 405.531C384.543 404.518 386.284 403.587 386.284 403.587Z" fill="#FF795C"/>
<path d="M162.314 267.509C163.33 266.953 162.638 266.209 162.633 266.203C162.805 266.387 163.094 265.64 163.08 265.518C162.965 264.505 161.523 265.094 160.968 265.309C160.784 265.38 159.043 266.307 158.961 266.235C158.961 266.235 158.635 265.952 158.063 266.265C157.491 266.578 156.326 268.492 156.326 268.492L156.191 268.954L157.535 270.997C157.535 270.997 158.54 270.915 159.335 270.981C160.13 271.047 160.218 270.675 161.411 270.523C162.604 270.371 162.224 269.028 162.224 269.028C163.102 268.241 162.314 267.509 162.314 267.509Z" fill="#F9AF88"/>
<path d="M180.138 248.899C175.046 244.382 167.257 244.849 162.74 249.941C158.223 255.033 158.69 262.822 163.782 267.339C168.874 271.856 176.663 271.389 181.18 266.297C185.697 261.205 185.23 253.415 180.138 248.899ZM165.558 265.336C161.572 261.8 161.207 255.702 164.742 251.716C168.278 247.73 174.376 247.365 178.362 250.9C182.348 254.436 182.714 260.534 179.178 264.52C175.642 268.507 169.544 268.872 165.558 265.336Z" fill="#5BB039"/>
<g opacity="0.44">
<path d="M172.082 257.98C169.731 260.631 166.349 261.47 164.528 259.855C162.707 258.24 163.137 254.782 165.488 252.131C167.839 249.481 171.221 248.641 173.042 250.256C174.863 251.872 174.434 255.33 172.082 257.98Z" fill="white"/>
</g>
<path d="M175.394 247.605C174.509 247.45 173.616 247.355 172.723 247.371C171.831 247.35 170.945 247.446 170.073 247.59C168.338 247.906 166.661 248.611 165.354 249.783C164.034 250.927 163.03 252.42 162.375 254.068C162.011 254.876 161.834 255.757 161.55 256.603L161.052 259.246C161.122 258.352 161.219 257.454 161.31 256.553C161.549 255.683 161.687 254.776 162.016 253.928L162.544 252.665C162.707 252.237 163.012 251.88 163.24 251.483L163.61 250.903C163.745 250.718 163.913 250.558 164.064 250.384C164.39 250.06 164.647 249.663 165.031 249.401C166.434 248.199 168.204 247.455 170.011 247.211C171.819 246.974 173.667 247.092 175.394 247.605Z" fill="white"/>
<path d="M143.394 290.395L143.324 290.333C142.457 289.564 142.378 288.239 143.147 287.372L162.827 265.185L166.035 268.031L146.355 290.218C145.586 291.084 144.26 291.163 143.394 290.395Z" fill="#5BB039"/>
<path d="M162.501 272.183L159.125 269.189C158.772 268.876 158.739 268.335 159.053 267.982L159.755 267.191C160.068 266.838 160.609 266.805 160.962 267.119L164.338 270.113C164.691 270.426 164.724 270.967 164.41 271.32L163.708 272.111C163.395 272.464 162.854 272.496 162.501 272.183Z" fill="white"/>
<path d="M148.023 288.505L144.647 285.511C144.294 285.198 144.261 284.657 144.575 284.304L145.277 283.513C145.59 283.16 146.131 283.127 146.484 283.441L149.86 286.435C150.213 286.748 150.246 287.289 149.932 287.642L149.23 288.433C148.917 288.786 148.376 288.818 148.023 288.505Z" fill="white"/>
<path d="M115.404 247.691L114.897 255.702L123.546 262.806L126.384 256.798C126.384 256.798 122.681 253.584 123.976 250.368L115.404 247.691Z" fill="#F9AF88"/>
<path d="M112.156 238.51C112.129 235.902 112.744 233.299 114.064 231.038C115.528 228.528 118.017 226.345 120.922 226.303C123.809 226.261 126.351 228.346 127.88 230.796C130.148 234.432 130.571 239.072 129.291 243.131C128.248 246.441 124.957 251.847 120.913 251.856C115.353 251.869 112.202 242.887 112.156 238.51Z" fill="#F9AF88"/>
<path d="M135.259 274.814C134.814 272.439 133.277 270.247 133.277 270.247C133.277 270.247 134.069 272.25 135.259 274.814Z" fill="#FF795C"/>
<path d="M109.687 297.464C109.687 297.464 100.42 312.567 105.827 327.188C110.902 340.912 111.646 351.053 111.681 354.69C111.717 358.326 113.766 405.659 113.766 405.659L119.468 405.085C119.468 405.085 123.008 366.371 124.348 354.914C125.688 343.458 126.366 324.598 126.366 324.598C126.366 324.598 134.943 348.696 136.253 357.362C137.563 366.028 145.298 405.085 145.298 405.085C147.31 405.212 149.223 405.113 151 404.703C151 404.703 149.766 358.489 148.792 351.503C147.817 344.517 136.604 299.246 136.604 299.246L109.687 297.464Z" fill="#F9AF88"/>
<path d="M123.81 250.935C123.81 250.935 119.798 253.404 115.386 247.98C115.386 247.98 117.9 255.537 123.81 250.935Z" fill="#ED955F"/>
<path d="M155.427 268.254L145.195 276.815C145.195 276.815 137.826 263.099 133.602 258.469C130.551 255.125 127.685 255.264 126.328 255.599C125.454 255.815 124.58 256.029 123.691 256.167L123.374 256.216L122.528 261.014L118.954 255.337C118.954 255.337 116.398 255.182 110.925 255.239C110.252 255.264 109.279 261.756 109.181 262.363C108.91 264.03 108.229 266.279 109.097 267.875C109.789 269.147 111.055 269.917 111.744 271.246C113.946 275.489 113.367 281.956 112.773 286.532C112.591 287.933 109.239 302.054 107.691 301.519C119.93 305.743 136.933 301.519 136.933 301.519C136.933 301.519 133.765 280.805 135.065 277.719C135.446 276.814 135.444 275.798 135.26 274.813C134.07 272.249 133.278 270.246 133.278 270.246C133.278 270.246 134.814 272.438 135.26 274.813C137.419 279.465 140.892 285.97 143.359 285.761C147.185 285.436 157.686 270.711 157.686 270.711L155.427 268.254Z" fill="#FF795C"/>
<path d="M111.874 290.536C110.72 294.19 109.118 297.686 107.041 300.907C104.162 305.371 100.431 313.84 104.132 324.298C109.668 339.94 109.686 347.349 109.686 347.349H149.862L135.698 292.383L111.874 290.536Z" fill="#E36C52"/>
<path d="M147.873 286.449C149.119 286.416 148.823 285.363 148.821 285.355C148.895 285.616 149.539 285.043 149.586 284.919C149.974 283.892 148.303 283.747 147.665 283.68C147.454 283.658 145.331 283.689 145.287 283.581C145.287 283.581 145.114 283.149 144.412 283.168C143.71 283.187 141.653 284.447 141.653 284.447L141.297 284.823L141.58 287.441C141.58 287.441 142.583 287.857 143.313 288.311C144.042 288.765 144.309 288.452 145.527 288.893C146.744 289.334 147.041 287.86 147.041 287.86C148.268 287.538 147.873 286.449 147.873 286.449Z" fill="#F9AF88"/>
<path d="M110.914 255.294C110.457 255.144 109.145 257.176 108.901 257.546C106.962 260.485 107.672 264.367 108.4 267.589C109.605 272.923 111.826 278.179 114.824 282.752C115.29 283.462 115.78 284.157 116.302 284.828C122.263 292.493 141.514 287.617 141.514 287.617L141.288 284.287C141.288 284.287 126.367 282.513 124.091 281.269C122.09 280.175 119.863 268.792 119.354 266.056C119.28 265.661 117.378 264.332 117.021 263.891C116.287 262.984 115.671 261.987 115.066 260.992C113.928 259.121 112.734 256.613 110.914 255.294Z" fill="#FF795C"/>
<path d="M133.245 246.638C133.351 245.377 133.488 244.112 133.53 242.856C133.728 236.978 131.992 228.283 125.954 225.632C115.997 221.261 107.614 233.699 107.129 242.144C106.646 250.568 108.691 266.316 112.155 269.063C115.619 271.81 112.872 266.499 117.084 266.682C121.296 266.865 120.425 264.774 120.952 260.051C121.388 256.146 116.582 251.501 114.182 245.63C113.71 242.902 112.677 235.536 115.113 234.716C117.976 233.751 118.934 230.309 120.372 228.054C121.475 233.188 123.454 237.793 127.894 240.545C129.205 241.357 129.614 243.078 128.846 244.415C128.026 245.843 126.945 247.147 125.85 248.388C124.808 249.569 123.671 250.883 123.675 252.459C123.679 254.089 124.894 255.417 125.859 256.73C126.976 258.25 127.836 259.958 128.39 261.761C128.768 262.99 129.044 264.332 129.955 265.24C131.152 266.433 133.084 266.494 134.728 266.101C136.418 265.697 138.203 264.646 138.478 262.93C138.704 261.518 137.833 260.187 137.003 259.022C135.572 257.015 134.108 254.952 133.489 252.566C132.99 250.635 133.077 248.641 133.245 246.638Z" fill="#232D68"/>
<path d="M118.733 270.247L124.092 281.271L133.277 283.206" stroke="#E36C52" stroke-width="0.5379" stroke-miterlimit="10" stroke-linecap="round" stroke-linejoin="round"/>
<path d="M114.825 282.753C114.825 282.753 117.194 287.398 121.687 288.211" stroke="#E36C52" stroke-width="0.5379" stroke-miterlimit="10" stroke-linecap="round" stroke-linejoin="round"/>
<path d="M151.208 403.587C151.208 403.587 149.872 405.085 147.928 405.126C145.984 405.167 144.931 403.79 144.526 404.114C144.121 404.438 143.716 408.204 144.526 408.609C145.336 409.014 159.388 410.796 160.117 409.135C160.846 407.475 156.027 406.543 154.488 405.531C152.949 404.518 151.208 403.587 151.208 403.587Z" fill="#232D68"/>
<path d="M119.931 403.587C119.931 403.587 118.595 405.085 116.651 405.126C114.707 405.167 113.654 403.79 113.249 404.114C112.844 404.438 112.439 408.204 113.249 408.609C114.059 409.014 128.111 410.796 128.84 409.135C129.569 407.475 124.75 406.543 123.211 405.531C121.673 404.518 119.931 403.587 119.931 403.587Z" fill="#232D68"/>
</svg>
