<svg width="500" height="500" viewBox="0 0 500 500" fill="none" xmlns="http://www.w3.org/2000/svg">
<path d="M105.984 139.068L98.1812 196.294L188.419 208.599L196.222 151.372L105.984 139.068Z" fill="#EBEBEB"/>
<path d="M105.991 139.064C109.161 143.047 112.419 146.891 115.624 150.822C118.866 154.683 122.121 158.546 125.396 162.374C128.812 166.372 132.247 170.334 135.685 174.278C135.792 174.405 135.885 174.531 135.992 174.658C139.038 178.135 142.097 181.615 145.156 185.094L145.613 185.588L146.172 185.232C150.051 182.699 153.917 180.164 157.785 177.611C157.919 177.535 158.057 177.441 158.194 177.347C162.576 174.469 166.946 171.571 171.311 168.616C175.474 165.821 179.645 162.971 183.802 160.119C187.942 157.189 192.111 154.358 196.231 151.369C191.948 153.828 187.712 156.444 183.46 158.982C179.213 161.578 174.967 164.173 170.74 166.828C166.034 169.756 161.321 172.738 156.616 175.76C156.602 175.758 156.602 175.758 156.586 175.775C153.064 178.018 149.539 180.281 146.014 182.542C143.237 179.421 140.45 176.279 137.654 173.193C137.645 173.154 137.645 173.154 137.632 173.153C133.905 169 130.176 164.866 126.415 160.765C123.05 157.094 119.67 153.44 116.271 149.82C112.84 146.234 109.46 142.58 105.991 139.064Z" fill="white"/>
<path d="M156.303 177.046C156.34 177.079 156.361 177.123 156.398 177.156C156.817 177.627 157.236 178.098 157.656 178.556C159.659 180.775 161.726 182.921 163.842 185.018C166.416 187.605 169.07 190.107 171.74 192.597C174.429 195.048 177.133 197.487 179.916 199.854C182.699 202.221 185.515 204.552 188.461 206.734C186.051 203.962 183.51 201.338 180.934 198.765C178.347 196.176 175.693 193.674 173.037 191.186C170.336 188.72 167.632 186.281 164.849 183.913C162.636 182.024 160.378 180.156 158.053 178.376C157.517 177.958 156.978 177.553 156.426 177.146C156.39 177.113 156.34 177.079 156.303 177.046Z" fill="white"/>
<path d="M98.6538 194.487C102.077 193.173 105.427 191.684 108.729 190.146C112.044 188.61 115.303 186.984 118.563 185.344C121.802 183.66 125.029 181.961 128.201 180.157C130.788 178.701 133.352 177.201 135.863 175.597C136.406 175.257 136.936 174.915 137.466 174.573C137.51 174.552 137.543 174.514 137.587 174.493C137.543 174.514 137.485 174.534 137.442 174.542C136.799 174.799 136.172 175.045 135.544 175.305C132.827 176.398 130.166 177.595 127.514 178.82C124.199 180.356 120.94 181.982 117.692 183.637C114.453 185.321 111.226 187.021 108.054 188.824C104.87 190.614 101.719 192.462 98.6538 194.487Z" fill="white"/>
<path d="M129.005 56.2489L54.3655 75.1919L66.3789 122.528L141.019 103.585L129.005 56.2489Z" fill="#EBEBEB"/>
<path d="M54.3638 75.1889C58.1108 77.3069 61.8828 79.2878 65.6398 81.3538C69.4048 83.3538 73.1798 85.3499 76.9588 87.3139C80.9038 89.3649 84.8518 91.3829 88.7968 93.3859C88.9208 93.4519 89.0338 93.5208 89.1578 93.5868C92.6468 95.3478 96.1478 97.1058 99.6478 98.8638L100.163 99.1069L100.489 98.6509C102.727 95.4359 104.954 92.2239 107.178 88.9969C107.259 88.8949 107.337 88.7779 107.415 88.6609C109.938 85.0169 112.446 81.3599 114.931 77.6609C117.309 74.1509 119.676 70.5949 122.031 67.0429C124.348 63.4349 126.719 59.8948 129.002 56.2458C126.423 59.5308 123.932 62.9229 121.403 66.2599C118.896 69.6399 116.39 73.0199 113.917 76.4409C111.156 80.2269 108.406 84.0579 105.675 87.9169C105.664 87.9199 105.664 87.9199 105.656 87.9379C103.606 90.8129 101.56 93.7029 99.5128 96.5919C96.3468 95.0249 93.1668 93.4449 89.9978 91.9119C89.9788 91.8839 89.9788 91.8839 89.9678 91.8869C85.7308 89.8119 81.4978 87.7529 77.2498 85.7299C73.4498 83.9179 69.6418 82.1238 65.8308 80.3638C62.0048 78.6398 58.1968 76.8469 54.3638 75.1889Z" fill="white"/>
<path d="M105.837 89.0239C105.876 89.0379 105.907 89.0659 105.946 89.0799C106.424 89.3169 106.901 89.5529 107.376 89.7789C109.649 90.8839 111.95 91.9109 114.273 92.8839C117.11 94.0969 119.983 95.2169 122.865 96.3229C125.749 97.3919 128.642 98.4479 131.574 99.4219C134.506 100.396 137.451 101.331 140.452 102.108C137.684 100.699 134.861 99.4469 132.027 98.2449C129.179 97.0349 126.305 95.9149 123.435 94.8059C120.537 93.7279 117.644 92.6729 114.713 91.6989C112.38 90.9189 110.018 90.1699 107.632 89.5119C107.079 89.3539 106.529 89.2069 105.967 89.0629C105.926 89.0479 105.876 89.0369 105.837 89.0239Z" fill="white"/>
<path d="M66.1719 120.96C68.4389 118.846 70.5929 116.616 72.6949 114.365C74.8069 112.111 76.8459 109.803 78.8829 107.485C80.8879 105.139 82.8799 102.784 84.7949 100.365C86.3609 98.4039 87.8969 96.4159 89.3559 94.3629C89.6739 93.9239 89.9809 93.4879 90.2879 93.0529C90.3159 93.0219 90.3299 92.9829 90.3579 92.9519C90.3299 92.9829 90.2909 93.0169 90.2599 93.0359C89.8379 93.4409 89.4239 93.8329 89.0129 94.2349C87.2299 95.9519 85.5219 97.7339 83.8319 99.5349C81.7199 101.789 79.6809 104.096 77.6579 106.423C75.6529 108.769 73.6609 111.124 71.7459 113.543C69.8169 115.954 67.9319 118.401 66.1719 120.96Z" fill="white"/>
<path d="M438.307 261.515L361.826 270.486L367.516 318.989L443.996 310.018L438.307 261.515Z" fill="#EBEBEB"/>
<path d="M361.813 270.501C365.249 273.093 368.728 275.553 372.181 278.095C375.65 280.572 379.13 283.048 382.619 285.491C386.26 288.043 389.909 290.562 393.556 293.066C393.67 293.148 393.773 293.231 393.887 293.312C397.114 295.516 400.353 297.719 403.592 299.922L404.07 300.23L404.453 299.821C407.095 296.929 409.725 294.037 412.353 291.131C412.447 291.041 412.54 290.935 412.632 290.829C415.612 287.548 418.579 284.253 421.529 280.913C424.348 277.746 427.161 274.532 429.963 271.32C432.735 268.048 435.55 264.85 438.293 261.534C435.305 264.451 432.39 267.487 429.443 270.462C426.514 273.483 423.585 276.505 420.684 279.57C417.449 282.96 414.219 286.397 411.005 289.863C410.993 289.864 410.993 289.864 410.984 289.882C408.574 292.462 406.165 295.058 403.757 297.654C400.825 295.685 397.879 293.701 394.939 291.764C394.924 291.734 394.924 291.734 394.912 291.735C390.985 289.122 387.059 286.524 383.114 283.96C379.585 281.664 376.046 279.386 372.499 277.139C368.934 274.927 365.395 272.648 361.813 270.501Z" fill="white"/>
<path d="M411.02 290.982C411.057 291.001 411.084 291.033 411.121 291.052C411.564 291.349 412.006 291.647 412.447 291.933C414.555 293.328 416.701 294.648 418.876 295.918C421.529 297.493 424.23 298.981 426.941 300.456C429.659 301.895 432.388 303.322 435.166 304.673C437.944 306.024 440.741 307.337 443.614 308.503C441.056 306.742 438.422 305.13 435.77 303.566C433.105 301.992 430.404 300.504 427.705 299.028C424.973 297.579 422.245 296.152 419.467 294.801C417.256 293.721 415.014 292.668 412.735 291.702C412.208 291.473 411.681 291.255 411.144 291.038C411.106 291.019 411.057 291.001 411.02 290.982Z" fill="white"/>
<path d="M367.501 317.427C370.026 315.629 372.455 313.702 374.834 311.747C377.224 309.79 379.549 307.771 381.873 305.74C384.169 303.678 386.453 301.605 388.669 299.459C390.48 297.721 392.263 295.952 393.98 294.109C394.353 293.716 394.715 293.324 395.076 292.932C395.108 292.905 395.127 292.868 395.158 292.841C395.126 292.868 395.083 292.896 395.05 292.912C394.578 293.258 394.117 293.592 393.657 293.937C391.663 295.405 389.737 296.946 387.824 298.51C385.434 300.467 383.109 302.486 380.798 304.527C378.502 306.589 376.218 308.662 374.001 310.808C371.773 312.944 369.583 315.122 367.501 317.427Z" fill="white"/>
<path d="M378.131 159.62L365.006 159.899L358.345 160.011C356.119 160.058 353.882 160.048 351.65 160.066L351.206 160.069L351.204 159.62L351.15 148.43L351.148 147.928L351.65 147.93L364.89 147.993C369.303 147.998 373.717 148.105 378.13 148.157L378.406 148.16L378.403 148.43C378.384 150.329 378.317 152.217 378.272 154.084L378.131 159.62ZM378.131 159.62L377.989 153.966C377.944 152.103 377.877 150.261 377.858 148.43L378.131 148.703C373.718 148.754 369.304 148.862 364.891 148.867L351.651 148.93L352.15 148.431L352.096 159.621L351.651 159.175C353.833 159.193 356.009 159.183 358.197 159.23L364.776 159.342L378.131 159.62Z" fill="#EBEBEB"/>
<path d="M363.36 173.73L350.235 174.009L343.574 174.121C341.348 174.168 339.111 174.158 336.879 174.176L336.435 174.179L336.433 173.73L336.379 162.54L336.377 162.038L336.879 162.04L350.119 162.103C354.532 162.108 358.946 162.216 363.359 162.267L363.635 162.27L363.632 162.54C363.613 164.439 363.546 166.327 363.501 168.194L363.36 173.73ZM363.36 173.73L363.218 168.076C363.173 166.213 363.106 164.371 363.087 162.54L363.36 162.813C358.947 162.864 354.533 162.972 350.12 162.977L336.88 163.04L337.379 162.541L337.325 173.731L336.88 173.285C339.062 173.303 341.238 173.293 343.426 173.34L350.005 173.452L363.36 173.73Z" fill="#EBEBEB"/>
<path d="M392.903 173.73L379.778 174.009L373.117 174.121C370.891 174.168 368.654 174.158 366.422 174.176L365.978 174.179L365.976 173.73L365.922 162.54L365.92 162.038L366.422 162.04L379.662 162.103C384.075 162.108 388.489 162.216 392.902 162.267L393.178 162.27L393.175 162.54C393.156 164.439 393.089 166.327 393.044 168.194L392.903 173.73ZM392.903 173.73L392.761 168.076C392.716 166.213 392.649 164.371 392.63 162.54L392.903 162.813C388.49 162.864 384.076 162.972 379.663 162.977L366.423 163.04L366.922 162.541L366.868 173.731L366.422 173.285C368.604 173.303 370.78 173.293 372.968 173.34L379.547 173.452L392.903 173.73Z" fill="#EBEBEB"/>
<path d="M443.346 58.2899L430.221 58.5689L423.56 58.6809C421.334 58.7279 419.097 58.7179 416.865 58.7359L416.421 58.7389L416.419 58.2899L416.365 47.0999L416.363 46.5979L416.865 46.5999L430.105 46.6629C434.518 46.6679 438.932 46.7749 443.345 46.8269L443.621 46.8299L443.618 47.0999C443.599 48.9989 443.532 50.8869 443.487 52.7539L443.346 58.2899ZM443.346 58.2899L443.204 52.6359C443.159 50.7729 443.092 48.9309 443.073 47.0999L443.346 47.3729C438.933 47.4239 434.519 47.5319 430.106 47.5369L416.866 47.5999L417.365 47.1009L417.311 58.2909L416.865 57.8449C419.047 57.8629 421.223 57.8529 423.411 57.8999L429.99 58.0119L443.346 58.2899Z" fill="#EBEBEB"/>
<path d="M458.118 72.4L444.993 72.679L438.332 72.791C436.106 72.838 433.869 72.828 431.637 72.846L431.193 72.849L431.191 72.4L431.137 61.21L431.134 60.708L431.636 60.71L444.876 60.773C449.289 60.778 453.703 60.885 458.116 60.937L458.392 60.94L458.389 61.21C458.37 63.109 458.303 64.997 458.258 66.864L458.118 72.4ZM458.118 72.4L457.976 66.746C457.931 64.883 457.864 63.041 457.845 61.21L458.118 61.483C453.705 61.534 449.291 61.642 444.878 61.647L431.638 61.71L432.137 61.211L432.083 72.401L431.638 71.955C433.82 71.973 435.996 71.963 438.184 72.01L444.763 72.122L458.118 72.4Z" fill="#EBEBEB"/>
<path d="M68.3629 58.3018L55.2379 58.5808L48.5769 58.6928C46.3509 58.7398 44.1139 58.7298 41.8819 58.7478L41.4379 58.7518L41.4359 58.3028L41.3819 47.1128L41.3799 46.6108L41.8819 46.6128L55.1219 46.6758C59.5349 46.6808 63.9489 46.7878 68.3619 46.8398L68.6379 46.8428L68.6349 47.1128C68.6159 49.0118 68.5489 50.8998 68.5039 52.7668L68.3629 58.3018ZM68.3629 58.3018L68.2209 52.6478C68.1759 50.7848 68.1089 48.9428 68.0899 47.1118L68.3629 47.3848C63.9499 47.4358 59.5359 47.5438 55.1229 47.5488L41.8829 47.6118L42.3819 47.1128L42.3279 58.3028L41.8819 57.8568C44.0639 57.8748 46.2399 57.8648 48.4279 57.9118L55.0069 58.0238L68.3629 58.3018Z" fill="#EBEBEB"/>
<path d="M431.637 318.507L444.762 318.228L451.423 318.116C453.648 318.069 455.886 318.079 458.118 318.061L458.562 318.058L458.564 318.507L458.618 329.697L458.62 330.199L458.118 330.197L444.878 330.134C440.465 330.129 436.051 330.022 431.638 329.97L431.362 329.967L431.365 329.697C431.384 327.798 431.451 325.91 431.496 324.043L431.637 318.507ZM431.637 318.507L431.779 324.161C431.824 326.024 431.891 327.866 431.91 329.697L431.637 329.424C436.05 329.373 440.464 329.265 444.877 329.26L458.117 329.197L457.618 329.696L457.672 318.506L458.118 318.952C455.936 318.934 453.76 318.944 451.572 318.897L444.993 318.785L431.637 318.507Z" fill="#EBEBEB"/>
<path d="M41.8819 318.507L55.0069 318.228L61.6679 318.116C63.8939 318.069 66.1309 318.079 68.3629 318.061L68.8069 318.058L68.8089 318.507L68.8629 329.697L68.8649 330.199L68.3629 330.197L55.1229 330.134C50.7099 330.129 46.2959 330.022 41.8829 329.97L41.6069 329.967L41.6099 329.697C41.6289 327.798 41.6959 325.91 41.7409 324.043L41.8819 318.507ZM41.8819 318.507L42.0239 324.161C42.0689 326.024 42.1359 327.866 42.1549 329.697L41.8819 329.424C46.2949 329.373 50.7089 329.265 55.1219 329.26L68.3619 329.197L67.8629 329.696L67.9169 318.506L68.3629 318.952C66.1809 318.934 64.0049 318.944 61.8169 318.897L55.2379 318.785L41.8819 318.507Z" fill="#EBEBEB"/>
<path d="M56.6539 304.397L69.7789 304.118L76.4399 304.006C78.6659 303.959 80.9029 303.969 83.1349 303.951L83.5789 303.948L83.5809 304.397L83.6349 315.587L83.6369 316.089L83.1349 316.087L69.8949 316.024C65.4819 316.019 61.0679 315.912 56.6549 315.86L56.3789 315.857L56.3819 315.587C56.4009 313.688 56.4679 311.8 56.5129 309.933L56.6539 304.397ZM56.6539 304.397L56.7959 310.051C56.8409 311.914 56.9079 313.756 56.9269 315.587L56.6539 315.314C61.0669 315.263 65.4809 315.155 69.8939 315.15L83.1339 315.087L82.6349 315.586L82.6889 304.396L83.1349 304.842C80.9529 304.824 78.7769 304.834 76.5889 304.787L70.0099 304.675L56.6539 304.397Z" fill="#EBEBEB"/>
<path d="M323.776 136.211L460.03 136.211V128.122L323.776 128.122V136.211Z" fill="#EBEBEB"/>
<path d="M449.687 136.215H441.593V162.973H449.687V136.215Z" fill="#EBEBEB"/>
<path d="M449.687 136.215H441.593V144.486H449.687V136.215Z" fill="#DBDBDB"/>
<path d="M342.207 136.215H334.113V162.973H342.207V136.215Z" fill="#EBEBEB"/>
<path d="M342.207 136.215H334.113V144.486H342.207V136.215Z" fill="#DBDBDB"/>
<path d="M425.592 128.122V76.5603H412.607V128.122H425.592Z" fill="#C7C7C7"/>
<path d="M425.592 79.4692V73.8032H412.607V79.4692H425.592Z" fill="#DBDBDB"/>
<path d="M425.592 88.8327V86.7297H412.607V88.8327H425.592Z" fill="#DBDBDB"/>
<path d="M425.592 121.36V115.694H410.989V121.36H425.592Z" fill="#DBDBDB"/>
<path d="M412.607 128.123V67.9751H403.532V128.123H412.607Z" fill="#DBDBDB"/>
<path d="M410.832 96.7636V73.6296H405.386V96.7636H410.832Z" fill="#EBEBEB"/>
<path d="M345.353 128.145L388.13 85.8608L381.751 79.4067L338.973 121.691L345.353 128.145Z" fill="#C7C7C7"/>
<path d="M354.095 116.911L370.548 100.648L366.719 96.7745L350.266 113.038L354.095 116.911Z" fill="#DBDBDB"/>
<path d="M403.539 128.133V82.4463H388.128V128.133H403.539Z" fill="#A6A6A6"/>
<path d="M403.539 123.289V119.031H388.128V123.289H403.539Z" fill="#C7C7C7"/>
<path d="M403.538 116.237V114.586H388.127V116.237H403.538Z" fill="#C7C7C7"/>
<path d="M436.238 128.132V85.1963H425.593V128.132H436.238Z" fill="#A6A6A6"/>
<path d="M436.237 123.582V119.58H425.592V123.582H436.237Z" fill="#C7C7C7"/>
<path d="M436.238 98.0493V94.0474H425.593V98.0493H436.238Z" fill="#C7C7C7"/>
<path d="M436.238 102.342V100.79H425.593V102.342H436.238Z" fill="#C7C7C7"/>
<path d="M39.97 448.532L92.478 448.289L144.985 448.201L250 448.033L355.015 448.199L407.522 448.287L460.029 448.532L407.522 448.777L355.015 448.864L250 449.031L144.985 448.863L92.478 448.775L39.97 448.532Z" fill="#263238"/>
<path d="M409.126 360.168C423.697 374.433 426.143 396.501 423.072 415.831C422.992 416.27 422.314 416.15 422.314 415.738C422.314 411.337 422.447 406.977 422.434 402.63C422.354 402.43 422.288 402.244 422.208 402.045C418.406 399.28 414.909 396.156 412.743 391.875C410.31 387.089 409.353 381.692 407.492 376.693C407.319 376.214 407.829 376.355 408.164 376.601C417.027 383.137 419.852 390.172 422.395 399.572C422.276 394.693 421.903 389.814 420.853 384.935C418.939 376.015 415.15 367.174 408.742 360.553C408.501 360.301 408.873 359.915 409.126 360.168Z" fill="#263238"/>
<path d="M406.387 361.831C403.88 361.916 402.309 365.922 400.356 367.091C399.322 367.713 398.316 367.675 397.59 366.656C395.654 363.954 398.31 360.621 400.807 358.757C399.021 359.491 397.54 360.782 395.614 361.148C394.448 361.362 393.541 360.93 393.269 359.744C392.421 356.06 397.041 354.422 400.211 354.344C398.674 353.276 394.27 350.371 396.609 348.943C398.981 347.509 404.149 351.662 405.835 353.03C408.313 355.04 411.268 358.045 411.38 361.189C411.525 364.859 408.316 362.6 406.387 361.831Z" fill="#25D366"/>
<path opacity="0.1" d="M406.387 361.831C403.88 361.916 402.309 365.922 400.356 367.091C399.322 367.713 398.316 367.675 397.59 366.656C395.654 363.954 398.31 360.621 400.807 358.757C399.021 359.491 397.54 360.782 395.614 361.148C394.448 361.362 393.541 360.93 393.269 359.744C392.421 356.06 397.041 354.422 400.211 354.344C398.674 353.276 394.27 350.371 396.609 348.943C398.981 347.509 404.149 351.662 405.835 353.03C408.313 355.04 411.268 358.045 411.38 361.189C411.525 364.859 408.316 362.6 406.387 361.831Z" fill="black"/>
<path d="M407.113 362.449C403.908 360.992 397.751 363.089 397.227 361.876C396.166 359.407 401.086 357.713 403.742 357.385C401.296 356.722 396.61 355.667 396.754 353.308C396.93 350.428 403.942 352.905 407.491 355.626C411.962 359.055 411.933 362.362 411.194 363.025C410.18 363.934 407.642 362.69 407.113 362.449Z" fill="#25D366"/>
<path d="M442.309 358.756C427.206 372.456 423.923 394.415 426.256 413.848C426.319 414.289 427.001 414.195 427.017 413.784C427.185 409.387 427.218 405.024 427.396 400.681C427.483 400.485 427.557 400.301 427.644 400.105C431.548 397.487 435.161 394.498 437.489 390.302C440.102 385.612 441.264 380.255 443.314 375.331C443.505 374.859 442.99 374.98 442.647 375.214C433.542 381.409 430.451 388.331 427.552 397.627C427.857 392.756 428.415 387.895 429.65 383.059C431.902 374.218 436.025 365.528 442.68 359.156C442.928 358.912 442.571 358.513 442.309 358.756Z" fill="#263238"/>
<path d="M444.982 360.522C447.484 360.702 448.901 364.765 450.809 366.008C451.818 366.669 452.825 366.669 453.59 365.679C455.627 363.053 453.1 359.621 450.676 357.663C452.433 358.465 453.864 359.811 455.774 360.25C456.932 360.508 457.853 360.111 458.171 358.936C459.159 355.287 454.605 353.474 451.44 353.276C453.016 352.267 457.528 349.532 455.244 348.016C452.929 346.493 447.606 350.446 445.869 351.749C443.317 353.663 440.249 356.553 440.018 359.691C439.733 363.353 443.025 361.217 444.982 360.522Z" fill="#25D366"/>
<path opacity="0.1" d="M444.982 360.522C447.484 360.702 448.901 364.765 450.809 366.008C451.818 366.669 452.825 366.669 453.59 365.679C455.627 363.053 453.1 359.621 450.676 357.663C452.433 358.465 453.864 359.811 455.774 360.25C456.932 360.508 457.853 360.111 458.171 358.936C459.159 355.287 454.605 353.474 451.44 353.276C453.016 352.267 457.528 349.532 455.244 348.016C452.929 346.493 447.606 350.446 445.869 351.749C443.317 353.663 440.249 356.553 440.018 359.691C439.733 363.353 443.025 361.217 444.982 360.522Z" fill="black"/>
<path d="M444.234 361.112C447.492 359.778 453.565 362.108 454.134 360.915C455.289 358.488 450.436 356.609 447.795 356.18C450.264 355.611 454.987 354.734 454.933 352.372C454.867 349.487 447.766 351.696 444.116 354.28C439.517 357.536 439.421 360.842 440.135 361.533C441.113 362.479 443.696 361.332 444.234 361.112Z" fill="#25D366"/>
<path d="M426.865 394.938C425.75 402.158 424.368 409.624 422.176 416.6C421.967 417.236 421.023 417.073 421.121 416.387C422.113 409.711 423.921 403.159 424.913 396.484C425.921 389.73 426.46 382.882 426.073 376.05C425.437 364.801 422.382 352.835 415.042 344.034C414.881 343.825 415.223 343.53 415.389 343.724C430.084 360.859 427.746 381.868 427.733 383.75C429.813 376.656 431.957 368.525 439.827 361.302C440.166 360.99 440.431 361.138 440.375 361.668C438.968 374.825 435.31 381.695 427.682 388.729C427.465 390.815 427.196 392.89 426.865 394.938Z" fill="#263238"/>
<path d="M414.909 346.005C412.266 344.831 408.619 348.197 406.003 348.427C404.618 348.552 403.593 348.006 403.352 346.583C402.704 342.805 407.137 340.684 410.667 340.006C408.444 339.869 406.257 340.462 404.076 339.873C402.758 339.507 402.035 338.603 402.349 337.236C403.323 332.986 408.941 333.612 412.269 335.128C411.212 333.246 408.105 328.015 411.251 327.711C414.433 327.417 417.705 334.327 418.766 336.595C420.325 339.928 421.879 344.533 420.412 347.851C418.715 351.733 416.523 347.775 414.909 346.005Z" fill="#25D366"/>
<path opacity="0.1" d="M414.909 346.005C412.266 344.831 408.619 348.197 406.003 348.427C404.618 348.552 403.593 348.006 403.352 346.583C402.704 342.805 407.137 340.684 410.667 340.006C408.444 339.869 406.257 340.462 404.076 339.873C402.758 339.507 402.035 338.603 402.349 337.236C403.323 332.986 408.941 333.612 412.269 335.128C411.212 333.246 408.105 328.015 411.251 327.711C414.433 327.417 417.705 334.327 418.766 336.595C420.325 339.928 421.879 344.533 420.412 347.851C418.715 351.733 416.523 347.775 414.909 346.005Z" fill="black"/>
<path d="M415.351 347.012C412.759 343.887 405.316 342.964 405.383 341.442C405.525 338.346 411.482 339.066 414.402 340.062C412.198 338.143 407.867 334.689 409.204 332.315C410.836 329.415 416.865 335.514 419.177 340.125C422.09 345.933 420.395 349.35 419.294 349.666C417.785 350.096 415.778 347.527 415.351 347.012Z" fill="#25D366"/>
<path d="M436.534 398.898L443.015 448.419H403.576C404.388 444.031 411.729 398.841 411.729 398.841L436.534 398.898Z" fill="#25D366"/>
<path d="M374.665 58.302H202.348C192.726 58.302 184.919 66.242 184.919 76.058V430.772C184.919 440.567 192.727 448.528 202.348 448.528H374.665C384.287 448.528 392.115 440.568 392.115 430.772V76.058C392.115 66.242 384.287 58.302 374.665 58.302ZM381.209 419.805C381.209 429.141 374.217 436.694 365.594 436.694H211.44C202.797 436.694 195.805 429.141 195.805 419.805V89.502C195.805 70.482 202.797 69.555 211.44 69.555H242.324C244.118 69.555 245.586 71.593 245.586 74.121V75.211C245.586 81.133 248.827 81.153 252.802 81.153H324.212C328.228 81.153 331.449 81.133 331.449 75.211V74.121C331.449 71.593 332.896 69.555 334.721 69.555H365.594C374.217 69.555 381.209 72.083 381.209 89.502V419.805Z" fill="#263238"/>
<path d="M381.219 89.5019V419.805C381.219 429.142 374.227 436.694 365.604 436.694H211.45C202.807 436.694 195.814 429.141 195.814 419.805V89.5019C195.814 70.4829 202.806 69.5549 211.45 69.5549H242.334C244.128 69.5549 245.596 71.5929 245.596 74.1209V75.2109C245.596 81.1329 248.837 81.1529 252.812 81.1529H324.222C328.238 81.1529 331.459 81.1329 331.459 75.2109V74.1209C331.459 71.5929 332.906 69.5549 334.731 69.5549H365.604C374.227 69.5549 381.219 72.0819 381.219 89.5019Z" fill="white"/>
<path d="M381.219 89.5058V119.472H195.815V89.5058C195.815 70.4868 202.807 69.5588 211.451 69.5588H242.335C244.129 69.5588 245.597 71.5978 245.597 74.1248V75.2158C245.597 81.1378 248.838 81.1578 252.813 81.1578H324.223C328.239 81.1578 331.46 81.1378 331.46 75.2158V74.1248C331.46 71.5968 332.907 69.5588 334.732 69.5588H365.605C374.227 69.5588 381.219 72.0868 381.219 89.5058Z" fill="#25D366"/>
<path d="M298.252 73.467H278.773C278.108 73.467 277.57 72.929 277.57 72.264C277.57 71.599 278.109 71.061 278.773 71.061H298.252C298.917 71.061 299.455 71.599 299.455 72.264C299.455 72.928 298.917 73.467 298.252 73.467Z" fill="white"/>
<path d="M223.989 97.8027H207.898V108.007H223.989V97.8027Z" fill="white"/>
<path d="M223.988 97.8027C223.338 98.4247 222.676 99.0197 222.021 99.6307C221.361 100.23 220.699 100.828 220.035 101.42C219.341 102.038 218.645 102.65 217.95 103.258C217.928 103.278 217.909 103.297 217.887 103.317C217.271 103.853 216.652 104.389 216.034 104.925L215.942 105.001L215.853 104.925C215.234 104.389 214.618 103.853 214.002 103.314C213.98 103.297 213.958 103.278 213.937 103.258C213.239 102.65 212.543 102.038 211.849 101.417C211.187 100.828 210.525 100.23 209.865 99.6307C209.21 99.0187 208.548 98.4237 207.898 97.8027C208.589 98.3357 209.268 98.8947 209.952 99.4407C210.634 99.9967 211.315 100.553 211.992 101.118C212.746 101.743 213.5 102.377 214.251 103.019C214.253 103.019 214.253 103.019 214.256 103.022C214.819 103.499 215.382 103.979 215.945 104.459C216.506 103.979 217.069 103.496 217.632 103.022C217.635 103.015 217.635 103.015 217.637 103.015C218.388 102.377 219.14 101.742 219.896 101.114C220.573 100.552 221.252 99.9927 221.933 99.4397C222.618 98.8937 223.297 98.3347 223.988 97.8027Z" fill="#25D366"/>
<path d="M214.274 103.251C214.267 103.256 214.262 103.263 214.255 103.268C214.17 103.34 214.086 103.413 214.001 103.483C213.597 103.824 213.184 104.15 212.764 104.467C212.252 104.858 211.727 105.233 211.201 105.605C210.672 105.97 210.14 106.332 209.597 106.68C209.053 107.028 208.505 107.369 207.937 107.68C208.425 107.252 208.933 106.854 209.445 106.465C209.96 106.073 210.484 105.699 211.008 105.327C211.54 104.96 212.071 104.597 212.615 104.249C213.048 103.971 213.487 103.698 213.937 103.442C214.041 103.382 214.145 103.324 214.251 103.266C214.257 103.26 214.267 103.255 214.274 103.251Z" fill="#25D366"/>
<path d="M223.95 107.68C223.382 107.368 222.831 107.028 222.29 106.68C221.746 106.332 221.215 105.97 220.683 105.605C220.156 105.233 219.632 104.858 219.12 104.467C218.702 104.15 218.289 103.827 217.888 103.486C217.801 103.413 217.716 103.341 217.632 103.269C217.625 103.264 217.62 103.257 217.613 103.252C217.62 103.257 217.63 103.262 217.637 103.264C217.743 103.324 217.847 103.382 217.951 103.443C218.4 103.699 218.838 103.972 219.273 104.25C219.817 104.598 220.348 104.96 220.877 105.328C221.404 105.7 221.928 106.075 222.44 106.466C222.954 106.853 223.461 107.252 223.95 107.68Z" fill="#25D366"/>
<path d="M227.441 97.8029C227.441 99.7099 225.895 101.256 223.988 101.256C222.081 101.256 220.535 99.7099 220.535 97.8029C220.535 95.8959 222.081 94.3499 223.988 94.3499C225.895 94.3499 227.441 95.8959 227.441 97.8029Z" fill="#455A64"/>
<path d="M225.126 98.4909C225.126 98.6449 225.002 98.7639 224.848 98.7639H224.798V99.1409C224.798 99.2949 224.679 99.4139 224.525 99.4139C224.371 99.4139 224.252 99.2949 224.252 99.1409V98.7639H222.701H222.696H222.691C222.632 98.7639 222.572 98.7489 222.523 98.7049C222.399 98.6109 222.384 98.4419 222.478 98.3229L224.312 96.0429C224.317 96.0429 224.317 96.0379 224.322 96.0329C224.327 96.0279 224.332 96.0229 224.337 96.0129C224.352 96.0079 224.357 96.0029 224.362 95.9979C224.367 95.9929 224.377 95.9879 224.382 95.9829C224.392 95.9779 224.397 95.9729 224.412 95.9729C224.417 95.9629 224.422 95.9579 224.432 95.9579C224.437 95.9529 224.447 95.9529 224.462 95.9479C224.467 95.9479 224.477 95.9479 224.482 95.9429C224.492 95.9429 224.507 95.9429 224.517 95.9429C224.517 95.9429 224.522 95.9429 224.527 95.9429C224.532 95.9429 224.532 95.9429 224.537 95.9429C224.547 95.9429 224.562 95.9429 224.567 95.9429C224.577 95.9479 224.582 95.9479 224.592 95.9479C224.597 95.9529 224.612 95.9529 224.622 95.9579C224.627 95.9579 224.637 95.9629 224.642 95.9629C224.652 95.9729 224.662 95.9779 224.667 95.9829C224.677 95.9879 224.682 95.9929 224.692 95.9979C224.692 95.9979 224.697 95.9979 224.697 96.0029C224.702 96.0029 224.712 96.0079 224.712 96.0129C224.722 96.0229 224.727 96.0279 224.732 96.0329C224.737 96.0379 224.742 96.0479 224.747 96.0529C224.752 96.0579 224.757 96.0629 224.767 96.0779C224.767 96.0829 224.772 96.0929 224.777 96.0979C224.782 96.1079 224.782 96.1129 224.787 96.1279C224.787 96.1329 224.792 96.1429 224.792 96.1479C224.797 96.1579 224.797 96.1629 224.797 96.1779C224.797 96.1879 224.802 96.1929 224.802 96.2029C224.802 96.2079 224.802 96.2129 224.802 96.2179V98.2199H224.852C225.002 98.2179 225.126 98.3419 225.126 98.4909ZM224.253 96.9939L223.267 98.2179H224.253V96.9939Z" fill="white"/>
<path d="M236.991 76.683C236.892 76.782 236.792 76.88 236.693 76.979C236.636 77.035 236.58 77.092 236.524 77.149C235.722 76.371 234.768 75.956 233.651 75.956C232.534 75.956 231.579 76.369 230.772 77.152C230.719 77.097 230.666 77.04 230.611 76.984C230.513 76.885 230.415 76.786 230.317 76.688C230.315 76.686 230.311 76.685 230.308 76.683C230.308 76.681 230.308 76.678 230.308 76.676C230.315 76.67 230.323 76.664 230.33 76.658C230.456 76.546 230.578 76.431 230.707 76.324C230.975 76.103 231.268 75.921 231.579 75.768C231.947 75.587 232.332 75.453 232.736 75.379C232.927 75.344 233.121 75.326 233.314 75.302C233.38 75.294 233.807 75.292 233.82 75.293C233.951 75.303 234.083 75.309 234.214 75.323C234.578 75.362 234.931 75.45 235.275 75.576C235.524 75.667 235.763 75.78 235.993 75.912C236.236 76.052 236.465 76.21 236.678 76.392C236.785 76.484 236.888 76.581 236.993 76.675C236.991 76.678 236.991 76.68 236.991 76.683Z" fill="white"/>
<path d="M231.718 78.087C231.56 77.93 231.406 77.777 231.247 77.619C231.784 77.092 232.419 76.757 233.165 76.656C234.28 76.505 235.238 76.844 236.05 77.612C235.89 77.772 235.734 77.926 235.577 78.083C235.043 77.565 234.401 77.285 233.648 77.286C232.896 77.287 232.255 77.566 231.718 78.087Z" fill="white"/>
<path d="M235.105 78.557C234.949 78.712 234.794 78.868 234.636 79.026C234.364 78.762 234.035 78.616 233.648 78.616C233.262 78.616 232.933 78.761 232.66 79.028C232.503 78.871 232.347 78.715 232.192 78.56C232.937 77.779 234.28 77.716 235.105 78.557Z" fill="white"/>
<path d="M234.072 79.4521C234.072 79.6861 233.882 79.8761 233.648 79.8761C233.414 79.8761 233.225 79.6861 233.225 79.4521C233.225 79.2181 233.415 79.0281 233.648 79.0281C233.882 79.0281 234.072 79.2181 234.072 79.4521Z" fill="white"/>
<path d="M207.898 77.585C207.898 76.906 208.448 76.356 209.127 76.356C209.806 76.356 210.356 76.906 210.356 77.585C210.356 78.264 209.806 78.814 209.127 78.814C208.448 78.814 207.898 78.263 207.898 77.585Z" fill="white"/>
<path d="M211.768 77.585C211.768 76.906 212.318 76.356 212.997 76.356C213.675 76.356 214.226 76.906 214.226 77.585C214.226 78.264 213.676 78.814 212.997 78.814C212.318 78.813 211.768 78.263 211.768 77.585Z" fill="white"/>
<path d="M215.638 77.585C215.638 76.906 216.188 76.356 216.867 76.356C217.546 76.356 218.096 76.906 218.096 77.585C218.096 78.264 217.546 78.814 216.867 78.814C216.188 78.813 215.638 78.263 215.638 77.585Z" fill="white"/>
<path d="M219.508 77.585C219.508 76.906 220.058 76.356 220.737 76.356C221.416 76.356 221.966 76.906 221.966 77.585C221.966 78.264 221.416 78.814 220.737 78.814C220.058 78.813 219.508 78.263 219.508 77.585Z" fill="white"/>
<path d="M223.378 77.585C223.378 76.906 223.928 76.356 224.607 76.356C225.285 76.356 225.836 76.906 225.836 77.585C225.836 78.264 225.286 78.814 224.607 78.814C223.928 78.813 223.378 78.263 223.378 77.585Z" fill="white"/>
<path d="M367.304 80.267H357.301V75.634H367.304V80.267ZM357.811 79.757H366.794V76.143H357.811V79.757Z" fill="white"/>
<path d="M364.579 76.4199H358.131V79.4799H364.579V76.4199Z" fill="white"/>
<path d="M368.2 76.7109H367.31V79.1889H368.2V76.7109Z" fill="white"/>
<path d="M355.683 106.726L354.424 107.68L352.092 104.601L351.239 103.474C351.41 103.408 351.574 103.314 351.728 103.197C352.024 102.971 352.24 102.679 352.374 102.359L353.28 103.554L355.683 106.726Z" fill="white"/>
<path d="M353.204 99.4749C352.049 97.9689 349.891 97.6849 348.386 98.8399C346.88 99.9949 346.596 102.153 347.751 103.659C348.788 105.013 350.635 105.379 352.091 104.601C352.256 104.512 352.415 104.411 352.567 104.294C352.847 104.078 353.086 103.827 353.28 103.554C354.13 102.357 354.143 100.701 353.204 99.4749ZM351.727 103.197C351.573 103.314 351.408 103.408 351.238 103.474C350.404 103.808 349.419 103.565 348.847 102.818C348.157 101.917 348.325 100.626 349.226 99.9359C350.126 99.2459 351.416 99.4159 352.108 100.317C352.571 100.922 352.647 101.703 352.374 102.359C352.239 102.679 352.023 102.971 351.727 103.197Z" fill="white"/>
<path d="M338.579 98.333H329.436V107.476H338.579V98.333Z" fill="white"/>
<path d="M334.507 100.031H333.509V105.78H334.507V100.031Z" fill="#25D366"/>
<path d="M331.134 102.406V103.404H336.883V102.406H331.134Z" fill="#25D366"/>
<path d="M367.298 98.9199C367.298 99.3559 366.944 99.7099 366.508 99.7099C366.072 99.7099 365.718 99.3559 365.718 98.9199C365.718 98.4839 366.072 98.1299 366.508 98.1299C366.944 98.1299 367.298 98.4829 367.298 98.9199Z" fill="white"/>
<path d="M367.298 103.018C367.298 103.454 366.944 103.808 366.508 103.808C366.072 103.808 365.718 103.454 365.718 103.018C365.718 102.582 366.072 102.228 366.508 102.228C366.944 102.228 367.298 102.582 367.298 103.018Z" fill="white"/>
<path d="M367.298 107.117C367.298 107.553 366.944 107.907 366.508 107.907C366.072 107.907 365.718 107.553 365.718 107.117C365.718 106.681 366.072 106.327 366.508 106.327C366.944 106.327 367.298 106.68 367.298 107.117Z" fill="white"/>
<path d="M381.219 119.472H195.815V148.103H381.219V119.472Z" fill="#EBEBEB"/>
<path d="M225.945 139.319C225.38 139.67 224.752 139.938 224.07 140.104C222.306 140.535 220.537 140.204 219.107 139.316C217.709 138.451 216.633 137.056 216.21 135.332C215.36 131.841 217.494 128.322 220.985 127.472C224.472 126.619 227.992 128.757 228.845 132.247C229.53 135.055 228.277 137.88 225.945 139.319Z" fill="#25D366"/>
<path d="M224.505 133.044C224.505 134.137 223.619 135.023 222.526 135.023C221.433 135.023 220.547 134.137 220.547 133.044C220.547 131.951 221.433 131.065 222.526 131.065C223.619 131.066 224.505 131.952 224.505 133.044Z" fill="white"/>
<path d="M225.945 138.503V139.319C225.38 139.67 224.752 139.938 224.07 140.104C222.306 140.535 220.537 140.204 219.107 139.316V138.503C219.107 136.619 220.637 135.084 222.526 135.084C224.416 135.083 225.945 136.619 225.945 138.503Z" fill="white"/>
<path d="M263.361 138.088H254.76L258.267 133.788L254.76 129.488H263.361L266.867 133.788L263.361 138.088Z" fill="white"/>
<path d="M241.261 129.488L242.658 132.319L245.783 132.773L243.522 134.976L244.055 138.088L241.261 136.619L238.466 138.088L239 134.976L236.739 132.773L239.864 132.319L241.261 129.488Z" fill="#25D366"/>
<path d="M323.775 132.038H273.038V135.537H323.775V132.038Z" fill="#263238"/>
<path d="M364.579 132.038H344.691V135.537H364.579V132.038Z" fill="#455A64"/>
<path d="M225.945 167.95C225.38 168.301 224.752 168.569 224.07 168.735C222.306 169.166 220.537 168.835 219.107 167.947C217.709 167.082 216.633 165.687 216.21 163.963C215.36 160.473 217.494 156.954 220.985 156.103C224.472 155.25 227.992 157.388 228.845 160.878C229.53 163.686 228.277 166.512 225.945 167.95Z" fill="#455A64"/>
<path d="M224.505 161.676C224.505 162.769 223.619 163.655 222.526 163.655C221.433 163.655 220.547 162.769 220.547 161.676C220.547 160.583 221.433 159.697 222.526 159.697C223.619 159.697 224.505 160.583 224.505 161.676Z" fill="white"/>
<path d="M225.945 167.134V167.95C225.38 168.301 224.752 168.569 224.07 168.735C222.306 169.166 220.537 168.835 219.107 167.947V167.134C219.107 165.251 220.637 163.715 222.526 163.715C224.416 163.715 225.945 165.25 225.945 167.134Z" fill="white"/>
<path d="M263.361 166.719H254.76L258.267 162.419L254.76 158.119H263.361L266.867 162.419L263.361 166.719Z" fill="white" stroke="#EBEBEB" stroke-width="0.5" stroke-miterlimit="10"/>
<path d="M241.261 158.119L242.658 160.95L245.783 161.404L243.522 163.607L244.055 166.719L241.261 165.25L238.466 166.719L239 163.607L236.739 161.404L239.864 160.95L241.261 158.119Z" fill="#25D366"/>
<path d="M323.775 160.67H273.038V164.168H323.775V160.67Z" fill="#263238"/>
<path d="M364.579 160.67H344.691V164.168H364.579V160.67Z" fill="#455A64"/>
<path d="M381.219 176.735H195.815V205.366H381.219V176.735Z" fill="#EBEBEB"/>
<path d="M225.945 196.581C225.38 196.932 224.752 197.2 224.07 197.366C222.306 197.797 220.537 197.466 219.107 196.578C217.709 195.713 216.633 194.318 216.21 192.594C215.36 189.104 217.494 185.585 220.985 184.734C224.472 183.881 227.992 186.019 228.845 189.509C229.53 192.317 228.277 195.143 225.945 196.581Z" fill="#25D366"/>
<path d="M224.505 190.307C224.505 191.4 223.619 192.286 222.526 192.286C221.433 192.286 220.547 191.4 220.547 190.307C220.547 189.214 221.433 188.328 222.526 188.328C223.619 188.328 224.505 189.214 224.505 190.307Z" fill="white"/>
<path d="M225.945 195.765V196.581C225.38 196.932 224.752 197.2 224.07 197.366C222.306 197.797 220.537 197.466 219.107 196.578V195.765C219.107 193.882 220.637 192.346 222.526 192.346C224.416 192.346 225.945 193.881 225.945 195.765Z" fill="white"/>
<path d="M263.361 195.35H254.76L258.267 191.05L254.76 186.75H263.361L266.867 191.05L263.361 195.35Z" fill="white"/>
<path d="M241.261 186.75L242.658 189.581L245.783 190.035L243.522 192.239L244.055 195.35L241.261 193.881L238.466 195.35L239 192.239L236.739 190.035L239.864 189.581L241.261 186.75Z" fill="white"/>
<path d="M323.775 189.301H273.038V192.799H323.775V189.301Z" fill="#DBDBDB"/>
<path d="M364.579 189.301H344.691V192.799H364.579V189.301Z" fill="#C7C7C7"/>
<path d="M225.945 225.212C225.38 225.563 224.752 225.831 224.07 225.997C222.306 226.428 220.537 226.097 219.107 225.209C217.709 224.344 216.633 222.949 216.21 221.225C215.36 217.735 217.494 214.216 220.985 213.365C224.472 212.512 227.992 214.65 228.845 218.14C229.53 220.948 228.277 223.774 225.945 225.212Z" fill="#A6A6A6"/>
<path d="M224.505 218.938C224.505 220.031 223.619 220.917 222.526 220.917C221.433 220.917 220.547 220.031 220.547 218.938C220.547 217.845 221.433 216.959 222.526 216.959C223.619 216.96 224.505 217.845 224.505 218.938Z" fill="white"/>
<path d="M225.945 224.396V225.212C225.38 225.563 224.752 225.831 224.07 225.997C222.306 226.428 220.537 226.097 219.107 225.209V224.395C219.107 222.511 220.637 220.976 222.526 220.976C224.416 220.977 225.945 222.512 225.945 224.396Z" fill="white"/>
<path d="M263.361 223.982H254.76L258.267 219.681L254.76 215.381H263.361L266.867 219.681L263.361 223.982Z" fill="white" stroke="#EBEBEB" stroke-width="0.5" stroke-miterlimit="10"/>
<path d="M241.261 215.381L242.658 218.212L245.783 218.666L243.522 220.87L244.055 223.982L241.261 222.512L238.466 223.982L239 220.87L236.739 218.666L239.864 218.212L241.261 215.381Z" fill="#25D366"/>
<path d="M323.775 217.932H273.038V221.43H323.775V217.932Z" fill="#DBDBDB"/>
<path d="M364.579 217.932H344.691V221.43H364.579V217.932Z" fill="#C7C7C7"/>
<path d="M381.219 233.997H195.815V262.628H381.219V233.997Z" fill="#EBEBEB"/>
<path d="M225.945 253.843C225.38 254.194 224.752 254.463 224.07 254.628C222.306 255.059 220.537 254.728 219.107 253.84C217.709 252.975 216.633 251.58 216.21 249.856C215.36 246.366 217.494 242.847 220.985 241.996C224.472 241.143 227.992 243.281 228.845 246.771C229.53 249.579 228.277 252.405 225.945 253.843Z" fill="#37474F"/>
<path d="M224.505 247.569C224.505 248.662 223.619 249.548 222.526 249.548C221.433 249.548 220.547 248.662 220.547 247.569C220.547 246.476 221.433 245.59 222.526 245.59C223.619 245.59 224.505 246.476 224.505 247.569Z" fill="white"/>
<path d="M225.945 253.027V253.843C225.38 254.194 224.752 254.463 224.07 254.628C222.306 255.059 220.537 254.728 219.107 253.84V253.027C219.107 251.143 220.637 249.608 222.526 249.608C224.416 249.608 225.945 251.143 225.945 253.027Z" fill="white"/>
<path d="M263.361 252.613H254.76L258.267 248.312L254.76 244.012H263.361L266.867 248.312L263.361 252.613Z" fill="white"/>
<path d="M241.261 244.012L242.658 246.843L245.783 247.297L243.522 249.501L244.055 252.613L241.261 251.143L238.466 252.613L239 249.501L236.739 247.297L239.864 246.843L241.261 244.012Z" fill="#25D366"/>
<path d="M323.775 246.563H273.038V250.062H323.775V246.563Z" fill="#DBDBDB"/>
<path d="M364.579 246.563H344.691V250.062H364.579V246.563Z" fill="#C7C7C7"/>
<path d="M381.217 405.78V419.8C381.217 426.05 378.087 431.49 373.437 434.41H203.597C198.937 431.49 195.817 426.04 195.817 419.8V405.78H381.217Z" fill="#EBEBEB"/>
<path d="M225.945 425.63C225.38 425.981 224.752 426.249 224.07 426.415C222.306 426.846 220.537 426.515 219.107 425.627C217.709 424.762 216.633 423.367 216.21 421.643C215.36 418.152 217.494 414.634 220.985 413.783C224.472 412.93 227.992 415.068 228.845 418.558C229.53 421.366 228.277 424.192 225.945 425.63Z" fill="#25D366"/>
<path d="M224.505 419.356C224.505 420.449 223.619 421.335 222.526 421.335C221.433 421.335 220.547 420.449 220.547 419.356C220.547 418.263 221.433 417.377 222.526 417.377C223.619 417.378 224.505 418.263 224.505 419.356Z" fill="white"/>
<path d="M225.945 424.814V425.63C225.38 425.981 224.752 426.249 224.07 426.415C222.306 426.846 220.537 426.515 219.107 425.627V424.813C219.107 422.929 220.637 421.394 222.526 421.394C224.416 421.395 225.945 422.931 225.945 424.814Z" fill="white"/>
<path d="M263.361 424.4H254.76L258.267 420.099L254.76 415.799H263.361L266.867 420.099L263.361 424.4Z" fill="white"/>
<path d="M241.261 415.799L242.658 418.63L245.783 419.084L243.522 421.288L244.055 424.4L241.261 422.931L238.466 424.4L239 421.288L236.739 419.084L239.864 418.63L241.261 415.799Z" fill="#25D366"/>
<path d="M323.775 418.35H273.038V421.849H323.775V418.35Z" fill="#DBDBDB"/>
<path d="M364.579 418.35H344.691V421.849H364.579V418.35Z" fill="#C7C7C7"/>
<path d="M225.945 282.474C225.38 282.825 224.752 283.093 224.07 283.259C222.306 283.69 220.537 283.359 219.107 282.471C217.709 281.606 216.633 280.211 216.21 278.487C215.36 274.996 217.494 271.478 220.985 270.627C224.472 269.774 227.992 271.912 228.845 275.402C229.53 278.21 228.277 281.036 225.945 282.474Z" fill="#263238"/>
<path d="M224.505 276.2C224.505 277.293 223.619 278.179 222.526 278.179C221.433 278.179 220.547 277.293 220.547 276.2C220.547 275.107 221.433 274.221 222.526 274.221C223.619 274.222 224.505 275.108 224.505 276.2Z" fill="white"/>
<path d="M225.945 281.658V282.474C225.38 282.825 224.752 283.093 224.07 283.259C222.306 283.69 220.537 283.359 219.107 282.471V281.658C219.107 279.774 220.637 278.239 222.526 278.239C224.416 278.239 225.945 279.775 225.945 281.658Z" fill="white"/>
<path d="M263.361 281.244H254.76L258.267 276.943L254.76 272.643H263.361L266.867 276.943L263.361 281.244Z" fill="white" stroke="#EBEBEB" stroke-width="0.5" stroke-miterlimit="10"/>
<path d="M241.261 272.643L242.658 275.474L245.783 275.928L243.522 278.132L244.055 281.244L241.261 279.775L238.466 281.244L239 278.132L236.739 275.928L239.864 275.474L241.261 272.643Z" fill="white" stroke="#EBEBEB" stroke-width="0.5" stroke-miterlimit="10"/>
<path d="M323.775 275.194H273.038V278.693H323.775V275.194Z" fill="#DBDBDB"/>
<path d="M364.579 275.194H344.691V278.693H364.579V275.194Z" fill="#C7C7C7"/>
<path d="M381.219 291.259H195.815V319.89H381.219V291.259Z" fill="#EBEBEB"/>
<path d="M225.945 311.105C225.38 311.456 224.752 311.724 224.07 311.89C222.306 312.321 220.537 311.99 219.107 311.102C217.709 310.237 216.633 308.842 216.21 307.118C215.36 303.628 217.494 300.109 220.985 299.258C224.472 298.405 227.992 300.543 228.845 304.033C229.53 306.841 228.277 309.667 225.945 311.105Z" fill="#25D366"/>
<path d="M224.505 304.831C224.505 305.924 223.619 306.81 222.526 306.81C221.433 306.81 220.547 305.924 220.547 304.831C220.547 303.738 221.433 302.853 222.526 302.853C223.619 302.853 224.505 303.739 224.505 304.831Z" fill="white"/>
<path d="M225.945 310.289V311.105C225.38 311.456 224.752 311.724 224.07 311.89C222.306 312.321 220.537 311.99 219.107 311.102V310.289C219.107 308.405 220.637 306.87 222.526 306.87C224.416 306.87 225.945 308.406 225.945 310.289Z" fill="white"/>
<path d="M263.361 309.875H254.76L258.267 305.575L254.76 301.274H263.361L266.867 305.575L263.361 309.875Z" fill="white"/>
<path d="M241.261 301.274L242.658 304.106L245.783 304.56L243.522 306.763L244.055 309.875L241.261 308.406L238.466 309.875L239 306.763L236.739 304.56L239.864 304.106L241.261 301.274Z" fill="#25D366"/>
<path d="M323.775 303.825H273.038V307.324H323.775V303.825Z" fill="#263238"/>
<path d="M364.579 303.825H344.691V307.324H364.579V303.825Z" fill="#455A64"/>
<path d="M225.945 339.737C225.38 340.088 224.752 340.356 224.07 340.522C222.306 340.953 220.537 340.622 219.107 339.734C217.709 338.869 216.633 337.474 216.21 335.75C215.36 332.259 217.494 328.74 220.985 327.89C224.472 327.037 227.992 329.175 228.845 332.665C229.53 335.473 228.277 338.298 225.945 339.737Z" fill="#25D366"/>
<path d="M224.505 333.463C224.505 334.556 223.619 335.442 222.526 335.442C221.433 335.442 220.547 334.556 220.547 333.463C220.547 332.37 221.433 331.485 222.526 331.485C223.619 331.484 224.505 332.37 224.505 333.463Z" fill="white"/>
<path d="M225.945 338.921V339.737C225.38 340.088 224.752 340.356 224.07 340.522C222.306 340.953 220.537 340.622 219.107 339.734V338.92C219.107 337.036 220.637 335.501 222.526 335.501C224.416 335.502 225.945 337.037 225.945 338.921Z" fill="white"/>
<path d="M263.361 338.506H254.76L258.267 334.206L254.76 329.906H263.361L266.867 334.206L263.361 338.506Z" fill="white" stroke="#EBEBEB" stroke-width="0.5" stroke-miterlimit="10"/>
<path d="M241.261 329.906L242.658 332.737L245.783 333.191L243.522 335.394L244.055 338.506L241.261 337.037L238.466 338.506L239 335.394L236.739 333.191L239.864 332.737L241.261 329.906Z" fill="white" stroke="#EBEBEB" stroke-width="0.5" stroke-miterlimit="10"/>
<path d="M323.775 332.456H273.038V335.955H323.775V332.456Z" fill="#DBDBDB"/>
<path d="M364.579 332.456H344.691V335.955H364.579V332.456Z" fill="#C7C7C7"/>
<path d="M381.219 348.521H195.815V377.152H381.219V348.521Z" fill="#EBEBEB"/>
<path d="M225.945 368.368C225.38 368.719 224.752 368.987 224.07 369.153C222.306 369.584 220.537 369.253 219.107 368.365C217.709 367.5 216.633 366.105 216.21 364.381C215.36 360.891 217.494 357.372 220.985 356.521C224.472 355.668 227.992 357.806 228.845 361.296C229.53 364.104 228.277 366.93 225.945 368.368Z" fill="#455A64"/>
<path d="M224.505 362.094C224.505 363.187 223.619 364.073 222.526 364.073C221.433 364.073 220.547 363.187 220.547 362.094C220.547 361.001 221.433 360.115 222.526 360.115C223.619 360.115 224.505 361.001 224.505 362.094Z" fill="white"/>
<path d="M225.945 367.552V368.368C225.38 368.719 224.752 368.987 224.07 369.153C222.306 369.584 220.537 369.253 219.107 368.365V367.551C219.107 365.668 220.637 364.132 222.526 364.132C224.416 364.133 225.945 365.668 225.945 367.552Z" fill="white"/>
<path d="M263.361 367.137H254.76L258.267 362.837L254.76 358.537H263.361L266.867 362.837L263.361 367.137Z" fill="white"/>
<path d="M241.261 358.537L242.658 361.368L245.783 361.822L243.522 364.026L244.055 367.137L241.261 365.668L238.466 367.137L239 364.026L236.739 361.822L239.864 361.368L241.261 358.537Z" fill="white"/>
<path d="M323.775 361.088H273.038V364.587H323.775V361.088Z" fill="#DBDBDB"/>
<path d="M364.579 361.088H344.691V364.587H364.579V361.088Z" fill="#C7C7C7"/>
<path d="M225.945 396.999C225.38 397.35 224.752 397.618 224.07 397.784C222.306 398.215 220.537 397.884 219.107 396.996C217.709 396.131 216.633 394.736 216.21 393.012C215.36 389.521 217.494 386.003 220.985 385.152C224.472 384.299 227.992 386.437 228.845 389.927C229.53 392.735 228.277 395.561 225.945 396.999Z" fill="#A6A6A6"/>
<path d="M224.505 390.725C224.505 391.818 223.619 392.704 222.526 392.704C221.433 392.704 220.547 391.818 220.547 390.725C220.547 389.632 221.433 388.747 222.526 388.747C223.619 388.747 224.505 389.632 224.505 390.725Z" fill="white"/>
<path d="M225.945 396.183V396.999C225.38 397.35 224.752 397.618 224.07 397.784C222.306 398.215 220.537 397.884 219.107 396.996V396.183C219.107 394.299 220.637 392.764 222.526 392.764C224.416 392.764 225.945 394.299 225.945 396.183Z" fill="white"/>
<path d="M263.361 395.768H254.76L258.267 391.469L254.76 387.168H263.361L266.867 391.469L263.361 395.768Z" fill="white" stroke="#EBEBEB" stroke-width="0.5" stroke-miterlimit="10"/>
<path d="M241.261 387.168L242.658 389.999L245.783 390.453L243.522 392.657L244.055 395.768L241.261 394.299L238.466 395.768L239 392.657L236.739 390.453L239.864 389.999L241.261 387.168Z" fill="white" stroke="#EBEBEB" stroke-width="0.5" stroke-miterlimit="10"/>
<path d="M323.775 389.719H273.038V393.218H323.775V389.719Z" fill="#DBDBDB"/>
<path d="M364.579 389.719H344.691V393.218H364.579V389.719Z" fill="#C7C7C7"/>
<path d="M224.725 448.725H143.545C133.838 414.663 126.031 388.746 126.031 388.746H202.958C202.958 388.746 212.512 414.406 224.725 448.725Z" fill="#37474F"/>
<path d="M155.44 448.725H153.766C148.959 432.67 143.956 416.676 139.056 400.652C138.994 400.436 139.323 400.344 139.395 400.549C140.412 403.333 141.429 406.106 142.415 408.9C147.079 422.059 151.372 435.361 155.44 448.725Z" fill="#263238"/>
<path d="M201.243 388.746C201.151 390.359 196.857 405.089 194.638 427.133C193.827 435.258 192.912 442.911 191.926 448.725H84.2029C73.5409 415.783 89.3599 388.746 89.3599 388.746C89.3599 388.746 201.253 388.685 201.243 388.746Z" fill="#37474F"/>
<path d="M179.713 425.233C180.093 430.759 180.216 436.296 180.155 441.833C180.124 443.949 179.806 446.527 180.093 448.726H178.223C177.771 445.213 178.223 440.837 178.202 437.396C178.14 423.097 176.322 408.973 174.124 394.87C174.073 394.531 174.545 394.428 174.638 394.757C177.453 404.719 178.994 414.909 179.713 425.233Z" fill="#263238"/>
<path d="M193.067 432.372C192.975 435.31 192.173 443.137 189.862 448.725H188.249C191.382 441.093 191.197 426.198 190.971 422.757C190.324 412.557 189.533 402.983 187.797 392.239C187.735 391.9 188.3 391.88 188.372 392.188C191.423 405.11 193.488 419.069 193.067 432.372Z" fill="#263238"/>
<path d="M90.849 403.045C87.726 416.542 89.247 431.016 92.225 444.4C92.544 445.848 92.893 447.286 93.252 448.725H91.6081C87.2011 430.112 85.845 410.852 93.601 392.804C93.704 392.578 94.0321 392.763 93.9401 392.989C92.6371 396.266 91.64 399.614 90.849 403.045Z" fill="#263238"/>
<path d="M269.697 192.04L252.038 248.344C251.333 249.985 252.096 251.396 253.744 251.49L283.222 253.174C284.867 253.269 286.779 252.011 287.484 250.369L305.142 194.065C305.849 192.42 305.084 191.014 303.438 190.92L273.96 189.235C272.314 189.141 270.405 190.395 269.697 192.04Z" fill="#37474F"/>
<path d="M273.198 192.209L255.54 248.513C254.834 250.154 255.598 251.565 257.245 251.659L286.723 253.343C288.369 253.437 290.28 252.18 290.986 250.538L308.644 194.234C309.351 192.589 308.586 191.182 306.94 191.088L277.462 189.404C275.815 189.31 273.905 190.564 273.198 192.209Z" fill="#455A64"/>
<path d="M281.131 195.281C281.022 196.662 279.813 197.693 278.432 197.584C277.051 197.474 276.02 196.266 276.13 194.884C276.24 193.503 277.448 192.472 278.829 192.582C280.21 192.691 281.24 193.9 281.131 195.281Z" fill="#263238"/>
<path d="M169.733 273.112C184.062 309.719 218.453 358.3 233.925 359.525C241.287 360.108 254.33 362.738 264.558 354.91C286.878 337.827 306.848 303.655 311.781 283.662C313.536 276.551 279.561 258.652 274.005 264.171C260.996 277.093 245.146 303.086 243.015 302.782C235.128 301.656 205.833 273.798 185.397 254.191C160.587 230.388 164.023 258.524 169.733 273.112Z" fill="#EB9481"/>
<path d="M315.103 246.536C312.363 231.684 309.379 228.291 313.724 214.528C316.575 205.497 312.032 199.801 305.038 206.737C293.6 218.081 293.11 237.986 294.927 244.935L315.103 246.536Z" fill="#EB9481"/>
<path d="M309.658 289.816C309.658 289.816 317.524 269.89 316.17 253.773C315.234 242.628 310.493 218.609 280.423 204.112C273.291 200.673 260.689 200.832 270.299 210.679C277.125 217.673 283.567 220.046 286.796 224.838C286.796 224.838 270.791 226.942 267.625 234.222C266.21 237.475 262.557 246.446 260.708 253.835C260.708 253.835 262.21 254.67 264.262 255.458C264.262 255.458 261.512 262.367 266.086 272.726L309.658 289.816Z" fill="#EB9481"/>
<path d="M313.578 243.279C309.367 239.201 300.297 230.708 290.461 226.341C279.536 221.49 257.183 215.09 253.685 223.192C251.12 229.133 259.44 232.326 259.44 232.326C259.44 232.326 249.644 231.628 248.5 237.502C247.459 242.854 254.043 244.939 254.043 244.939C254.043 244.939 248.027 245.537 248.017 250.886C248.004 257.319 260.614 255.009 266.231 261.536C267.493 263.001 313.578 243.279 313.578 243.279Z" fill="#EB9481"/>
<path d="M287.261 238.739C282.672 235.553 270.393 230.992 259.638 232.176C259.394 232.203 259.284 232.401 259.512 232.424C271.631 233.636 282.634 237.095 287.216 238.843C287.277 238.866 287.312 238.775 287.261 238.739Z" fill="#263238"/>
<path d="M282.044 249.626C277.802 247.284 264.936 243.148 254.078 244.722C253.835 244.757 253.738 244.964 253.967 244.977C266.681 245.722 277.327 248.26 282.005 249.732C282.067 249.751 282.098 249.655 282.044 249.626Z" fill="#263238"/>
<path d="M214.458 276.088L208.968 282.725L207.841 284.097L186.005 310.522C186.005 310.522 166.217 278.197 162.222 259.823C159.825 248.782 161.546 242.268 166.36 241.08C166.708 240.998 167.077 240.937 167.446 240.916C170.56 240.65 174.738 242.288 179.737 245.976C193.81 256.382 214.458 276.088 214.458 276.088Z" fill="#25D366"/>
<path d="M213.243 274.951C212.735 276.61 212.113 278.227 211.387 279.803L214.373 276.195V276.185C214.394 276.143 214.415 276.102 214.415 276.061C214.301 275.936 213.886 275.553 213.243 274.951ZM179.651 245.911C177.712 247.145 175.929 248.617 174.353 250.297C169.542 255.377 166.836 262.013 166.867 269.022C166.867 270.888 167.023 272.744 167.23 274.59C167.717 275.731 168.215 276.871 168.733 278.011C168.64 277.275 168.536 276.539 168.443 275.792C167.914 271.79 167.52 267.705 168.277 263.713C168.889 260.53 170.143 257.544 171.833 254.796C173.917 251.406 176.768 248.461 180.086 246.232C179.962 246.149 179.847 246.056 179.733 245.973C179.703 245.952 179.682 245.931 179.651 245.911Z" fill="white"/>
<path d="M181.75 299.529C182.931 296.752 195.082 280.059 205.201 269.463C205.355 269.302 205.592 269.511 205.461 269.688C204.498 270.991 184.431 297.802 182.103 299.831C181.91 299.998 181.665 299.728 181.75 299.529Z" fill="#263238"/>
<path opacity="0.05" d="M199.975 293.63L186.003 310.514C186.003 310.514 166.21 278.202 162.213 259.817C159.455 247.137 162.142 240.405 168.711 240.907L199.975 293.63Z" fill="black"/>
<path d="M203.952 393.19C201.147 396.23 82.7568 408.842 82.0818 408.025C80.2688 405.815 91.1588 286.162 139.663 242.33C148.211 234.606 163.306 236.809 170.306 240.779C173.803 242.762 179.879 259.302 185.834 278.608C190.384 293.357 205.715 391.253 203.952 393.19Z" fill="#25D366"/>
<path d="M203.954 393.188C203.332 393.862 196.956 395.023 187.417 396.402C187.064 396.444 186.702 396.495 186.339 396.547C181.518 397.242 175.961 397.978 169.958 398.735C169.533 398.787 169.097 398.839 168.662 398.901C151.534 401.047 131.099 403.349 114.386 405.111C114.199 405.132 114.013 405.153 113.837 405.163C95.8489 407.06 82.3079 408.304 82.0799 408.025C81.7269 407.6 81.8519 402.748 82.6399 394.889C82.6709 394.557 82.7129 394.215 82.7439 393.873C84.6309 375.698 89.8769 342.686 100.535 310.763C100.701 310.245 100.877 309.726 101.053 309.208C104.298 299.649 108.031 290.204 112.323 281.308C112.448 281.038 112.572 280.779 112.707 280.51C117.165 271.334 122.225 262.76 127.917 255.274C128.114 255.015 128.301 254.766 128.508 254.517C131.971 250.017 135.693 245.922 139.664 242.335C140.815 241.298 142.08 240.438 143.428 239.743C143.739 239.577 144.061 239.432 144.382 239.287C148.529 237.4 153.35 236.913 157.891 237.286C158.275 237.317 158.658 237.359 159.032 237.4C163.459 237.898 167.523 239.194 170.312 240.78C171.68 241.568 173.464 244.596 175.475 249.178C175.568 249.385 175.662 249.603 175.755 249.821C178.793 256.861 182.339 267.26 185.833 278.613C187.067 282.625 189.109 292.807 191.38 305.528C191.432 305.808 191.484 306.098 191.536 306.389C192.324 310.785 193.133 315.482 193.941 320.324C194.065 321.008 194.179 321.693 194.293 322.387C195.942 332.257 197.59 342.646 199.062 352.319C199.114 352.713 199.176 353.107 199.238 353.491C200.482 361.775 201.581 369.499 202.431 375.886C202.493 376.394 202.555 376.892 202.618 377.379C203.798 386.594 204.379 392.721 203.954 393.188Z" fill="#25D366"/>
<path d="M165.478 381.586C163.456 378.776 160.895 376.371 157.93 374.577C154.757 372.638 151.243 371.653 147.593 371.031C143.767 370.367 139.755 369.994 136.178 368.366C132.756 366.821 130.362 364.053 127.966 361.264C127.344 360.528 126.691 359.802 126.027 359.097C126.784 358.589 127.541 358.071 128.318 357.594C132.807 354.826 137.774 352.752 141.921 349.466C145.685 346.48 148.297 342.499 149.355 337.802C150.371 333.271 149.998 328.429 148.339 324.096C146.639 319.679 143.611 315.843 139.92 312.909C132.3 306.854 122.201 304.532 112.631 305.828C108.629 306.367 104.71 307.497 101.05 309.208C100.874 309.726 100.697 310.245 100.532 310.763C102.315 309.861 104.161 309.115 106.048 308.513C115.11 305.62 125.281 306.087 133.803 310.462C137.919 312.567 141.631 315.553 144.306 319.337C146.95 323.069 148.453 327.465 148.598 332.038C148.743 336.496 147.582 341.048 144.928 344.677C141.942 348.752 137.359 351.209 133.015 353.562C130.34 355.024 127.738 356.579 125.208 358.269C123.705 356.797 122.035 355.511 120.045 354.733C116.852 353.489 113.264 353.592 110.04 354.671C102.959 357.035 98.811 363.826 98.013 371.011C97.557 375.065 98.137 379.046 99.371 382.851C96.375 385.816 93.192 388.564 89.584 390.751C87.427 392.068 85.136 393.125 82.741 393.872C82.71 394.214 82.668 394.556 82.637 394.888C83.072 394.774 83.498 394.639 83.923 394.494C90.05 392.42 95.151 388.439 99.755 383.971C100.999 387.444 102.751 390.762 104.742 393.841C107.375 397.905 110.424 401.7 113.835 405.163C114.011 405.153 114.198 405.132 114.384 405.111C112.414 403.027 110.558 400.829 108.848 398.527C105.437 393.934 102.264 388.823 100.419 383.317C102.13 381.617 103.778 379.854 105.396 378.102C108.558 374.66 111.669 371.145 115.038 367.89C118.179 364.873 121.58 362.115 125.167 359.658C127.324 361.949 129.148 364.541 131.512 366.646C134.239 369.072 137.598 370.327 141.133 371.063C144.803 371.83 148.577 372.141 152.185 373.251C155.399 374.236 158.354 375.967 160.842 378.217C165.829 382.706 168.95 389.197 168.888 395.946C168.878 396.931 168.805 397.926 168.66 398.901C169.096 398.839 169.531 398.787 169.956 398.735C170.683 392.69 169.076 386.573 165.478 381.586ZM119.693 362.281C115.857 365.371 112.394 368.834 109.056 372.452C106.091 375.666 103.167 379.036 100.057 382.188C99.518 380.405 99.124 378.59 98.916 376.745C98.138 369.757 100.274 361.763 106.288 357.564C109.025 355.656 112.364 354.609 115.712 354.775C119.113 354.931 121.974 356.506 124.369 358.839C122.783 359.927 121.207 361.057 119.693 362.281ZM199.06 352.317C195.597 355.085 192.31 358.113 188.443 360.321C182.865 363.504 175.214 365.194 170.144 360.145C168.153 358.154 166.857 355.428 166.598 352.628C166.318 349.528 167.396 346.749 169.159 344.251C171.118 341.452 173.628 339.098 175.566 336.278C177.194 333.914 178.521 331.374 179.724 328.771C182.181 329.466 184.794 329.466 187.293 328.501C190.414 327.298 192.653 325.08 194.291 322.384C194.177 321.689 194.063 321.005 193.939 320.321C193.161 321.824 192.197 323.234 190.953 324.499C188.641 326.863 185.53 328.19 182.213 327.91C181.549 327.848 180.907 327.723 180.274 327.558C180.419 327.247 180.564 326.925 180.699 326.604C183.509 320.176 185.862 313.385 190.279 307.828C190.673 307.33 191.088 306.854 191.534 306.387C191.482 306.097 191.43 305.806 191.378 305.526C187.22 309.849 184.546 315.469 182.171 320.902C181.238 323.027 180.325 325.174 179.34 327.289C177.121 326.532 175.089 325.174 173.461 323.525C168.028 317.999 167.624 309.456 168.184 302.177C168.537 297.739 169.211 293.323 169.397 288.875C169.594 284.458 169.013 280.156 168.443 275.791C167.914 271.789 167.52 267.704 168.277 263.712C168.889 260.529 170.143 257.543 171.833 254.795C172.942 252.991 174.259 251.311 175.752 249.818C175.659 249.6 175.565 249.383 175.472 249.175C175.088 249.538 174.715 249.911 174.352 250.295C169.541 255.375 166.835 262.011 166.866 269.02C166.876 273.582 167.778 278.071 168.131 282.612C168.494 287.288 168.007 291.943 167.457 296.588C166.524 304.675 165.694 313.581 169.914 320.953C171.822 324.302 175.088 327.143 178.789 328.47C178.322 329.455 177.835 330.43 177.317 331.394C176.394 333.094 175.378 334.743 174.238 336.319C173.17 337.781 171.967 339.139 170.786 340.508C168.619 343.038 166.411 345.796 165.737 349.145C165.167 351.996 165.685 354.993 167.002 357.564C168.308 360.135 170.486 362.333 173.171 363.443C176.406 364.791 179.983 364.687 183.311 363.713C189.573 361.878 194.27 357.472 199.236 353.49C199.174 353.105 199.112 352.711 199.06 352.317ZM202.616 377.376C199.474 374.877 196.105 372.42 191.989 372.047C189.957 371.86 187.945 372.275 186.266 373.457C184.721 374.535 183.643 376.204 182.99 377.946C181.518 381.876 181.891 386.417 183.436 390.263C184.369 392.596 185.79 394.586 187.417 396.401C187.064 396.443 186.702 396.494 186.339 396.546C185.23 395.322 184.224 394.016 183.426 392.575C182.275 390.522 181.529 388.272 181.176 385.94C180.564 381.886 181.166 377.335 183.841 374.079C186.734 370.564 191.441 370.201 195.495 371.684C198.097 372.628 200.295 374.204 202.431 375.883C202.492 376.392 202.554 376.889 202.616 377.376ZM158.034 238.943C158.386 238.435 158.718 237.927 159.029 237.398C158.656 237.356 158.272 237.315 157.888 237.284C155.669 240.861 152.704 244.085 149.677 246.968C149.47 247.165 149.262 247.362 149.055 247.559C148.402 245.361 147.469 243.246 146.131 241.369C145.602 240.633 145.022 239.938 144.379 239.285C144.058 239.43 143.736 239.575 143.425 239.741C145.55 241.846 147.043 244.469 147.956 247.33C148.06 247.662 148.153 247.994 148.236 248.315C145.457 250.876 142.378 253.343 138.884 254.743C135.597 256.07 131.595 256.34 128.506 254.515C128.299 254.764 128.112 255.013 127.915 255.272C130.383 256.775 133.431 257.138 136.365 256.578C140.948 255.707 144.867 252.68 148.298 249.673C148.381 249.6 148.454 249.528 148.526 249.466C149.967 255.645 149.428 262.167 150.403 268.429C151.512 275.604 154.955 282.851 153.182 290.191C152.498 292.98 151.108 295.769 148.755 297.5C145.976 299.553 142.462 299.677 139.258 298.641C132.177 296.37 128.05 289.631 122.192 285.494C119.258 283.42 115.95 282.031 112.705 280.507C112.57 280.777 112.446 281.036 112.321 281.305C114.291 282.259 116.282 283.15 118.138 284.156C119.558 284.923 120.958 285.763 122.244 286.748C123.779 287.92 125.178 289.247 126.557 290.584C129.273 293.228 131.928 296.038 135.235 297.966C138.242 299.718 141.819 300.828 145.302 300.154C148.361 299.553 150.859 297.51 152.414 294.856C153.98 292.212 154.674 289.06 154.685 286.002C154.706 281.969 153.596 278.019 152.632 274.131C152.114 272.068 151.616 269.994 151.315 267.879C151.056 266.023 150.911 264.157 150.797 262.291C150.579 258.6 150.486 254.878 149.885 251.218C149.74 250.368 149.574 249.528 149.367 248.688C152.58 245.755 155.546 242.51 158.034 238.943Z" fill="white"/>
<path d="M128.188 259.038C108.701 299.569 82.6089 400.387 78.7759 415.209C76.1739 425.268 128.699 435.46 130.089 428.465C131.686 420.426 151.777 302.446 149.781 259.972C148.688 236.706 134.932 245.012 128.188 259.038Z" fill="#EB9481"/>
<path d="M130.736 423.818C130.12 431.459 125.772 447.003 122.057 449.534C118.342 452.065 98.189 452.623 88.042 453.157C77.895 453.691 75.75 450.968 75.733 447.466C75.716 443.964 96.972 442.179 96.972 442.179C96.972 442.179 68.966 451.825 61.883 453.532C54.8 455.239 38.542 460.264 35.845 454.456C34.63 451.839 39 448.897 39 448.897C39 448.897 32.191 451.28 30.911 447.9C29.454 444.053 34.836 441.61 34.836 441.61C34.836 441.61 30.561 442.708 30.294 439.525C29.697 432.412 56.556 427.488 56.556 427.488C56.556 427.488 36.381 438.658 35.41 432.878C34.066 424.878 76.038 413.82 80.272 410.079C84.506 406.338 88.804 400.87 88.804 400.87L130.736 423.818Z" fill="#EB9481"/>
<path d="M75.9778 449.229C75.7978 448.172 76.1028 447.16 76.7988 446.463C77.4618 445.747 78.2978 445.198 79.1878 444.729C80.9728 443.801 82.9318 443.135 84.9018 442.537C88.8468 441.31 92.9088 440.378 96.9348 439.108C92.7168 439.267 88.5448 439.955 84.4798 441.176C82.4628 441.82 80.4408 442.567 78.6198 443.777C77.7108 444.37 76.8568 445.114 76.2368 446.054C75.6228 447.003 75.4768 448.28 75.9778 449.229Z" fill="#263238"/>
<path d="M39.001 448.897C41.889 448.029 44.728 447.051 47.564 446.067C50.406 445.099 53.215 444.052 56.034 443.037L64.458 439.903C67.266 438.856 70.074 437.82 72.914 436.808C69.925 437.245 67.006 438.028 64.113 438.861C61.213 439.684 58.371 440.676 55.543 441.699C52.726 442.75 49.921 443.836 47.168 445.049C44.409 446.247 41.667 447.485 39.001 448.897Z" fill="#263238"/>
<path d="M65.6739 430.067C62.9179 430.357 60.2089 430.947 57.5299 431.633C54.8439 432.302 52.2119 433.167 49.6139 434.121C47.0249 435.098 44.4649 436.163 42.0009 437.43C39.5179 438.653 37.1209 440.051 34.8379 441.61C37.4059 440.57 39.8999 439.432 42.4539 438.429C44.9979 437.41 47.5389 436.393 50.1109 435.457C52.6679 434.479 55.2569 433.59 57.8439 432.679C60.4369 431.78 63.0459 430.931 65.6739 430.067Z" fill="#263238"/>
<path d="M61.1339 423.499C56.6819 424 52.3709 425.307 48.2209 426.942C44.0819 428.609 40.0809 430.692 36.5149 433.393C40.6409 431.673 44.6459 429.877 48.7509 428.265C52.8359 426.608 56.9619 425.087 61.1339 423.499Z" fill="#263238"/>
<path d="M150.79 305.608L103.974 305.844C103.974 305.844 116.682 268.213 128.777 252.659C140.872 237.104 150.587 239.159 151.671 257.459C152.754 275.757 150.79 305.608 150.79 305.608Z" fill="#25D366"/>
<path d="M151.673 257.465C151.729 258.289 151.772 259.157 151.795 260.029C151.829 260.419 151.843 260.813 151.857 261.207C152.517 279.546 150.796 305.609 150.796 305.609L138.081 305.678L136.808 305.675L103.977 305.852C103.977 305.852 109.37 289.885 116.455 274.466C116.691 273.961 116.923 273.436 117.179 272.927C120.794 265.214 124.813 257.756 128.771 252.668C140.877 237.108 150.583 239.167 151.673 257.465Z" fill="#25D366"/>
<path d="M112.85 305.796L122.357 305.744C119.206 305.371 116.002 305.392 112.85 305.796ZM151.315 267.88C151.056 266.024 150.911 264.158 150.797 262.292C150.579 258.601 150.486 254.879 149.885 251.219C149.74 250.369 149.574 249.529 149.367 248.689C149.554 248.513 149.74 248.347 149.927 248.16C149.792 247.797 149.647 247.455 149.502 247.134C149.357 247.279 149.201 247.414 149.056 247.559C148.766 246.595 148.434 245.651 148.019 244.739C147.418 243.982 146.723 243.391 145.977 242.976C146.806 244.334 147.47 245.796 147.957 247.331C148.061 247.663 148.154 247.995 148.237 248.316C145.458 250.877 142.379 253.344 138.885 254.744C135.329 256.185 130.933 256.382 127.76 254.018C127.573 254.277 127.387 254.526 127.211 254.796C129.782 256.693 133.141 257.191 136.366 256.579C140.949 255.708 144.868 252.681 148.299 249.674C148.382 249.601 148.455 249.529 148.527 249.467C149.968 255.646 149.429 262.168 150.404 268.43C150.767 270.773 151.379 273.127 151.98 275.491C151.99 274.164 152.011 272.827 152.011 271.51C151.73 270.306 151.492 269.104 151.315 267.88ZM148.755 297.502C145.976 299.555 142.462 299.679 139.258 298.643C132.177 296.372 128.05 289.633 122.192 285.496C119.527 283.619 116.552 282.292 113.597 280.924C113.473 281.194 113.358 281.473 113.244 281.753C114.903 282.541 116.572 283.308 118.138 284.158C119.558 284.925 120.958 285.765 122.244 286.75C123.779 287.922 125.178 289.249 126.557 290.586C129.273 293.23 131.928 296.04 135.235 297.968C138.242 299.72 141.819 300.83 145.302 300.156C147.718 299.679 149.781 298.311 151.305 296.444C151.336 295.853 151.367 295.231 151.388 294.588C150.693 295.708 149.822 296.724 148.755 297.502Z" fill="white"/>
<path d="M109.956 295.04C112.983 294.125 134.571 292.687 149.89 293.71C150.123 293.726 150.115 294.057 149.884 294.07C148.189 294.171 113.146 296.036 109.95 295.526C109.686 295.484 109.739 295.106 109.956 295.04Z" fill="#263238"/>
<path d="M153.757 277.225C153.759 277.081 153.554 277.07 153.516 277.199C153.04 278.779 152.792 280.417 152.497 282.038C152.429 282.411 152.376 282.788 152.315 283.163C152.183 279.214 151.987 275.273 151.78 271.355C151.77 271.166 151.484 271.172 151.486 271.361C151.61 284.948 151.246 297.352 150.422 305.225C149.067 305.336 147.712 305.448 146.358 305.559C146.043 305.585 146.053 306.036 146.368 306.049C147.891 306.109 150.01 306.169 151.534 306.229C151.749 306.238 152.613 294.913 152.399 285.986C152.685 284.701 152.984 283.416 153.196 282.119C153.459 280.499 153.741 278.869 153.757 277.225Z" fill="#263238"/>
<path d="M110.302 305.851C108.193 305.982 106.084 306.089 103.976 306.15L103.565 306.162L103.694 305.754C104.509 303.172 105.354 300.603 106.266 298.056C107.181 295.511 108.121 292.974 109.124 290.461C110.123 287.947 111.162 285.447 112.29 282.985C113.399 280.516 114.579 278.075 115.889 275.705L112.94 283.256L110.062 290.825L107.182 298.394L104.259 305.95L103.977 305.554C106.085 305.613 108.194 305.72 110.302 305.851Z" fill="#263238"/>
<path d="M167.483 261.511C160.363 263.86 146.92 253.852 141.211 245.291C140.823 244.702 141.243 219.824 140.813 214.887C140.72 213.874 172.481 219.713 172.481 219.713C172.481 219.713 170.332 230.33 171.134 238.934C171.209 239.653 174.363 259.236 167.483 261.511Z" fill="#EB9481"/>
<path d="M172.493 219.705C172.493 219.705 172.493 219.705 172.474 219.729C172.449 219.883 172.325 220.503 172.159 221.497C171.879 223.196 171.461 225.95 171.214 229.073C170.947 232.199 170.831 235.696 171.139 238.929C171.145 239.166 171.193 239.399 171.218 239.612L171.23 239.719C171.298 240.122 171.36 240.656 171.434 241.297C170.528 241.51 169.526 241.647 168.432 241.73C151.524 242.815 144.041 222.597 141.777 214.785C141.951 214.786 142.126 214.81 142.323 214.83C143.152 214.886 144.249 215.019 145.568 215.192C145.898 215.241 146.228 215.289 146.58 215.335C148.692 215.632 151.206 216.035 153.829 216.447C154.689 216.586 155.549 216.725 156.433 216.882C158.31 217.207 160.208 217.529 161.974 217.823C162.727 217.974 163.478 218.104 164.184 218.217C164.957 218.344 165.731 218.493 166.437 218.607C166.791 218.674 167.145 218.742 167.475 218.79C167.653 218.834 167.808 218.86 167.962 218.886C169 219.069 169.884 219.227 170.592 219.362C171.122 219.452 171.542 219.534 171.851 219.584C172.117 219.64 172.293 219.663 172.384 219.696C172.427 219.691 172.448 219.689 172.472 219.708C172.493 219.705 172.493 219.705 172.493 219.705Z" fill="#263238"/>
<path d="M134.728 178.639C131.721 189.767 138.586 221.403 146.664 228.241C158.376 238.154 177.032 238.525 185.339 224.581C193.391 211.065 183.714 169.994 174.738 163.834C161.518 154.761 139.17 162.201 134.728 178.639Z" fill="#EB9481"/>
<path d="M139.317 209.604C144.968 207.778 142.473 193.078 142.473 193.078C142.473 193.078 149.21 189.077 149.122 175.325C149.122 175.325 156.401 187.586 179.951 180.37C179.951 180.37 180.34 174.433 175.957 168.143C175.957 168.143 179.681 172.328 184.35 180.03C184.35 180.03 186.524 158.982 168.178 154.982C160.883 153.392 150.65 155.812 136.334 166.38C136.334 166.38 131.64 157.513 130.054 159.07C128.467 160.627 133.521 168.791 133.521 168.791C133.521 168.791 126.242 167.89 125.339 169.54C124.562 170.96 131.518 171.515 131.518 171.515C131.518 171.515 121.565 176.768 125.499 188.624C129.107 199.501 136.522 210.507 139.317 209.604Z" fill="#263238"/>
<path d="M133.398 171.008C127.13 171.905 122.334 177.448 122.538 183.818C122.651 187.352 124.178 190.908 125.856 193.965C127.693 197.311 130.11 200.105 132.711 202.871C132.855 203.023 133.07 202.772 132.923 202.622C130.541 200.172 128.681 197.153 127.167 194.097C125.743 191.223 124.356 188.006 123.927 184.804C123.077 178.451 127.305 172.769 133.469 171.358C133.667 171.313 133.598 170.98 133.398 171.008Z" fill="#263238"/>
<path d="M153.831 154.109C149.912 155.694 146.182 158.011 142.817 160.557C139.595 162.995 136.505 165.714 134.264 169.108C134.15 169.28 134.366 169.479 134.514 169.32C139.761 163.692 146.596 159.434 153.478 156.069C159.916 152.922 167.944 151.491 174.098 156.083C174.199 156.158 174.321 156.018 174.225 155.933C168.577 150.974 160.405 151.451 153.831 154.109Z" fill="#263238"/>
<path d="M142.771 204.548C142.771 204.548 135.411 194.358 130.77 196.995C126.129 199.632 131.768 214.477 137.29 216.437C142.812 218.397 144.731 213.328 144.731 213.328L142.771 204.548Z" fill="#EB9481"/>
<path d="M132.492 201.21C132.404 201.204 132.388 201.327 132.466 201.357C136.34 202.858 138.419 206.394 139.893 210.071C138.727 208.665 137.156 207.908 135.266 209.297C135.167 209.37 135.266 209.526 135.374 209.501C136.947 209.14 138.089 209.396 139.173 210.642C139.94 211.525 140.473 212.646 141.029 213.67C141.214 214.011 141.833 213.818 141.696 213.424C141.686 213.396 141.674 213.365 141.663 213.336C141.689 208.432 137.772 201.626 132.492 201.21Z" fill="#263238"/>
<path d="M167.713 196.804C167.682 196.727 167.565 196.934 167.584 197.02C168.026 199.122 168.178 201.605 166.389 202.646C166.333 202.679 166.359 202.784 166.428 202.761C168.705 202.02 168.469 198.726 167.713 196.804Z" fill="#263238"/>
<path d="M165.433 194.931C161.986 195.276 162.929 202.145 166.123 201.826C169.266 201.51 168.322 194.642 165.433 194.931Z" fill="#263238"/>
<path d="M179.824 194.322C179.829 194.238 180.004 194.399 180.013 194.487C180.238 196.624 180.855 199.034 182.877 199.476C182.94 199.49 182.949 199.598 182.876 199.597C180.482 199.589 179.694 196.382 179.824 194.322Z" fill="#263238"/>
<path d="M181.419 191.839C184.805 191.109 186.015 197.936 182.878 198.612C179.791 199.278 178.58 192.45 181.419 191.839Z" fill="#263238"/>
<path d="M162.211 192.977C163.115 192.613 163.887 192.126 164.743 191.675C165.709 191.165 166.531 190.858 167.072 189.855C167.362 189.316 167.092 188.459 166.597 188.128C165.441 187.357 164.103 187.688 162.915 188.255C161.626 188.87 160.79 189.674 160.181 190.963C159.589 192.212 161.02 193.457 162.211 192.977Z" fill="#263238"/>
<path d="M183.077 188.076C182.103 188.052 181.21 187.867 180.25 187.743C179.166 187.603 178.289 187.604 177.432 186.853C176.971 186.451 176.924 185.554 177.272 185.07C178.084 183.943 179.454 183.785 180.765 183.9C182.188 184.025 183.252 184.485 184.275 185.478C185.265 186.441 184.361 188.109 183.077 188.076Z" fill="#263238"/>
<path d="M168.108 215.729C168.686 216.157 169.289 216.773 170.07 216.732C170.819 216.692 171.642 216.239 172.284 215.882C172.347 215.847 172.426 215.908 172.391 215.978C171.951 216.871 170.859 217.542 169.849 217.504C168.863 217.468 168.272 216.701 167.917 215.852C167.867 215.734 168.024 215.667 168.108 215.729Z" fill="#263238"/>
<path d="M169.47 209.051C170.915 210.734 172.804 211.503 174.748 211.61C175.617 211.664 176.51 211.57 177.37 211.371C177.541 211.344 177.71 211.301 177.86 211.246C178.013 211.206 178.15 211.168 178.317 211.11C178.56 211.04 178.669 210.816 178.678 210.575L178.675 210.559C178.663 210.481 178.653 210.419 178.625 210.344C178.625 210.344 178.625 210.344 178.623 210.328L178.594 210.142C178.413 208.498 177.913 206.028 177.913 206.028C178.552 206.246 181.793 207.2 181.627 206.35C180.231 199.323 178.678 191.508 175.804 184.81C175.721 184.584 175.371 184.687 175.423 184.917C176.498 191.724 178.762 198.296 179.95 205.117C178.925 204.881 177.242 204.414 176.388 204.549C176.165 204.648 177.442 209.305 177.464 210.05C177.464 210.05 177.469 210.081 177.461 210.13C174.757 210.86 172.568 210.313 169.642 208.832C169.468 208.733 169.319 208.899 169.47 209.051Z" fill="#263238"/>
<path d="M176.291 210.674C176.291 210.674 175.107 212.833 173.216 213.814C172.519 214.177 171.744 214.39 170.887 214.283C169.126 214.07 168.87 212.517 168.999 211.139C169.101 210.007 169.48 208.992 169.48 208.992C169.48 208.992 172.279 210.974 176.291 210.674Z" fill="#263238"/>
<path d="M173.216 213.814C172.519 214.177 171.744 214.39 170.887 214.283C169.126 214.07 168.87 212.517 168.999 211.139C170.845 211.076 172.818 212.065 173.216 213.814Z" fill="#FF9ABB"/>
<path d="M259.88 95.5212C259.984 95.4741 260.144 95.4222 260.361 95.3656C260.588 95.2996 260.814 95.2666 261.04 95.2666C261.436 95.2666 261.766 95.3279 262.03 95.4505C262.295 95.5637 262.455 95.7334 262.511 95.9597C262.615 96.3464 262.709 96.7095 262.794 97.049C262.889 97.379 262.978 97.6997 263.063 98.0109C263.148 98.3127 263.228 98.6144 263.304 98.9162C263.388 99.218 263.469 99.5339 263.544 99.864H263.615C263.7 99.2887 263.775 98.7418 263.841 98.2231C263.907 97.695 263.968 97.181 264.025 96.6812C264.082 96.1719 264.138 95.6721 264.195 95.1817C264.251 94.6819 264.308 94.1774 264.365 93.6681C264.713 93.4701 265.086 93.3711 265.482 93.3711C265.831 93.3711 266.133 93.4465 266.387 93.5974C266.642 93.7483 266.769 94.0029 266.769 94.3613C266.769 94.5687 266.746 94.8658 266.699 95.2525C266.661 95.6297 266.604 96.054 266.529 96.5256C266.463 96.9971 266.383 97.4922 266.288 98.0109C266.194 98.5296 266.095 99.0247 265.991 99.4962C265.888 99.9677 265.779 100.397 265.666 100.783C265.562 101.161 265.463 101.453 265.369 101.661C265.227 101.793 264.996 101.901 264.676 101.986C264.355 102.071 264.025 102.113 263.686 102.113C263.242 102.113 262.865 102.057 262.554 101.943C262.252 101.821 262.068 101.651 262.002 101.434C261.88 101.057 261.748 100.609 261.606 100.09C261.465 99.5716 261.314 99.0011 261.153 98.3787C261.021 98.9917 260.885 99.5905 260.743 100.175C260.602 100.76 260.474 101.255 260.361 101.661C260.22 101.793 260.008 101.901 259.725 101.986C259.442 102.071 259.131 102.113 258.791 102.113C258.367 102.113 257.98 102.057 257.631 101.943C257.292 101.821 257.07 101.651 256.966 101.434C256.881 101.264 256.787 101.015 256.683 100.684C256.589 100.345 256.49 99.963 256.386 99.5386C256.283 99.1048 256.174 98.638 256.061 98.1382C255.957 97.6384 255.858 97.1386 255.764 96.6387C255.679 96.1389 255.599 95.6533 255.523 95.1817C255.448 94.7008 255.391 94.2622 255.354 93.8662C255.486 93.7436 255.67 93.6304 255.905 93.5267C256.141 93.4229 256.396 93.3711 256.669 93.3711C257.028 93.3711 257.32 93.4512 257.546 93.6115C257.782 93.7624 257.928 94.0218 257.985 94.3896C258.136 95.3515 258.258 96.1531 258.353 96.7943C258.456 97.4356 258.536 97.9637 258.593 98.3787C258.659 98.7842 258.706 99.1001 258.734 99.3264C258.763 99.5528 258.791 99.732 258.819 99.864H258.89C258.975 99.4868 259.055 99.1378 259.131 98.8172C259.206 98.4966 259.281 98.1759 259.357 97.8553C259.442 97.5252 259.527 97.1763 259.612 96.8085C259.696 96.4313 259.786 96.0022 259.88 95.5212ZM274.737 101.986C274.643 102.014 274.492 102.042 274.285 102.071C274.087 102.099 273.879 102.113 273.662 102.113C273.455 102.113 273.266 102.099 273.096 102.071C272.936 102.042 272.799 101.986 272.686 101.901C272.573 101.816 272.483 101.703 272.417 101.561C272.361 101.411 272.333 101.217 272.333 100.982V97.8411C272.333 97.4545 272.234 97.1857 272.036 97.0348C271.847 96.8745 271.611 96.7943 271.328 96.7943C271.14 96.7943 270.96 96.8179 270.791 96.8651C270.621 96.9122 270.484 96.9688 270.38 97.0348V101.986C270.286 102.014 270.135 102.042 269.928 102.071C269.73 102.099 269.522 102.113 269.305 102.113C269.098 102.113 268.909 102.099 268.74 102.071C268.579 102.042 268.442 101.986 268.329 101.901C268.216 101.816 268.127 101.703 268.061 101.561C268.004 101.411 267.976 101.217 267.976 100.982V92.7769C268.079 92.7581 268.23 92.7345 268.428 92.7062C268.636 92.6685 268.843 92.6496 269.051 92.6496C269.258 92.6496 269.442 92.6638 269.602 92.6921C269.772 92.7204 269.914 92.7769 270.027 92.8618C270.14 92.9467 270.225 93.0646 270.281 93.2155C270.347 93.3569 270.38 93.5455 270.38 93.7813V95.1676C270.503 95.1204 270.687 95.0686 270.932 95.012C271.187 94.946 271.465 94.913 271.767 94.913C272.7 94.913 273.427 95.1487 273.945 95.6202C274.473 96.0823 274.737 96.7755 274.737 97.6997V101.986ZM279.164 100.472C279.325 100.472 279.499 100.458 279.688 100.43C279.886 100.392 280.032 100.345 280.126 100.288V99.1567L279.108 99.2416C278.844 99.2604 278.627 99.317 278.457 99.4113C278.287 99.5056 278.203 99.6471 278.203 99.8357C278.203 100.024 278.273 100.18 278.415 100.303C278.566 100.416 278.816 100.472 279.164 100.472ZM279.051 94.913C279.561 94.913 280.023 94.9648 280.438 95.0686C280.862 95.1723 281.22 95.3326 281.513 95.5495C281.814 95.757 282.045 96.0258 282.206 96.3558C282.366 96.6765 282.446 97.0584 282.446 97.5016V100.67C282.446 100.915 282.376 101.118 282.234 101.279C282.102 101.429 281.942 101.561 281.753 101.675C281.14 102.042 280.277 102.226 279.164 102.226C278.665 102.226 278.212 102.179 277.806 102.085C277.41 101.991 277.066 101.849 276.774 101.661C276.491 101.472 276.269 101.231 276.109 100.939C275.958 100.647 275.883 100.307 275.883 99.9206C275.883 99.2699 276.076 98.77 276.463 98.4211C276.849 98.0722 277.448 97.8553 278.259 97.7704L280.112 97.5724V97.4733C280.112 97.1999 279.99 97.0065 279.744 96.8934C279.509 96.7708 279.164 96.7095 278.712 96.7095C278.353 96.7095 278.004 96.7472 277.665 96.8226C277.325 96.8981 277.019 96.9924 276.746 97.1056C276.623 97.0207 276.519 96.8934 276.434 96.7236C276.349 96.5444 276.307 96.3605 276.307 96.1719C276.307 95.9267 276.364 95.7334 276.477 95.592C276.599 95.4411 276.783 95.3138 277.028 95.21C277.302 95.1063 277.623 95.0308 277.99 94.9837C278.368 94.9365 278.721 94.913 279.051 94.913ZM286.321 99.6377C286.321 99.8828 286.397 100.057 286.548 100.161C286.708 100.265 286.93 100.317 287.213 100.317C287.354 100.317 287.5 100.307 287.651 100.288C287.802 100.26 287.934 100.227 288.047 100.189C288.132 100.293 288.203 100.411 288.259 100.543C288.325 100.666 288.358 100.816 288.358 100.996C288.358 101.354 288.222 101.646 287.948 101.873C287.684 102.099 287.213 102.212 286.534 102.212C285.704 102.212 285.062 102.024 284.61 101.646C284.167 101.269 283.945 100.656 283.945 99.8074V93.753C284.049 93.7247 284.195 93.6964 284.383 93.6681C284.582 93.6304 284.789 93.6115 285.006 93.6115C285.421 93.6115 285.741 93.687 285.968 93.8379C286.204 93.9793 286.321 94.2858 286.321 94.7574V95.6627H288.175C288.231 95.7664 288.283 95.8984 288.33 96.0588C288.387 96.2097 288.415 96.3794 288.415 96.568C288.415 96.8981 288.34 97.1386 288.189 97.2894C288.047 97.4309 287.854 97.5016 287.609 97.5016H286.321V99.6377ZM295.38 99.9489C295.38 100.666 295.112 101.227 294.574 101.632C294.036 102.038 293.244 102.24 292.197 102.24C291.801 102.24 291.434 102.212 291.094 102.156C290.755 102.099 290.462 102.014 290.217 101.901C289.981 101.778 289.793 101.627 289.651 101.448C289.519 101.269 289.453 101.057 289.453 100.812C289.453 100.585 289.5 100.397 289.595 100.246C289.689 100.086 289.802 99.9536 289.934 99.8498C290.208 100.001 290.519 100.137 290.868 100.26C291.226 100.373 291.636 100.43 292.098 100.43C292.391 100.43 292.612 100.387 292.763 100.303C292.924 100.218 293.004 100.104 293.004 99.963C293.004 99.831 292.947 99.7272 292.834 99.6518C292.721 99.5764 292.532 99.5151 292.268 99.4679L291.844 99.383C291.023 99.2227 290.41 98.9728 290.005 98.6333C289.609 98.2844 289.411 97.7893 289.411 97.148C289.411 96.7991 289.486 96.4831 289.637 96.2002C289.788 95.9173 290 95.6815 290.274 95.4929C290.547 95.3043 290.872 95.1581 291.25 95.0544C291.636 94.9507 292.061 94.8988 292.523 94.8988C292.872 94.8988 293.197 94.9271 293.499 94.9837C293.81 95.0308 294.079 95.1063 294.305 95.21C294.532 95.3138 294.711 95.4505 294.843 95.6202C294.975 95.7806 295.041 95.9739 295.041 96.2002C295.041 96.4171 294.998 96.6057 294.913 96.7661C294.838 96.9169 294.739 97.0443 294.616 97.148C294.541 97.1008 294.428 97.0537 294.277 97.0065C294.126 96.9499 293.961 96.9028 293.782 96.8651C293.603 96.8179 293.419 96.7802 293.23 96.7519C293.051 96.7236 292.886 96.7095 292.735 96.7095C292.424 96.7095 292.183 96.7472 292.014 96.8226C291.844 96.8887 291.759 96.9971 291.759 97.148C291.759 97.2517 291.806 97.3366 291.9 97.4026C291.995 97.4686 292.174 97.5299 292.438 97.5865L292.876 97.6855C293.782 97.893 294.423 98.1806 294.8 98.5484C295.187 98.9068 295.38 99.3736 295.38 99.9489ZM298.552 93.6823C298.712 93.588 298.952 93.4984 299.273 93.4135C299.603 93.3286 299.933 93.2862 300.263 93.2862C300.735 93.2862 301.15 93.3569 301.508 93.4984C301.876 93.6304 302.112 93.8426 302.215 94.1349C302.385 94.6253 302.569 95.1959 302.767 95.8466C302.965 96.4973 303.163 97.1716 303.361 97.8694C303.559 98.5579 303.753 99.2416 303.941 99.9206C304.13 100.59 304.295 101.184 304.436 101.703C304.323 101.835 304.153 101.939 303.927 102.014C303.701 102.099 303.432 102.141 303.121 102.141C302.894 102.141 302.701 102.123 302.541 102.085C302.39 102.047 302.263 101.991 302.159 101.915C302.064 101.84 301.984 101.741 301.918 101.618C301.862 101.495 301.81 101.354 301.763 101.194L301.508 100.218H298.948C298.872 100.501 298.797 100.793 298.721 101.095C298.646 101.396 298.57 101.689 298.495 101.972C298.363 102.019 298.222 102.057 298.071 102.085C297.929 102.123 297.755 102.141 297.547 102.141C297.066 102.141 296.708 102.061 296.472 101.901C296.246 101.731 296.133 101.5 296.133 101.208C296.133 101.076 296.152 100.944 296.189 100.812C296.227 100.68 296.269 100.524 296.317 100.345C296.383 100.09 296.472 99.7744 296.585 99.3972C296.708 99.02 296.84 98.6144 296.981 98.1806C297.123 97.7374 297.274 97.2847 297.434 96.8226C297.594 96.3605 297.745 95.9267 297.887 95.5212C298.028 95.1063 298.156 94.7385 298.269 94.4179C298.391 94.0972 298.486 93.852 298.552 93.6823ZM300.249 95.5071C300.117 95.9032 299.966 96.3464 299.796 96.8368C299.636 97.3177 299.49 97.8081 299.358 98.3079H301.112C300.98 97.7987 300.843 97.3036 300.702 96.8226C300.57 96.3322 300.447 95.8937 300.334 95.5071H300.249ZM308.566 94.913C309.132 94.913 309.655 94.9884 310.136 95.1393C310.627 95.2807 311.046 95.5024 311.395 95.8041C311.744 96.1059 312.018 96.4879 312.216 96.9499C312.414 97.4026 312.513 97.9449 312.513 98.5767C312.513 99.1803 312.428 99.7084 312.258 100.161C312.088 100.614 311.848 100.996 311.537 101.307C311.226 101.609 310.848 101.835 310.405 101.986C309.971 102.137 309.486 102.212 308.948 102.212C308.543 102.212 308.165 102.151 307.816 102.028V104.376C307.722 104.405 307.571 104.433 307.364 104.461C307.156 104.499 306.944 104.518 306.727 104.518C306.52 104.518 306.331 104.504 306.161 104.476C306.001 104.447 305.864 104.391 305.751 104.306C305.638 104.221 305.553 104.103 305.497 103.952C305.44 103.811 305.412 103.622 305.412 103.386V96.5963C305.412 96.3417 305.464 96.1342 305.567 95.9739C305.68 95.8136 305.831 95.6674 306.02 95.5354C306.312 95.3468 306.675 95.1959 307.109 95.0827C307.543 94.9695 308.029 94.913 308.566 94.913ZM308.594 100.317C309.566 100.317 310.051 99.7367 310.051 98.5767C310.051 97.9732 309.929 97.5252 309.684 97.2329C309.448 96.9405 309.104 96.7943 308.651 96.7943C308.472 96.7943 308.312 96.8179 308.17 96.8651C308.029 96.9028 307.906 96.9499 307.802 97.0065V100.119C307.915 100.175 308.038 100.222 308.17 100.26C308.302 100.298 308.444 100.317 308.594 100.317ZM316.841 94.913C317.407 94.913 317.93 94.9884 318.411 95.1393C318.901 95.2807 319.321 95.5024 319.67 95.8041C320.019 96.1059 320.292 96.4879 320.491 96.9499C320.689 97.4026 320.788 97.9449 320.788 98.5767C320.788 99.1803 320.703 99.7084 320.533 100.161C320.363 100.614 320.123 100.996 319.812 101.307C319.5 101.609 319.123 101.835 318.68 101.986C318.246 102.137 317.76 102.212 317.223 102.212C316.817 102.212 316.44 102.151 316.091 102.028V104.376C315.997 104.405 315.846 104.433 315.639 104.461C315.431 104.499 315.219 104.518 315.002 104.518C314.794 104.518 314.606 104.504 314.436 104.476C314.276 104.447 314.139 104.391 314.026 104.306C313.913 104.221 313.828 104.103 313.771 103.952C313.715 103.811 313.686 103.622 313.686 103.386V96.5963C313.686 96.3417 313.738 96.1342 313.842 95.9739C313.955 95.8136 314.106 95.6674 314.295 95.5354C314.587 95.3468 314.95 95.1959 315.384 95.0827C315.818 94.9695 316.303 94.913 316.841 94.913ZM316.869 100.317C317.841 100.317 318.326 99.7367 318.326 98.5767C318.326 97.9732 318.204 97.5252 317.958 97.2329C317.723 96.9405 317.378 96.7943 316.926 96.7943C316.747 96.7943 316.586 96.8179 316.445 96.8651C316.303 96.9028 316.181 96.9499 316.077 97.0065V100.119C316.19 100.175 316.313 100.222 316.445 100.26C316.577 100.298 316.718 100.317 316.869 100.317Z" fill="black"/>
</svg>
