<svg width="325" height="446" viewBox="0 0 325 446" fill="none" xmlns="http://www.w3.org/2000/svg">
<g clip-path="url(#clip0_25_1220)">
<path d="M211.744 9.40802C201.135 9.40802 192.534 18.009 192.534 28.618C192.534 39.227 201.135 47.828 211.744 47.828C222.353 47.828 230.954 39.228 230.954 28.618C230.954 18.008 222.354 9.40802 211.744 9.40802ZM211.744 38.223C206.439 38.223 202.139 33.923 202.139 28.618C202.139 23.313 206.439 19.013 211.744 19.013C217.049 19.013 221.349 23.313 221.349 28.618C221.349 33.923 217.049 38.223 211.744 38.223Z" fill="#4648C8"/>
<path d="M110.38 335.786C110.38 340.801 114.483 344.904 119.498 344.904H303.99C309.005 344.904 313.108 340.801 313.108 335.786V49.928C313.108 44.913 309.004 40.81 303.99 40.81H119.498C114.483 40.81 110.38 44.913 110.38 49.928V335.786Z" fill="#CCCCFD"/>
<path d="M299.264 55.909H124.225V329.573H299.264V55.909Z" fill="#F2F2F2"/>
<path d="M141.07 44.778C136.917 44.778 133.538 41.399 133.538 37.246C133.538 33.093 136.917 29.714 141.07 29.714C145.223 29.714 148.602 33.093 148.602 37.246C148.602 41.399 145.224 44.778 141.07 44.778ZM141.07 32.508C138.458 32.508 136.332 34.633 136.332 37.246C136.332 39.858 138.458 41.984 141.07 41.984C143.682 41.984 145.808 39.859 145.808 37.246C145.809 34.634 143.683 32.508 141.07 32.508Z" fill="#4648C8"/>
<path d="M151.31 40.283H130.832V46.368H151.31V40.283Z" fill="#4648C8"/>
<path d="M280.486 44.778C276.333 44.778 272.954 41.399 272.954 37.246C272.954 33.093 276.333 29.714 280.486 29.714C284.638 29.714 288.017 33.093 288.017 37.246C288.018 41.399 284.639 44.778 280.486 44.778ZM280.486 32.508C277.874 32.508 275.748 34.633 275.748 37.246C275.748 39.858 277.874 41.984 280.486 41.984C283.098 41.984 285.223 39.859 285.223 37.246C285.224 34.634 283.099 32.508 280.486 32.508Z" fill="#4648C8"/>
<path d="M290.724 40.283H270.247V46.368H290.724V40.283Z" fill="#4648C8"/>
<path d="M140.139 -18V35.885C140.139 36.399 140.556 36.816 141.07 36.816C141.585 36.816 142.002 36.399 142.002 35.885V-18H140.139Z" fill="#F2F2F2"/>
<path d="M279.555 -18V35.885C279.555 36.399 279.972 36.816 280.487 36.816C281.001 36.816 281.418 36.399 281.418 35.885V-18H279.555Z" fill="#F2F2F2"/>
<path d="M174.921 81.3368H172.847C172.724 80.74 172.509 80.2158 172.203 79.7641C171.901 79.3124 171.533 78.9332 171.098 78.6265C170.669 78.3142 170.192 78.0799 169.668 77.9238C169.144 77.7677 168.597 77.6896 168.028 77.6896C166.991 77.6896 166.051 77.9517 165.209 78.4759C164.373 79.0001 163.706 79.7725 163.21 80.793C162.719 81.8136 162.474 83.0655 162.474 84.549C162.474 86.0324 162.719 87.2843 163.21 88.3049C163.706 89.3254 164.373 90.0978 165.209 90.622C166.051 91.1462 166.991 91.4083 168.028 91.4083C168.597 91.4083 169.144 91.3303 169.668 91.1741C170.192 91.018 170.669 90.7865 171.098 90.4798C171.533 90.1675 171.901 89.7855 172.203 89.3338C172.509 88.8765 172.724 88.3523 172.847 87.7611H174.921C174.765 88.6367 174.481 89.4202 174.068 90.1117C173.655 90.8033 173.142 91.3916 172.529 91.8768C171.915 92.3564 171.227 92.7216 170.463 92.9726C169.704 93.2236 168.893 93.349 168.028 93.349C166.567 93.349 165.268 92.9921 164.13 92.2783C162.993 91.5645 162.098 90.5495 161.445 89.2334C160.793 87.9173 160.466 86.3558 160.466 84.549C160.466 82.7421 160.793 81.1806 161.445 79.8645C162.098 78.5484 162.993 77.5334 164.13 76.8196C165.268 76.1058 166.567 75.7489 168.028 75.7489C168.893 75.7489 169.704 75.8744 170.463 76.1253C171.227 76.3763 171.915 76.7443 172.529 77.2295C173.142 77.7091 173.655 78.2947 174.068 78.9862C174.481 79.6721 174.765 80.4556 174.921 81.3368ZM178.274 93.1148V75.9831H180.348V83.6121H189.483V75.9831H191.557V93.1148H189.483V85.4524H180.348V93.1148H178.274ZM195.711 93.1148V75.9831H206.05V77.8234H197.785V83.6121H205.514V85.4524H197.785V91.2745H206.184V93.1148H195.711ZM223.575 81.3368H221.5C221.377 80.74 221.163 80.2158 220.856 79.7641C220.555 79.3124 220.187 78.9332 219.752 78.6265C219.322 78.3142 218.846 78.0799 218.321 77.9238C217.797 77.7677 217.251 77.6896 216.682 77.6896C215.645 77.6896 214.705 77.9517 213.863 78.4759C213.026 79.0001 212.36 79.7725 211.864 80.793C211.373 81.8136 211.127 83.0655 211.127 84.549C211.127 86.0324 211.373 87.2843 211.864 88.3049C212.36 89.3254 213.026 90.0978 213.863 90.622C214.705 91.1462 215.645 91.4083 216.682 91.4083C217.251 91.4083 217.797 91.3303 218.321 91.1741C218.846 91.018 219.322 90.7865 219.752 90.4798C220.187 90.1675 220.555 89.7855 220.856 89.3338C221.163 88.8765 221.377 88.3523 221.5 87.7611H223.575C223.419 88.6367 223.134 89.4202 222.721 90.1117C222.309 90.8033 221.796 91.3916 221.182 91.8768C220.569 92.3564 219.88 92.7216 219.116 92.9726C218.358 93.2236 217.546 93.349 216.682 93.349C215.221 93.349 213.921 92.9921 212.784 92.2783C211.646 91.5645 210.751 90.5495 210.099 89.2334C209.446 87.9173 209.12 86.3558 209.12 84.549C209.12 82.7421 209.446 81.1806 210.099 79.8645C210.751 78.5484 211.646 77.5334 212.784 76.8196C213.921 76.1058 215.221 75.7489 216.682 75.7489C217.546 75.7489 218.358 75.8744 219.116 76.1253C219.88 76.3763 220.569 76.7443 221.182 77.2295C221.796 77.7091 222.309 78.2947 222.721 78.9862C223.134 79.6721 223.419 80.4556 223.575 81.3368ZM226.927 93.1148V75.9831H229.002V84.482H229.202L236.898 75.9831H239.609L232.415 83.7124L239.609 93.1148H237.099L231.143 85.1512L229.002 87.5604V93.1148H226.927ZM248.919 93.1148V75.9831H250.993V91.2745H258.957V93.1148H248.919ZM264.244 75.9831V93.1148H262.169V75.9831H264.244ZM277.772 80.266C277.672 79.4184 277.265 78.7603 276.551 78.2919C275.837 77.8234 274.961 77.5892 273.924 77.5892C273.166 77.5892 272.502 77.7119 271.933 77.9573C271.37 78.2026 270.93 78.54 270.612 78.9694C270.299 79.3988 270.143 79.8868 270.143 80.4333C270.143 80.8906 270.252 81.2838 270.469 81.6128C270.693 81.9363 270.977 82.2067 271.323 82.4242C271.668 82.6361 272.031 82.8118 272.41 82.9512C272.789 83.0851 273.138 83.1938 273.456 83.2775L275.196 83.7459C275.642 83.863 276.138 84.0247 276.685 84.2311C277.237 84.4374 277.764 84.719 278.266 85.076C278.773 85.4273 279.191 85.879 279.52 86.4311C279.849 86.9832 280.014 87.6608 280.014 88.4638C280.014 89.3896 279.771 90.2261 279.286 90.9733C278.807 91.7206 278.104 92.3145 277.178 92.7551C276.258 93.1957 275.14 93.416 273.824 93.416C272.597 93.416 271.535 93.218 270.637 92.822C269.744 92.4261 269.042 91.874 268.529 91.1657C268.021 90.4575 267.734 89.6349 267.667 88.698H269.809C269.864 89.3449 270.082 89.8803 270.461 90.3041C270.846 90.7224 271.331 91.0347 271.917 91.241C272.508 91.4418 273.143 91.5422 273.824 91.5422C274.616 91.5422 275.327 91.4139 275.957 91.1574C276.587 90.8953 277.086 90.5328 277.454 90.0699C277.822 89.6015 278.006 89.0549 278.006 88.4304C278.006 87.8615 277.847 87.3987 277.53 87.0417C277.212 86.6848 276.793 86.3948 276.275 86.1718C275.756 85.9487 275.196 85.7535 274.593 85.5862L272.485 84.9839C271.147 84.5991 270.087 84.0498 269.307 83.336C268.526 82.6222 268.136 81.6881 268.136 80.5337C268.136 79.5745 268.395 78.738 268.914 78.0242C269.438 77.3048 270.14 76.7471 271.022 76.3512C271.908 75.9496 272.898 75.7489 273.991 75.7489C275.095 75.7489 276.077 75.9468 276.936 76.3428C277.794 76.7332 278.475 77.2685 278.977 77.9489C279.484 78.6293 279.752 79.4016 279.78 80.266H277.772ZM282.488 77.8234V75.9831H295.337V77.8234H289.95V93.1148H287.875V77.8234H282.488Z" fill="#36368C"/>
<path d="M279.71 103.474H252.555V130.628H279.71V103.474Z" stroke="#36368C" stroke-width="3" stroke-miterlimit="10"/>
<path d="M223.219 107.343H153.598V110.469H223.219V107.343Z" fill="#8686BA"/>
<path d="M247.275 112.974H153.598V116.1H247.275V112.974Z" fill="#D7D7E8"/>
<path d="M247.275 118.605H153.598V121.731H247.275V118.605Z" fill="#D7D7E8"/>
<path d="M247.275 124.236H153.598V127.362H247.275V124.236Z" fill="#D7D7E8"/>
<path d="M257.826 116.718L260.234 121.975L274.984 112.605" stroke="#F53A33" stroke-width="3" stroke-miterlimit="10"/>
<path d="M279.71 154.724H252.555V181.878H279.71V154.724Z" stroke="#36368C" stroke-width="3" stroke-miterlimit="10"/>
<path d="M223.219 158.593H153.598V161.719H223.219V158.593Z" fill="#8686BA"/>
<path d="M247.275 164.224H153.598V167.35H247.275V164.224Z" fill="#D7D7E8"/>
<path d="M247.275 169.855H153.598V172.981H247.275V169.855Z" fill="#D7D7E8"/>
<path d="M247.275 175.486H153.598V178.612H247.275V175.486Z" fill="#D7D7E8"/>
<path d="M257.826 167.969L260.234 173.225L274.984 163.855" stroke="#F53A33" stroke-width="3" stroke-miterlimit="10"/>
<path d="M279.71 209.699H252.555V236.853H279.71V209.699Z" stroke="#36368C" stroke-width="3" stroke-miterlimit="10"/>
<path d="M223.219 213.568H153.598V216.694H223.219V213.568Z" fill="#8686BA"/>
<path d="M247.275 219.199H153.598V222.326H247.275V219.199Z" fill="#D7D7E8"/>
<path d="M247.275 224.83H153.598V227.956H247.275V224.83Z" fill="#D7D7E8"/>
<path d="M247.275 230.461H153.598V233.587H247.275V230.461Z" fill="#D7D7E8"/>
<path d="M257.826 222.944L260.234 228.2L274.984 218.83" stroke="#F53A33" stroke-width="3" stroke-miterlimit="10"/>
<path d="M279.71 264.675H252.555V291.829H279.71V264.675Z" stroke="#36368C" stroke-width="3" stroke-miterlimit="10"/>
<path d="M223.219 268.545H153.598V271.67H223.219V268.545Z" fill="#8686BA"/>
<path d="M247.275 274.175H153.598V277.302H247.275V274.175Z" fill="#D7D7E8"/>
<path d="M247.275 279.806H153.598V282.932H247.275V279.806Z" fill="#D7D7E8"/>
<path d="M247.275 285.436H153.598V288.562H247.275V285.436Z" fill="#D7D7E8"/>
<path d="M257.826 277.92L260.234 283.175L274.984 273.806" stroke="#F53A33" stroke-width="3" stroke-miterlimit="10"/>
<path d="M168.551 40.81V64.893C168.551 65.922 169.385 66.756 170.414 66.756H253.074C254.103 66.756 254.937 65.922 254.937 64.893V40.81H168.551Z" fill="#4648C8"/>
<path d="M253.074 60.47H170.414C169.385 60.47 168.551 59.636 168.551 58.607V64.894C168.551 65.923 169.385 66.757 170.414 66.757H253.074C254.103 66.757 254.937 65.923 254.937 64.894V58.607C254.938 59.635 254.103 60.47 253.074 60.47Z" fill="#3532AF"/>
<path opacity="0.3" d="M313.108 366.099C313.108 369.305 267.725 371.905 211.744 371.905C155.762 371.905 110.38 369.305 110.38 366.099C110.38 362.893 155.762 360.293 211.744 360.293C267.726 360.293 313.108 362.893 313.108 366.099Z" fill="#7779FB"/>
<path opacity="0.3" d="M130.296 385.819C130.296 389.405 107.767 392.311 79.976 392.311C52.185 392.311 29.656 389.405 29.656 385.819C29.656 382.235 52.185 379.329 79.976 379.329C107.768 379.329 130.296 382.235 130.296 385.819Z" fill="#7779FB"/>
<path d="M119.442 183.612C119.442 183.612 112.885 196.93 102.232 202.917C102.232 202.917 86.8972 203.951 75.7812 196.519C75.7812 196.519 64.7292 203.018 82.3192 215.792C82.3192 215.792 94.1521 218.148 114.411 214.263C114.411 214.263 124.065 200.655 128.812 188.625L119.442 183.612Z" fill="#6560A4"/>
<path d="M128.813 188.626C128.261 190.024 127.642 191.44 126.981 192.856L117.153 187.594C118.644 185.232 119.443 183.611 119.443 183.611L128.813 188.626Z" fill="#D1ECFD"/>
<path d="M166.495 151.875L31.5483 188.299L39.1141 216.329L174.061 179.905L166.495 151.875Z" fill="#EA2E49"/>
<path d="M171.135 169.107L48.424 202.229L48.425 202.23L43.933 203.442L36.196 205.531L39.108 216.319L174.047 179.897L171.135 169.107Z" fill="#BB253A"/>
<path d="M32.4501 218.118C24.7101 220.208 16.7411 215.625 14.6521 207.886C12.5631 200.146 17.1441 192.177 24.8841 190.088L36.7201 186.893L44.2861 214.922L32.4501 218.118Z" fill="#FF6B86"/>
<path d="M32.0971 206.638C25.1881 208.503 18.1091 205.044 15.1801 198.777C14.0701 201.582 13.8051 204.749 14.6521 207.886C16.7411 215.625 24.7101 220.208 32.4501 218.118L44.2861 214.923L41.3731 204.133L32.0971 206.638Z" fill="#E04769"/>
<path d="M41.2049 185.688L31.5354 188.296L39.0953 216.326L48.7648 213.718L41.2049 185.688Z" fill="#EAEAEA"/>
<path d="M43.933 203.442L36.196 205.531L39.108 216.319L48.777 213.71L45.865 202.92L43.933 203.442Z" fill="#050505"/>
<path d="M186.667 157.385L166.482 151.868L170.265 165.882L174.047 179.898L188.715 164.971L186.667 157.385Z" fill="#F7A99F"/>
<path d="M187.768 161.463L171.074 168.88L174.047 179.898L188.715 164.971L187.768 161.463Z" fill="#FF6B86"/>
<path d="M189.317 158.109L185.517 157.07L180.321 155.649L181.266 159.153C181.787 161.08 182.638 164.233 183.158 166.16L184.103 169.664L187.88 165.821L190.641 163.01C192.575 161.044 191.979 158.837 189.317 158.109Z" fill="#EA2E49"/>
<path d="M154.679 185.125C151.123 185.417 151.322 181.698 151.322 181.698C151.015 168.299 144.816 186.367 144.816 186.367L149.223 190.918C159.323 189.925 160.285 183.612 160.285 183.612L154.679 185.125Z" fill="#FFC787"/>
<path d="M75.7141 184.449V189.381L88.3001 191.702L87.1391 184.449H75.7141Z" fill="#FFC787"/>
<path d="M95.998 168.214L100.582 177.776C100.582 177.776 99.414 178.631 97.871 179.315C97.871 179.315 93.447 174.418 95.998 168.214Z" fill="#CC9F6C"/>
<path d="M87.912 187.931C87.912 187.931 101.355 193.638 97.004 171.586C97.004 171.586 93.425 152.726 75.92 155.628C75.92 155.628 59.769 159.593 65.378 176.809C65.378 176.809 67.966 184.159 75.714 185.03L87.912 187.931Z" fill="#FFC787"/>
<path d="M60.0281 259.548C60.0281 259.548 51.6091 272.634 61.3871 287.452L54.2751 375.981H62.5731L83.3171 280.932L60.0281 259.548Z" fill="#524E87"/>
<path d="M68.7951 288.934C55.5431 282.581 59.2961 270.411 59.2961 270.411L64.6491 267.006L75.9931 274.21L83.3171 280.934L74.8401 319.772L68.7951 288.934Z" fill="#252345"/>
<path d="M73.5141 287.869L83.8541 375.981H92.4971L93.7441 268.537L60.0281 259.548C60.0281 259.548 53.2841 281.126 73.5141 287.869Z" fill="#6560A4"/>
<path d="M93.7441 268.537V272.793C87.6311 274.716 76.2121 275.779 56.8071 269.651C57.4531 263.56 60.0281 259.548 60.0281 259.548L93.7441 268.537Z" fill="black"/>
<path d="M98.519 272.018C98.519 272.018 85.185 277.194 52.748 265.36C52.748 265.36 64.281 234.294 73.29 190.285L87.394 191.703C87.394 191.703 99.949 203.072 98.571 221.946C98.571 221.946 95.636 255.377 98.519 272.018Z" fill="#6560A4"/>
<path d="M57.0242 253.073C58.1722 249.591 59.5002 245.421 60.9382 240.671L72.6852 239.319C72.6852 239.319 69.9202 252.87 57.0242 253.073Z" fill="#6560A4"/>
<path d="M98.4101 214.596L83.0581 205.087L75.7961 205.976C75.7961 205.976 80.0241 218.075 98.4361 223.606C98.5191 222.543 98.5711 221.946 98.5711 221.946C98.7611 219.348 98.6791 216.898 98.4101 214.596Z" fill="#6560A4"/>
<path d="M83.854 375.981L85.601 387.304H112.832V385.388L92.497 379.086V375.981H83.854Z" fill="#FFC787"/>
<path d="M104.272 382.77C103.28 386.545 90.284 382.903 90.284 382.903C87.298 380.714 86.23 380.099 84.429 379.702L85.601 387.305H112.832V385.389L104.272 382.77Z" fill="#1B0F5B"/>
<path d="M54.2751 375.981L52.7451 387.304H79.9771V385.388L61.9471 379.611L62.5731 375.981H54.2751Z" fill="#FFC787"/>
<path d="M58.9881 383.22C58.9881 383.22 70.1911 386.853 71.6421 382.717L79.9771 385.388V387.304H52.7451L53.6861 380.328C55.2111 380.886 57.0191 381.775 58.9881 383.22Z" fill="#1B0F5B"/>
<path d="M144.438 184.383L151.321 193.787C151.321 193.787 139.05 208.72 116.387 217.529C116.387 217.529 89.1831 221.028 77.1751 208.849C77.1751 208.849 73.1771 204.518 74.7231 198.938C74.7231 198.938 78.0171 193.016 91.4701 197.72L112.873 202.389C112.873 202.389 129.746 200.07 144.438 184.383Z" fill="#6560A4"/>
<path d="M140.6 188.144C141.888 186.983 143.171 185.737 144.439 184.383L151.322 193.787C151.322 193.787 150.145 195.218 147.851 197.454L140.6 188.144Z" fill="#F2F2F2"/>
<path d="M73.531 191.685L91.987 194.859L89.327 189.671L73.966 186.752L73.531 191.685Z" fill="black"/>
<path d="M94.4721 251.1C94.4721 251.1 87.2071 250.709 82.6681 249.541C82.6681 249.541 78.7101 263.951 87.8561 264.452C87.8561 264.452 94.0481 265.234 94.4721 251.1Z" fill="#302C6E"/>
<path d="M48.5601 203.29C52.5451 196.36 47.4501 189.033 52.6911 183.272C54.8561 180.893 58.2991 180.173 59.7281 177.078C61.2841 173.708 59.9501 169.495 61.5521 165.871C64.0611 160.19 70.5781 156.531 76.5101 155.351C79.6281 154.73 82.9801 154.697 86.0031 155.787C89.6541 157.102 91.7471 159.258 93.6551 162.333C90.2671 163.375 88.7641 164.939 87.7791 168.326C87.2711 170.072 89.0751 172.156 88.3001 173.678C87.2791 175.679 85.0361 174.849 83.8921 176.203C80.9791 179.647 81.9171 181.188 82.4091 185.349C83.0311 190.599 82.0071 190.393 79.8861 194.43C75.9201 201.977 82.8001 206.464 79.6561 213.624C78.0191 217.353 75.1571 218.593 74.1901 222.73C73.2851 226.598 74.5201 230.323 74.1791 234.374C72.8791 249.848 45.8841 251.339 37.6241 240.675C25.8891 225.525 42.0201 214.663 48.5601 203.29Z" fill="#1B0F5B"/>
<path d="M81.114 172.133C82.27 170.951 85.558 170.739 86.113 173.449L86.98 177.177C87.948 179.611 85.717 181.182 83.723 180.457C82.529 180.023 81.201 178.199 80.724 177.109C80.007 175.472 79.778 173.499 81.114 172.133Z" fill="#FFC787"/>
<path d="M183.158 166.161L184.103 169.665L187.88 165.822L190.641 163.011C191.73 161.903 192.017 160.719 191.585 159.766L182.519 163.794C182.753 164.663 182.976 165.489 183.158 166.161Z" fill="#BB253A"/>
<path opacity="0.3" d="M249.266 424.928C249.266 431.164 220.408 436.221 184.808 436.221C149.208 436.221 120.35 431.164 120.35 424.928C120.35 418.696 149.209 413.639 184.808 413.639C220.407 413.639 249.266 418.695 249.266 424.928Z" fill="#7779FB"/>
<path d="M236.122 283.491C239.332 256.594 229.918 294.25 229.918 294.25C231.629 298.702 236.184 296.693 236.184 296.693C246.947 285.476 236.122 283.491 236.122 283.491Z" fill="#FFC787"/>
<path d="M182.851 404.284C182.851 404.284 170.927 386.436 137.174 390.785C137.174 390.785 161.037 409.659 182.851 404.284Z" fill="#3532AF"/>
<path d="M184.109 404.284C184.109 404.284 196.033 386.436 229.786 390.785C229.786 390.785 205.922 409.659 184.109 404.284Z" fill="#3532AF"/>
<path d="M150.277 413.639C127.479 439.058 161.546 420.976 161.546 420.976L150.277 413.639Z" fill="#1B0F5B"/>
<path d="M216.683 413.639C239.481 439.058 205.415 420.976 205.415 420.976L216.683 413.639Z" fill="#1B0F5B"/>
<path d="M235.229 392.39C222.615 384.889 184.108 404.285 184.108 404.285H182.851C182.851 404.285 144.345 384.889 131.73 392.39C131.73 392.39 120.487 401.44 141.054 413.593C141.054 413.593 164.137 428.921 182.854 429.593L182.852 429.625C183.06 429.625 183.272 429.614 183.481 429.609C183.689 429.614 183.901 429.625 184.109 429.625L184.107 429.593C202.824 428.921 225.905 413.593 225.905 413.593C246.473 401.44 235.229 392.39 235.229 392.39Z" fill="#4648C8"/>
<path d="M170.055 344.103C170.055 344.103 135.219 381.056 145.283 392.559C145.283 392.559 150.173 401.471 176.053 371.565L170.055 344.103Z" fill="#FF6B86"/>
<path d="M154.326 391.705C158.99 389.039 165.902 383.296 176.054 371.564L173.853 361.49C173.853 361.49 164.931 383.305 154.326 391.705Z" fill="#E04769"/>
<path d="M195.954 343.663C195.954 343.663 218.615 321.529 218.903 320.666C219.191 319.803 229.543 293.059 229.543 293.059C229.543 293.059 234.143 290.472 237.307 296.799L229.254 325.843L204.606 358.278C204.606 358.278 195.147 355.732 195.954 343.663Z" fill="#FF6B86"/>
<path d="M180.936 303.194C180.936 303.194 162.835 302.325 163.355 322.049C163.355 322.049 163.778 330.531 171.602 333.844L183.444 340.656C183.444 340.656 195.717 350.789 198.012 326.403C198.012 326.403 200.124 305.592 180.936 303.194Z" fill="#FFC787"/>
<path d="M174.994 338.034C174.994 338.034 186.783 335.488 193.817 340.276L195.905 344.102H174.994V338.034Z" fill="#F2F2F2"/>
<path d="M205.653 359.016C206.611 341.772 192.96 343.449 192.96 343.449L174 343.66C174 343.66 160.349 341.982 161.307 359.225C161.307 359.225 161.585 369.041 163.462 378.865C163.462 378.865 166.096 399.46 162.265 407.844C162.265 407.844 182.422 423.918 204.695 407.633C200.863 399.249 203.497 378.653 203.497 378.653C205.375 368.831 205.653 359.016 205.653 359.016Z" fill="#FF6B86"/>
<path d="M198.46 309.745C195.722 293.953 178.454 295.626 178.454 295.626C147.292 299.375 155.703 334.323 155.703 334.323C156.527 341.228 154.701 348.783 152.331 355.188C150.293 359.803 146.476 364.686 143.957 366.924C137 373.141 148.502 378.451 153.569 379.725C161.995 381.84 170.036 378.539 178.454 378.343C183.814 378.218 194.517 374.53 192.384 367.253C191.518 364.298 188.863 361.898 187.725 355.227C183.938 326.2 193.042 323.042 193.042 323.042C200.233 319.481 198.46 309.745 198.46 309.745Z" fill="#1B0F5B"/>
<path d="M188.279 320.248C189.539 318.96 193.122 318.728 193.727 321.683L194.671 325.745C195.726 328.398 193.295 330.109 191.121 329.32C189.82 328.847 188.373 326.859 187.854 325.672C187.073 323.886 186.823 321.736 188.279 320.248Z" fill="#FFC787"/>
<path d="M197.435 318.478C195.649 301.456 186.27 296.425 186.235 296.408C182.059 295.282 178.454 295.626 178.454 295.626C174.455 296.106 171.118 297.108 168.321 298.477C191.565 296.388 193.89 322.123 193.925 322.523C195.61 321.451 196.726 320.016 197.435 318.478Z" fill="#594DF4"/>
<path d="M175.652 415.337C175.652 415.337 167.735 414.911 162.789 413.639C162.789 413.639 161.086 419.849 162.299 424.594C165.513 425.879 168.893 427.046 172.297 427.929C173.899 426.056 175.44 422.416 175.652 415.337Z" fill="#3532AF"/>
<path d="M190.136 415.337C190.358 422.731 192.028 426.373 193.705 428.167C196.968 427.373 200.223 426.309 203.343 425.111C204.83 420.313 202.999 413.638 202.999 413.638C198.053 414.911 190.136 415.337 190.136 415.337Z" fill="#3532AF"/>
</g>
<defs>
<clipPath id="clip0_25_1220">
<rect width="325" height="446" fill="white"/>
</clipPath>
</defs>
</svg>
