<svg width="413" height="448" viewBox="0 0 413 448" fill="none" xmlns="http://www.w3.org/2000/svg">
<path d="M60.4306 415.796C141.004 458.26 271.638 458.262 352.21 415.797C432.783 373.331 432.783 304.483 352.21 262.018C271.637 219.553 141.003 219.553 60.4296 262.017C-20.1434 304.482 -20.1434 373.332 60.4306 415.796Z" fill="#F5F5F5"/>
<path d="M25.8876 362.672L29.6266 364.807C30.8236 365.495 32.7636 365.493 33.9596 364.802L206.771 265.036C207.967 264.346 207.965 263.229 206.768 262.542L203.055 260.424C201.857 259.737 199.917 259.739 198.721 260.43L25.8846 360.177C24.6886 360.867 24.6906 361.984 25.8876 362.672Z" fill="#E0E0E0"/>
<path d="M312.666 390.148C292.071 401.441 258.68 401.441 238.084 390.148C217.488 378.858 217.488 360.549 238.084 349.256C258.679 337.966 292.07 337.966 312.666 349.256C333.262 360.549 333.262 378.858 312.666 390.148Z" fill="#E0E0E0"/>
<path d="M365.075 313.403C349.186 322.115 323.425 322.115 307.536 313.403C291.647 304.693 291.647 290.568 307.536 281.855C323.425 273.145 349.186 273.145 365.075 281.855C380.965 290.568 380.965 304.693 365.075 313.403Z" fill="#E0E0E0"/>
<path d="M30.5466 360.154L29.7876 359.716C28.5736 359.015 27.5896 357.311 27.5896 355.909V99.6548C27.5896 98.2528 28.5736 96.5488 29.7876 95.8478L194.905 0.52575C196.119 -0.17525 198.087 -0.17525 199.301 0.52575L200.06 0.963752C201.274 1.66475 202.258 3.36875 202.258 4.77075V261.025C202.258 262.427 201.274 264.131 200.06 264.832L34.9426 360.154C33.7286 360.855 31.7596 360.855 30.5466 360.154Z" fill="#594DF4"/>
<path opacity="0.4" d="M202.236 4.41774C202.086 3.27774 201.165 2.86374 200.06 3.49674L34.9375 98.8267C34.3275 99.1717 33.7866 99.7817 33.3836 100.462L28.2375 97.4917C28.6285 96.8007 29.1815 96.2027 29.7915 95.8457L194.903 0.526744C196.123 -0.175256 198.092 -0.175256 199.3 0.526744L200.06 0.964744C201.166 1.60974 202.098 3.09474 202.236 4.41774Z" fill="white"/>
<path opacity="0.1" d="M34.5695 360.327C33.3605 360.845 31.6455 360.787 30.5515 360.154L29.7805 359.716C28.5715 359.014 27.5935 357.31 27.5935 355.906V99.6557C27.5935 98.9537 27.8355 98.1707 28.2385 97.4917L33.3845 100.462C32.9935 101.153 32.7395 101.935 32.7395 102.626V358.887C32.7395 360.143 33.5335 360.73 34.5695 360.327Z" fill="#A37D0A"/>
<path d="M52.2146 267.476L51.4556 267.038C50.2416 266.337 49.2576 264.632 49.2576 263.231V217.172C49.2576 215.77 50.2416 214.066 51.4556 213.365L201.363 126.736C202.577 126.035 204.545 126.035 205.759 126.736L206.518 127.174C207.732 127.875 208.716 129.579 208.716 130.981V177.04C208.716 178.442 207.732 180.146 206.518 180.847L56.6106 267.476C55.3966 268.177 53.4286 268.177 52.2146 267.476Z" fill="#EBEBEB"/>
<path d="M208.694 130.628C208.544 129.488 207.624 129.074 206.518 129.707L56.6065 216.345C55.9965 216.69 55.4555 217.301 55.0525 217.98L49.9065 215.01C50.2985 214.319 50.8505 213.721 51.4605 213.364L201.362 126.737C202.582 126.035 204.55 126.035 205.758 126.737L206.518 127.174C207.623 127.819 208.556 129.304 208.694 130.628Z" fill="#FAFAFA"/>
<path d="M56.2375 267.649C55.0285 268.167 53.3135 268.109 52.2195 267.476L51.4485 267.039C50.2395 266.337 49.2615 264.633 49.2615 263.229V217.174C49.2615 216.472 49.5035 215.689 49.9065 215.01L55.0525 217.98C54.6615 218.671 54.4075 219.453 54.4075 220.144V266.21C54.4075 267.465 55.2015 268.052 56.2375 267.649Z" fill="#E0E0E0"/>
<path d="M77.8076 213.253C86.3576 208.316 93.2886 212.157 93.2876 221.832C93.2866 231.506 86.3476 243.271 77.7896 248.108C69.2306 252.946 62.2926 249.101 62.2966 239.526C62.3006 229.95 69.2576 218.189 77.8076 213.253Z" fill="#594DF4"/>
<path d="M52.2146 329.894L51.4556 329.456C50.2416 328.755 49.2576 327.05 49.2576 325.649V279.59C49.2576 278.188 50.2416 276.484 51.4556 275.783L201.363 189.154C202.577 188.453 204.545 188.453 205.759 189.154L206.518 189.592C207.732 190.293 208.716 191.997 208.716 193.399V239.458C208.716 240.86 207.732 242.564 206.518 243.265L56.6106 329.894C55.3966 330.595 53.4286 330.595 52.2146 329.894Z" fill="#EBEBEB"/>
<path d="M208.694 193.046C208.544 191.906 207.624 191.492 206.518 192.125L56.6065 278.763C55.9965 279.108 55.4555 279.719 55.0525 280.398L49.9065 277.428C50.2985 276.737 50.8505 276.139 51.4605 275.782L201.362 189.155C202.582 188.453 204.55 188.453 205.758 189.155L206.518 189.592C207.623 190.237 208.556 191.722 208.694 193.046Z" fill="#FAFAFA"/>
<path d="M56.2375 330.067C55.0285 330.585 53.3135 330.527 52.2195 329.894L51.4485 329.456C50.2395 328.754 49.2615 327.05 49.2615 325.646V279.591C49.2615 278.889 49.5035 278.106 49.9065 277.427L55.0525 280.397C54.6615 281.088 54.4075 281.87 54.4075 282.561V328.627C54.4075 329.883 55.2015 330.47 56.2375 330.067Z" fill="#E0E0E0"/>
<path d="M77.8076 275.671C86.3576 270.735 93.2886 274.575 93.2876 284.25C93.2866 293.924 86.3476 305.689 77.7896 310.526C69.2306 315.364 62.2926 311.519 62.2966 301.944C62.3006 292.368 69.2576 280.607 77.8076 275.671Z" fill="#594DF4"/>
<path d="M52.2146 163.091L51.4556 162.653C50.2416 161.952 49.2576 160.247 49.2576 158.846V112.787C49.2576 111.385 50.2416 109.681 51.4556 108.98L201.363 22.3507C202.577 21.6497 204.545 21.6497 205.759 22.3507L206.518 22.7887C207.732 23.4897 208.716 25.1937 208.716 26.5957V72.6547C208.716 74.0567 207.732 75.7607 206.518 76.4617L56.6106 163.091C55.3966 163.792 53.4286 163.792 52.2146 163.091Z" fill="#EBEBEB"/>
<path d="M208.694 26.2427C208.544 25.1027 207.624 24.6887 206.518 25.3217L56.6065 111.96C55.9965 112.305 55.4555 112.915 55.0525 113.595L49.9065 110.625C50.2985 109.934 50.8505 109.336 51.4605 108.979L201.362 22.3517C202.582 21.6497 204.55 21.6497 205.758 22.3517L206.518 22.7897C207.623 23.4337 208.556 24.9187 208.694 26.2427Z" fill="#FAFAFA"/>
<path d="M56.2375 163.264C55.0285 163.782 53.3135 163.725 52.2195 163.091L51.4485 162.654C50.2395 161.952 49.2615 160.248 49.2615 158.844V112.789C49.2615 112.087 49.5035 111.304 49.9065 110.625L55.0525 113.595C54.6615 114.286 54.4075 115.068 54.4075 115.759V161.825C54.4075 163.08 55.2015 163.667 56.2375 163.264Z" fill="#E0E0E0"/>
<path d="M77.8076 108.868C86.3576 103.932 93.2886 107.772 93.2876 117.447C93.2866 127.121 86.3476 138.886 77.7896 143.723C69.2306 148.561 62.2926 144.716 62.2966 135.141C62.3006 125.565 69.2576 113.804 77.8076 108.868Z" fill="#594DF4"/>
<path d="M62.7505 221.569L61.9915 221.131C60.7775 220.43 59.7935 218.725 59.7935 217.324V171.265C59.7935 169.863 60.7775 168.159 61.9915 167.458L211.898 80.8287C213.112 80.1277 215.08 80.1277 216.294 80.8287L217.053 81.2667C218.267 81.9677 219.251 83.6727 219.251 85.0737V131.133C219.251 132.535 218.267 134.239 217.053 134.94L67.1465 221.569C65.9325 222.27 63.9645 222.27 62.7505 221.569Z" fill="#37474F"/>
<path d="M219.23 84.7207C219.08 83.5807 218.159 83.1667 217.054 83.7997L67.1424 170.438C66.5324 170.783 65.9914 171.394 65.5884 172.073L60.4424 169.103C60.8334 168.412 61.3864 167.814 61.9964 167.457L211.897 80.8297C213.117 80.1277 215.086 80.1277 216.294 80.8297L217.054 81.2677C218.159 81.9117 219.092 83.3967 219.23 84.7207Z" fill="#455A64"/>
<path d="M66.7746 221.742C65.5656 222.26 63.8506 222.202 62.7576 221.569L61.9866 221.132C60.7776 220.43 59.7996 218.726 59.7996 217.322V171.267C59.7996 170.565 60.0416 169.782 60.4446 169.103L65.5906 172.073C65.1996 172.764 64.9456 173.546 64.9456 174.237V220.303C64.9436 221.558 65.7386 222.145 66.7746 221.742Z" fill="black"/>
<path d="M88.3435 167.346C96.8935 162.409 103.825 166.25 103.824 175.925C103.823 185.599 96.8835 197.364 88.3255 202.201C79.7665 207.039 72.8285 203.194 72.8325 193.619C72.8375 184.043 79.7935 172.282 88.3435 167.346Z" fill="#F5F5F5"/>
<path d="M88.6495 195.174C87.9215 195.594 87.2285 195.63 86.7505 195.268L79.9505 190.124C79.0415 189.438 79.1555 187.541 80.2055 185.886C81.2535 184.227 82.8435 183.447 83.7475 184.135L88.4875 187.719L101.65 159.43C102.473 157.663 104.044 156.48 105.161 156.782C106.28 157.084 106.52 158.762 105.699 160.526L90.6736 192.821C90.2206 193.794 89.5125 194.638 88.7485 195.115C88.7165 195.135 88.6825 195.155 88.6495 195.174Z" fill="#594DF4"/>
<path d="M219.216 153.124L214.869 150.614V150.625C212.978 149.539 210.668 150.613 209.445 151.364L206.733 149.799C203.441 147.811 198.866 151.969 197.842 152.967L196.669 152.29L196.67 152.292C193.18 150.187 186.838 155.818 186.838 155.818V134.866L189.593 133.531L185.209 130.996C185.206 130.994 185.203 130.992 185.199 130.99L185.169 130.972L185.168 130.975C184.161 130.414 182.783 130.504 181.26 131.383C178.179 133.162 175.682 137.488 175.682 141.045V189.614C171.673 186.64 167.409 184.815 163.669 185.48C160.297 186.08 157.284 188.952 156.409 190.494C154.564 193.746 157.608 195.787 161.529 200.272C165.415 204.717 168.844 210.07 172.384 213.372C175.925 216.675 178.491 217.534 178.491 217.534V223.865L182.799 226.352L211.27 204.94V198.609C211.27 198.609 215.338 182.393 216.637 175.615C217.888 169.088 219.038 158.684 216.889 153.281L219.215 153.123L219.216 153.124Z" fill="#594DF4"/>
<path opacity="0.4" d="M219.216 153.124L214.869 150.614V150.625C212.978 149.539 210.668 150.613 209.445 151.364L206.733 149.799C203.441 147.811 198.866 151.969 197.842 152.967L196.669 152.29L196.67 152.292C193.18 150.187 186.838 155.818 186.838 155.818V134.866L189.593 133.531L185.209 130.996C185.206 130.994 185.203 130.992 185.199 130.99L185.169 130.972L185.168 130.975C184.161 130.414 182.783 130.504 181.26 131.383C178.179 133.162 175.682 137.488 175.682 141.045V189.614C171.673 186.64 167.409 184.815 163.669 185.48C160.297 186.08 157.284 188.952 156.409 190.494C154.564 193.746 157.608 195.787 161.529 200.272C165.415 204.717 168.844 210.07 172.384 213.372C175.925 216.675 178.491 217.534 178.491 217.534V223.865L182.799 226.352L211.27 204.94V198.609C211.27 198.609 215.338 182.393 216.637 175.615C217.888 169.088 219.038 158.684 216.889 153.281L219.215 153.123L219.216 153.124Z" fill="white"/>
<path d="M187.102 208.946L165.564 196.512L156.131 191.066C154.931 194 157.841 196.057 161.528 200.274C165.414 204.719 168.843 210.072 172.383 213.374C175.924 216.677 178.49 217.536 178.49 217.536V223.867L182.798 226.354L189.088 221.624C188.274 216.243 187.102 208.946 187.102 208.946Z" fill="#594DF4"/>
<path d="M179.99 143.534L175.682 141.047V191.992L179.99 192.103V143.534Z" fill="#594DF4"/>
<path d="M213.774 156.395L217.111 153.933C217.039 153.714 216.971 153.489 216.89 153.284L218.102 153.201L215.426 153.079L210.952 150.615C210.371 150.843 209.846 151.119 209.446 151.365L210.843 152.178L213.774 156.395Z" fill="#594DF4"/>
<path d="M201.94 155.665L205.076 153.279L200.754 150.665C199.383 151.523 198.283 152.537 197.842 152.967L200.842 154.702L201.94 155.665Z" fill="#594DF4"/>
<path d="M195.403 155.434L191.129 152.933L191.147 152.893V158.306L196.129 156.478L195.403 155.434Z" fill="#594DF4"/>
<g opacity="0.15">
<path d="M187.102 208.946L165.564 196.512L156.131 191.066C154.931 194 157.841 196.057 161.528 200.274C165.414 204.719 168.843 210.072 172.383 213.374C175.924 216.677 178.49 217.536 178.49 217.536V223.867L182.798 226.354L189.088 221.624C188.274 216.243 187.102 208.946 187.102 208.946Z" fill="#A37D0A"/>
<path d="M179.99 143.534L175.682 141.047V191.992L179.99 192.103V143.534Z" fill="#A37D0A"/>
<path d="M213.774 156.395L217.111 153.933C217.039 153.714 216.971 153.489 216.89 153.284L218.102 153.201L215.426 153.079L210.952 150.615C210.371 150.843 209.846 151.119 209.446 151.365L210.843 152.178L213.774 156.395Z" fill="#A37D0A"/>
<path d="M201.94 155.665L205.076 153.279L200.754 150.665C199.383 151.523 198.283 152.537 197.842 152.967L200.842 154.702L201.94 155.665Z" fill="#A37D0A"/>
<path d="M195.403 155.434L191.129 152.933L191.147 152.893V158.306L196.129 156.478L195.403 155.434Z" fill="#A37D0A"/>
</g>
<path d="M182.799 226.354V220.023C182.799 220.023 180.233 219.163 176.692 215.861C173.151 212.559 169.723 207.205 165.837 202.761C161.916 198.276 158.871 196.236 160.717 192.983C161.592 191.441 164.604 188.568 167.977 187.969C171.718 187.304 175.981 189.129 179.99 192.103V143.534C179.99 139.976 182.487 135.651 185.568 133.872C188.649 132.093 191.146 133.535 191.146 137.093V158.307C191.146 158.307 198.833 151.48 201.939 155.667C201.939 155.667 209.491 147.756 212.901 154.438C212.901 154.438 218.446 149.96 220.946 155.157C223.446 160.354 222.245 171.329 220.946 178.106C219.647 184.883 215.579 201.1 215.579 201.1V207.431L182.799 226.354Z" fill="#594DF4"/>
<path d="M191.146 167.415C191.146 167.415 191.846 157.736 195.402 155.434C195.401 155.434 195.351 155.449 195.275 155.471C193.011 156.652 191.146 158.306 191.146 158.306V158.123C191.107 158.245 191.146 158.306 191.146 158.306V167.415Z" fill="#455A64"/>
<path d="M201.939 155.665V164.52C201.939 164.52 202.921 155.415 204.962 153.215C203.224 154.323 201.947 155.658 201.939 155.665Z" fill="#455A64"/>
<path d="M212.901 154.436V163.323C212.901 163.323 213.442 154.37 215.37 153.049C213.968 153.577 212.908 154.431 212.901 154.436Z" fill="#455A64"/>
<path d="M181.231 125.267C180.539 125.666 179.978 125.429 179.978 124.737V117.71C179.978 117.018 180.539 116.133 181.231 115.734C181.923 115.334 182.484 115.572 182.484 116.263V123.29C182.484 123.983 181.923 124.868 181.231 125.267Z" fill="#EBEBEB"/>
<path d="M170.733 136.349C170.244 137.196 169.45 137.654 168.961 137.372L164.895 135.024C164.406 134.742 164.406 133.826 164.895 132.978C165.384 132.131 166.178 131.673 166.667 131.955L170.733 134.302C171.223 134.585 171.223 135.501 170.733 136.349Z" fill="#EBEBEB"/>
<path d="M166.385 150.88V151.081C166.385 151.824 165.782 152.775 165.039 153.204L159.476 156.416C158.733 156.845 158.13 156.59 158.13 155.847V155.646C158.13 154.903 158.733 153.952 159.476 153.522L165.039 150.31C165.783 149.882 166.385 150.137 166.385 150.88Z" fill="#EBEBEB"/>
<path d="M196.076 133.939V133.738C196.076 132.995 196.679 132.044 197.422 131.614L202.985 128.402C203.728 127.973 204.331 128.228 204.331 128.971V129.172C204.331 129.915 203.728 130.866 202.985 131.296L197.422 134.508C196.679 134.937 196.076 134.682 196.076 133.939Z" fill="#EBEBEB"/>
<path d="M191.728 124.227C191.239 123.944 191.239 123.028 191.728 122.181L195.794 115.139C196.283 114.292 197.076 113.834 197.566 114.116C198.055 114.398 198.055 115.314 197.566 116.162L193.5 123.204C193.011 124.052 192.218 124.51 191.728 124.227Z" fill="#EBEBEB"/>
<path d="M349.918 289.039V287.901C349.469 289.236 347.388 294.982 344.23 297.862C341.72 300.151 338.296 302.796 337.425 305.348C336.519 308.003 342.19 308.894 344.535 308.479C347.26 307.997 350.785 306.451 352.703 304.093C354.052 302.436 354.911 300.471 355.875 299.168C356.838 297.865 359.059 296.409 359.58 294.901C359.866 294.072 359.526 292.257 359.124 290.724C358.755 289.317 358.355 287.77 357.875 287.902C357.874 288.074 357.875 288.769 357.875 288.769C357.297 289.409 355.699 290.045 353.897 290.114C352.733 290.158 349.909 289.927 349.918 289.039Z" fill="black"/>
<path d="M341.959 299.876C342.737 299.181 343.521 298.502 344.231 297.854C346.437 295.842 348.118 292.43 349.084 290.101C349.635 288.772 349.919 287.353 349.919 285.914V281.379H357.876V288.761V288.762V288.959L357.836 288.979C357.453 290.633 353.802 295.031 351.727 297.899C350.337 299.822 347.694 302.268 344.536 302.689C341.543 303.089 340.014 302.145 341.959 299.876Z" fill="#FFA8A7"/>
<path d="M318.88 281.195V280.057C318.431 281.392 316.349 287.138 313.192 290.018C310.682 292.307 307.258 294.952 306.387 297.504C305.481 300.159 311.152 301.05 313.497 300.635C316.222 300.153 319.747 298.606 321.666 296.249C323.015 294.592 323.874 292.627 324.837 291.323C325.8 290.02 328.021 288.564 328.542 287.056C328.828 286.227 328.488 284.412 328.086 282.879C327.717 281.472 327.317 279.925 326.837 280.057C326.836 280.228 326.837 280.924 326.837 280.924C326.259 281.564 324.661 282.2 322.859 282.269C321.695 282.314 318.871 282.083 318.88 281.195Z" fill="black"/>
<path d="M310.92 292.032C311.699 291.337 312.482 290.658 313.192 290.01C315.398 287.998 317.079 284.586 318.045 282.257C318.596 280.928 318.88 279.509 318.88 278.07V273.535H326.837V280.917V280.918V281.115L326.797 281.135C326.414 282.789 322.763 287.187 320.688 290.055C319.297 291.978 316.655 294.424 313.497 294.845C310.505 295.244 308.976 294.301 310.92 292.032Z" fill="#FFA8A7"/>
<path d="M356.292 165.374C362.461 178.848 356.069 226.311 356.069 226.311C356.254 228.497 358.754 232.8 359.686 242.423C360.787 253.794 357.959 282.344 357.959 282.344C357.959 282.344 354.275 284.753 349.917 282.664C349.917 282.664 342.333 239.665 340.907 228.36C339.662 218.494 337.274 196.8 337.274 196.8L330.485 228.307C330.485 228.307 332.227 233.834 332.635 238.045C333.279 244.695 326.836 275.656 326.836 275.656C326.836 275.656 324.09 276.663 318.879 275.896C318.879 275.896 316.6 234.809 315.999 226.799C314.99 213.346 318.563 171.369 321.031 163.405L356.292 165.374Z" fill="#37474F"/>
<path d="M337.275 196.798L335.272 184.284C335.272 184.284 326.799 182.529 322.956 178.916C322.956 178.916 326.988 183.931 332.976 185.574L335.225 195.209L331.293 224.382L337.275 196.798Z" fill="black"/>
<path d="M332.242 118.198C332.242 118.198 326.267 117.321 322.118 122.734C318.932 126.891 306.745 142.761 306.745 142.761C306.745 142.761 288.781 133.771 287.898 132.706C287.014 131.64 287.511 129.485 287.754 128.299C287.998 127.113 288.399 124.479 288.663 123.738C289.125 122.446 287.213 122.795 286.087 124.002C284.934 125.239 284.461 127.57 283.898 127.976C283.337 128.382 279.063 123.466 276.988 121.094C274.914 118.722 273.941 117.062 272.551 118.041C271.549 118.746 272.192 120.154 273.679 122.187C275.166 124.219 275.383 124.438 275.6 124.879C275.778 125.243 275.229 125.534 275.012 125.728C274.61 126.088 273.894 126.678 273.844 127.241C273.817 127.548 273.873 127.865 273.788 128.162C273.594 128.838 272.757 129.156 272.521 129.818C272.35 130.297 272.539 130.834 272.442 131.334C272.38 131.656 272.202 131.947 272.145 132.27C272.032 132.904 272.396 133.523 272.81 134.015C274.267 135.748 276.259 136.412 278.169 137.469C279.757 138.348 281.397 138.733 283.225 139.545C285.054 140.358 306.276 155.069 309.633 153.215C312.99 151.362 330.332 131.189 330.332 131.189C335.336 122.902 332.242 118.198 332.242 118.198Z" fill="#FFA8A7"/>
<path d="M345.411 118.565C353.32 119.109 353.875 122.929 355.854 127.106C357.361 130.286 357.378 133.974 356.228 137.3L350.717 153.244C350.717 153.244 353.298 159.481 356.293 165.375C342.462 173.095 325.192 169.037 321.033 163.404C320.857 162.209 321.926 152.868 322.584 146.766C320.148 140.655 319.505 136.782 320.533 132.743C322.441 125.245 329.847 117.94 333.124 118.206L345.411 118.565Z" fill="#F5F5F5"/>
<path d="M337.808 112.01H340.877C349.805 112.01 357.042 104.773 357.042 95.8448C357.042 86.8688 349.766 79.5918 340.789 79.5918H337.895C328.919 79.5918 321.642 86.8688 321.642 95.8448C321.642 104.773 328.88 112.01 337.808 112.01Z" fill="black"/>
<path d="M365.698 120.53C360.423 120.53 356.147 116.254 356.147 110.979V90.5278C361.422 90.5278 365.698 94.8038 365.698 100.079V120.53Z" fill="black"/>
<path d="M357.898 86.8998L355.504 90.7478C356.565 91.4578 357.962 91.1718 358.623 90.1088C359.284 89.0468 358.959 87.6098 357.898 86.8998Z" fill="black"/>
<path d="M327.457 86.7498C325.587 87.8548 323.277 92.5567 323.505 102.415C323.698 110.77 326.406 112.833 327.766 113.428C329.126 114.023 331.748 113.661 334.298 113.236V118.25C334.298 118.25 330.775 122.343 330.996 124.642C331.218 126.941 336.084 127.484 339.381 125.238C342.678 122.992 344.792 119.573 344.792 119.573V107.453C344.792 107.453 346.513 109.751 349.328 107.882C352.143 106.013 352.25 101.385 350.613 99.7238C348.976 98.0618 345.449 98.5888 344.791 100.884C344.791 100.884 340.725 101.032 335.311 98.0578C329.897 95.0838 327.817 89.9898 327.457 86.7498Z" fill="#FFA8A7"/>
<path d="M333.768 100.316C333.738 100.918 334.183 101.428 334.763 101.456C335.343 101.483 335.837 101.018 335.867 100.416C335.897 99.8138 335.452 99.3038 334.872 99.2758C334.293 99.2488 333.798 99.7138 333.768 100.316Z" fill="black"/>
<path d="M332.552 107.399L330.112 108.177C330.315 108.875 331.025 109.267 331.699 109.052C332.372 108.837 332.755 108.097 332.552 107.399Z" fill="#F28F8F"/>
<path d="M325.154 97.0898L327.28 95.6168C326.892 95.0098 326.102 94.8478 325.515 95.2548C324.927 95.6618 324.766 96.4828 325.154 97.0898Z" fill="black"/>
<path d="M325.644 99.5568C325.614 100.159 326.059 100.669 326.639 100.697C327.218 100.725 327.713 100.259 327.743 99.6568C327.773 99.0548 327.328 98.5448 326.749 98.5168C326.169 98.4888 325.674 98.9548 325.644 99.5568Z" fill="black"/>
<path d="M330.775 98.9548L330.608 105.28L327.28 104.249L330.775 98.9548Z" fill="#F28F8F"/>
<path d="M334.297 113.237C336.984 112.885 342.512 111.297 343.373 109.111C343.373 109.111 343.086 110.484 341.435 111.9C339.784 113.315 334.297 114.91 334.297 114.91V113.237Z" fill="#F28F8F"/>
<path opacity="0.1" d="M341.873 166.87C346.416 165.794 349.298 161.199 348.098 156.687C348.052 156.516 348.005 156.369 347.957 156.252C347.068 154.114 345.156 154.395 345.156 154.395C346.949 153.206 348.193 151.352 348.613 149.242L350.295 139.25C350.295 139.25 350.669 137.041 349.868 134.403L355.427 127.973C355.427 127.973 355.826 128.251 356.454 128.687C357.32 131.472 357.191 134.511 356.227 137.3L350.716 153.244C350.716 153.244 353.297 159.481 356.292 165.375C346.099 171.064 334.044 170.354 326.74 167.333C332.51 168.227 337.855 167.821 341.873 166.87Z" fill="#A37D0A"/>
<path d="M370.448 158.253C363.267 128.901 357.957 119.112 349.235 119.226C346.689 122.27 347.392 131.464 351.417 137.044C351.417 137.044 360.39 155.975 361.822 162.704C363.08 168.616 364.504 176.054 364.414 181.137C364.398 182.037 364.027 182.893 363.417 183.555C361.779 185.331 361.772 186.761 360.711 188.725C359.88 190.263 358.97 190.838 359.23 191.184C359.563 191.629 360.615 192.209 361.924 191.383C362.582 190.968 363.01 190.48 363.965 189.425C363.965 189.425 363.705 191.806 362.346 194.87C360.505 199.023 360.953 201.142 366.559 199.663C370.072 198.736 372.277 195.81 372.803 187.367C372.955 184.935 373.184 181.098 372.896 178.022C372.145 170.015 371.604 162.978 370.448 158.253Z" fill="#FFA8A7"/>
<path d="M299.207 242.164C299.976 213.598 297.686 206.752 290.081 201.519L287.135 218.072C287.135 218.072 290.599 237.578 290.227 244.074C289.9 249.781 289.345 256.921 287.995 261.535C287.756 262.352 287.204 263.04 286.482 263.492C284.545 264.703 283.764 265.947 282.306 267.474C281.164 268.67 280.191 268.967 280.342 269.348C280.535 269.837 281.35 270.628 282.75 270.201C283.454 269.986 284.363 269.435 285.498 268.71C285.498 268.71 284.687 271.09 282.684 273.546C279.969 276.875 279.849 278.92 285.332 278.968C288.767 278.999 291.509 276.879 294.094 269.309C294.839 267.128 296.005 263.685 296.509 260.808C297.822 253.316 299.083 246.762 299.207 242.164Z" fill="#B16668"/>
<path d="M283.682 199.349C287.312 198.823 292.247 199.584 295.434 205.284C298.621 210.985 299.403 220.791 299.766 230.542C299.766 230.542 293.434 235.837 285.84 233.233L283.682 199.349Z" fill="#594DF4"/>
<path opacity="0.1" d="M283.682 199.349C287.312 198.823 292.247 199.584 295.434 205.284C298.621 210.985 299.403 220.791 299.766 230.542C299.766 230.542 293.434 235.837 285.84 233.233L283.682 199.349Z" fill="#A37D0A"/>
<path d="M294.362 356.464C294.938 356.682 295.084 357.78 295.171 359.963C295.237 361.615 295.591 364.498 293.656 365.074C291.721 365.65 288.887 365.356 287.647 363.798C286.099 361.855 285.053 360.144 282.844 357.773C280.928 355.716 278.855 353.796 278.082 350.911C277.383 348.304 277.965 347.173 279.744 346.415C282.19 345.373 286.032 348.778 287.948 349.314C289.598 349.778 293.786 356.246 294.362 356.464Z" fill="black"/>
<path d="M294.362 354.443V357.124C294.362 357.124 291.575 359.265 287.589 357.307C287.472 357.049 286.885 353.473 286.885 353.473L294.362 354.443Z" fill="#B16668"/>
<path d="M272.655 371.911C272.655 371.911 273.424 374.242 273.839 376.281C274.168 377.901 274.64 380.61 274.073 381.829C273.505 383.048 271.292 383.835 267.86 383.808C265.637 383.791 262.174 385.3 259.802 386.624C257.353 387.991 252.258 388.535 249.667 388.231C246.614 387.873 243.451 386.102 242.957 384.837C242.463 383.573 243.119 382.26 250.315 379.194C250.381 379.166 260.318 375.935 263.8 372.092L272.655 371.911Z" fill="black"/>
<path d="M272.655 369.014C272.655 369.014 272.645 371.003 272.655 372.14C272.665 373.277 271.322 374.971 267.847 374.847C265.406 374.76 263.702 374.104 263.799 372.093V369.195L272.655 369.014Z" fill="#B16668"/>
<path d="M296.105 318.872C294.878 310.114 292.94 304.912 292.94 304.912C292.94 304.912 293.897 292.868 294.356 281.448C294.852 269.113 294.33 253.608 294.564 250.531C294.564 250.531 254.762 242.478 254.052 256.737C253.342 270.996 255.623 307.292 256.094 313.556C256.564 319.82 257.647 325.36 258.941 335.512C260.218 345.532 263.798 369.194 263.798 369.194C268.345 371.652 272.654 369.013 272.654 369.013C272.654 369.013 275.455 340.502 275.161 333.275C274.802 324.449 272.42 317.499 272.42 317.499C272.42 317.499 273.175 305.742 273.841 295.515C274.507 285.288 275.213 280.376 275.368 275.928L276.225 275.504C276.225 275.504 277.098 293.147 277.568 299.411C278.039 305.675 279.035 311.681 280.847 323.316C282.419 333.409 287.101 354.765 287.101 354.765C291.648 357.223 294.361 354.443 294.361 354.443C294.361 354.443 297.333 327.63 296.105 318.872Z" fill="#37474F"/>
<path d="M275.369 275.928C275.369 275.928 285.024 271.17 289.857 266.879C289.857 266.879 285.37 273.202 279.48 276.005C279.48 276.005 277.385 297.922 277.396 297.487L276.186 275.896L275.369 275.928Z" fill="black"/>
<path d="M266.775 194.833L269.13 207.796L280.84 206.941L278.381 192.246L266.775 194.833Z" fill="#B16668"/>
<path d="M293.206 205.994C292.047 202.469 287.576 198.633 283.101 199.465C274.881 200.992 268.36 202.624 263.506 204.358C259.41 205.821 255.678 209.362 255.338 222.837C255.338 222.837 253.966 254.251 253.941 260.326C264.228 264.397 274.927 264.271 280.84 262.979C293.151 260.289 294.635 255.183 294.635 255.183C294.635 255.183 294.794 232.593 294.425 222.837C294.112 214.547 294.002 208.414 293.206 205.994Z" fill="#594DF4"/>
<path d="M257.741 179.066C257.741 179.066 254.772 183.8 255.132 184.25C255.493 184.7 257.764 185.063 257.764 185.063L257.741 179.066Z" fill="#B16668"/>
<path d="M265.987 165.968C259.795 167.421 258.061 170.196 257.697 180.092C257.317 190.432 258.444 193.655 259.832 195.015C260.769 195.932 265.862 195.988 268.414 195.222C271.607 194.264 278.811 191.527 282.095 186.256C285.957 180.054 286.822 171.748 282.462 168.447C276.327 163.801 268.507 165.377 265.987 165.968Z" fill="#B16668"/>
<path d="M266.907 195.542C269.008 193.852 268.82 192.763 268.82 192.763C267.313 194.17 261.736 195.376 259.833 195.015C260.609 195.775 264.234 195.942 266.907 195.542Z" fill="#9A4A4D"/>
<path d="M257.764 168.543C259.581 171.654 263.525 173.141 263.525 173.141C264.712 174.494 264.058 179.769 266.148 180.606C266.148 180.606 267.045 176.767 270.273 177.174C273.522 177.584 274.052 181.702 272.069 184.256C270.084 186.81 268.16 185.891 268.16 185.891C268.16 185.891 268.383 191.345 270.869 194.379C270.869 194.379 273.641 195.208 278.676 194.015C281.771 193.282 286.081 189.296 287.837 185.138C291.552 176.342 291.649 168.501 286.037 166.278C285.345 162.279 282.146 160.551 278.525 159.805C270.733 158.199 265.709 163.062 259.711 162.64C256.277 162.398 255.636 164.898 257.764 168.543Z" fill="black"/>
<path d="M286.164 167.619L289.837 165.341C289.208 164.327 287.875 164.014 286.861 164.644C285.847 165.272 285.535 166.604 286.164 167.619Z" fill="black"/>
<path d="M263.825 204.303C263.825 204.303 258.006 205.378 254.964 209.981C251.922 214.584 238.77 231.078 238.77 231.078C238.77 231.078 219.846 221.608 218.916 220.485C217.985 219.362 218.509 217.092 218.765 215.843C219.022 214.594 219.445 211.818 219.723 211.038C220.209 209.677 218.196 210.045 217.009 211.317C215.794 212.62 215.296 215.076 214.703 215.504C214.112 215.931 209.609 210.753 207.423 208.254C205.238 205.755 204.213 204.006 202.749 205.038C201.694 205.781 202.371 207.264 203.938 209.406C205.505 211.547 205.733 211.777 205.961 212.242C206.149 212.625 205.571 212.931 205.341 213.137C204.917 213.517 204.164 214.138 204.111 214.731C204.082 215.055 204.141 215.389 204.052 215.701C203.848 216.413 202.966 216.748 202.717 217.445C202.537 217.95 202.735 218.516 202.634 219.042C202.569 219.381 202.382 219.688 202.321 220.028C202.202 220.695 202.585 221.348 203.022 221.867C204.557 223.693 206.656 224.392 208.668 225.505C210.341 226.431 212.068 226.836 213.995 227.692C215.921 228.548 238.607 245.314 242.144 243.362C245.681 241.41 263.828 220.208 263.828 220.208C269.095 211.477 263.825 204.303 263.825 204.303Z" fill="#B16668"/>
<path d="M265.853 203.619C263.35 203.907 259.844 203.443 254.941 208.708C250.038 213.973 243.909 222.905 243.909 222.905C243.909 222.905 245.611 231.442 254.881 233.234C254.881 233.234 263.465 224.439 265.853 219.597C268.24 214.754 268.8 206.887 265.853 203.619Z" fill="#594DF4"/>
<path opacity="0.1" d="M265.853 203.619C263.35 203.907 259.844 203.443 254.941 208.708C250.038 213.973 243.909 222.905 243.909 222.905C243.909 222.905 245.611 231.442 254.881 233.234C254.881 233.234 263.465 224.439 265.853 219.597C268.24 214.754 268.8 206.887 265.853 203.619Z" fill="#A37D0A"/>
</svg>
